Playfair_5pt SemiCondensed Black.ufo
<glyph name="numbersign" format="2">
  <advance width="795"/>
  <unicode hex="0023"/>
  <outline>
    <contour>
      <point x="410" y="4" type="line"/>
      <point x="540" y="41" type="line"/>
      <point x="664" y="681" type="line"/>
      <point x="534" y="645" type="line"/>
    </contour>
    <contour>
      <point x="30" y="19" type="line"/>
      <point x="693" y="204" type="line"/>
      <point x="707" y="277" type="line"/>
      <point x="44" y="93" type="line"/>
    </contour>
    <contour>
      <point x="133" y="-73" type="line"/>
      <point x="263" y="-36" type="line"/>
      <point x="387" y="604" type="line"/>
      <point x="257" y="568" type="line"/>
    </contour>
    <contour>
      <point x="88" y="323" type="line"/>
      <point x="751" y="507" type="line"/>
      <point x="765" y="581" type="line"/>
      <point x="102" y="396" type="line"/>
    </contour>
  </outline>
</glyph>
<glyph name="percent" format="2">
  <advance width="830"/>
  <unicode hex="0025"/>
  <outline>
    <contour>
      <point x="176" y="-14" type="line"/>
      <point x="692" y="501" type="line"/>
      <point x="658" y="533" type="line"/>
      <point x="142" y="19" type="line"/>
    </contour>
    <contour>
      <point x="582" y="-14" type="curve" smooth="yes"/>
      <point x="686" y="-14"/>
      <point x="758" y="38"/>
      <point x="758" y="114" type="curve" smooth="yes"/>
      <point x="758" y="188"/>
      <point x="691" y="237"/>
      <point x="590" y="237" type="curve" smooth="yes"/>
      <point x="485" y="237"/>
      <point x="414" y="185"/>
      <point x="414" y="108" type="curve" smooth="yes"/>
      <point x="414" y="35"/>
      <point x="481" y="-14"/>
    </contour>
    <contour>
      <point x="588" y="34" type="curve" smooth="yes"/>
      <point x="548" y="34"/>
      <point x="527" y="61"/>
      <point x="527" y="113" type="curve" smooth="yes"/>
      <point x="527" y="163"/>
      <point x="547" y="189"/>
      <point x="585" y="189" type="curve" smooth="yes"/>
      <point x="624" y="189"/>
      <point x="645" y="161"/>
      <point x="645" y="109" type="curve" smooth="yes"/>
      <point x="645" y="59"/>
      <point x="626" y="34"/>
    </contour>
    <contour>
      <point x="240" y="282" type="curve" smooth="yes"/>
      <point x="344" y="282"/>
      <point x="416" y="334"/>
      <point x="416" y="410" type="curve" smooth="yes"/>
      <point x="416" y="484"/>
      <point x="349" y="533"/>
      <point x="248" y="533" type="curve" smooth="yes"/>
      <point x="143" y="533"/>
      <point x="72" y="481"/>
      <point x="72" y="404" type="curve" smooth="yes"/>
      <point x="72" y="331"/>
      <point x="139" y="282"/>
    </contour>
    <contour>
      <point x="246" y="330" type="curve" smooth="yes"/>
      <point x="206" y="330"/>
      <point x="185" y="357"/>
      <point x="185" y="409" type="curve" smooth="yes"/>
      <point x="185" y="459"/>
      <point x="205" y="485"/>
      <point x="243" y="485" type="curve" smooth="yes"/>
      <point x="282" y="485"/>
      <point x="303" y="457"/>
      <point x="303" y="405" type="curve" smooth="yes"/>
      <point x="303" y="355"/>
      <point x="284" y="330"/>
    </contour>
    <contour>
      <point x="491" y="447" type="curve" smooth="yes"/>
      <point x="538" y="447"/>
      <point x="583" y="465"/>
      <point x="644" y="507" type="curve"/>
      <point x="658" y="533" type="line"/>
      <point x="605" y="508"/>
      <point x="548" y="495"/>
      <point x="494" y="495" type="curve" smooth="yes"/>
      <point x="443" y="495"/>
      <point x="369" y="507"/>
      <point x="322" y="522" type="curve"/>
      <point x="345" y="500" type="line"/>
      <point x="398" y="464"/>
      <point x="445" y="447"/>
    </contour>
  </outline>
</glyph>
<glyph name="ampersand" format="2">
  <advance width="1148"/>
  <unicode hex="0026"/>
  <outline>
    <contour>
      <point x="374" y="-14" type="curve" smooth="yes"/>
      <point x="602" y="-14"/>
      <point x="743" y="97"/>
      <point x="819" y="337" type="curve"/>
      <point x="757" y="349" type="line"/>
      <point x="702" y="172"/>
      <point x="599" y="85"/>
      <point x="447" y="85" type="curve" smooth="yes"/>
      <point x="304" y="85"/>
      <point x="219" y="163"/>
      <point x="219" y="293" type="curve" smooth="yes"/>
      <point x="219" y="385"/>
      <point x="264" y="466"/>
      <point x="315" y="466" type="curve" smooth="yes"/>
      <point x="337" y="466"/>
      <point x="349" y="451"/>
      <point x="349" y="423" type="curve" smooth="yes"/>
      <point x="349" y="372"/>
      <point x="306" y="322"/>
      <point x="244" y="288" type="curve"/>
      <point x="280" y="224" type="line"/>
      <point x="500" y="339"/>
      <point x="669" y="509"/>
      <point x="669" y="628" type="curve" smooth="yes"/>
      <point x="669" y="678"/>
      <point x="639" y="712"/>
      <point x="594" y="712" type="curve" smooth="yes"/>
      <point x="558" y="712"/>
      <point x="533" y="690"/>
      <point x="533" y="658" type="curve" smooth="yes"/>
      <point x="533" y="622"/>
      <point x="564" y="597"/>
      <point x="564" y="561" type="curve" smooth="yes"/>
      <point x="564" y="508"/>
      <point x="496" y="437"/>
      <point x="361" y="349" type="curve"/>
      <point x="397" y="329" type="line"/>
      <point x="451" y="375"/>
      <point x="474" y="409"/>
      <point x="474" y="444" type="curve" smooth="yes"/>
      <point x="474" y="499"/>
      <point x="417" y="533"/>
      <point x="326" y="533" type="curve" smooth="yes"/>
      <point x="157" y="533"/>
      <point x="31" y="412"/>
      <point x="31" y="249" type="curve" smooth="yes"/>
      <point x="31" y="85"/>
      <point x="160" y="-14"/>
    </contour>
    <contour>
      <point x="563" y="152" type="curve" smooth="yes"/>
      <point x="602" y="152"/>
      <point x="631" y="180"/>
      <point x="631" y="218" type="curve" smooth="yes"/>
      <point x="631" y="262"/>
      <point x="594" y="302"/>
      <point x="594" y="322" type="curve" smooth="yes"/>
      <point x="594" y="338"/>
      <point x="623" y="348"/>
      <point x="670" y="348" type="curve" smooth="yes"/>
      <point x="769" y="348"/>
      <point x="835" y="308"/>
      <point x="926" y="308" type="curve" smooth="yes"/>
      <point x="1033" y="308"/>
      <point x="1113" y="363"/>
      <point x="1113" y="436" type="curve" smooth="yes"/>
      <point x="1113" y="475"/>
      <point x="1090" y="498"/>
      <point x="1051" y="498" type="curve" smooth="yes"/>
      <point x="961" y="498"/>
      <point x="990" y="376"/>
      <point x="940" y="376" type="curve" smooth="yes"/>
      <point x="904" y="376"/>
      <point x="826" y="438"/>
      <point x="724" y="438" type="curve" smooth="yes"/>
      <point x="600" y="438"/>
      <point x="484" y="344"/>
      <point x="484" y="243" type="curve" smooth="yes"/>
      <point x="484" y="191"/>
      <point x="517" y="152"/>
    </contour>
  </outline>
</glyph>
<glyph name="quotesingle" format="2">
  <advance width="262"/>
  <unicode hex="0027"/>
  <outline>
    <contour>
      <point x="104" y="428" type="curve"/>
      <point x="158" y="428" type="line"/>
      <point x="187" y="543"/>
      <point x="225" y="600"/>
      <point x="225" y="668" type="curve" smooth="yes"/>
      <point x="225" y="732"/>
      <point x="190" y="770"/>
      <point x="131" y="770" type="curve" smooth="yes"/>
      <point x="72" y="770"/>
      <point x="37" y="732"/>
      <point x="37" y="667" type="curve" smooth="yes"/>
      <point x="37" y="599"/>
      <point x="74" y="543"/>
    </contour>
  </outline>
</glyph>
<glyph name="parenleft" format="2">
  <advance width="484"/>
  <unicode hex="0028"/>
  <outline>
    <contour>
      <point x="425" y="-191" type="curve"/>
      <point x="457" y="-144" type="line"/>
      <point x="326" y="-25"/>
      <point x="263" y="118"/>
      <point x="263" y="295" type="curve" smooth="yes"/>
      <point x="263" y="476"/>
      <point x="327" y="622"/>
      <point x="457" y="735" type="curve"/>
      <point x="425" y="782" type="line"/>
      <point x="218" y="676"/>
      <point x="106" y="503"/>
      <point x="106" y="289" type="curve" smooth="yes"/>
      <point x="106" y="74"/>
      <point x="219" y="-96"/>
    </contour>
  </outline>
</glyph>
<glyph name="asterisk" format="2">
  <advance width="473"/>
  <unicode hex="002A"/>
  <outline>
    <contour>
      <point x="420" y="624" type="curve" smooth="yes"/>
      <point x="406" y="648"/>
      <point x="379" y="666"/>
      <point x="345" y="646" type="curve" smooth="yes"/>
      <point x="312" y="627"/>
      <point x="280" y="586"/>
      <point x="229" y="533" type="curve"/>
      <point x="245" y="504" type="line"/>
      <point x="320" y="525"/>
      <point x="368" y="529"/>
      <point x="401" y="548" type="curve" smooth="yes"/>
      <point x="436" y="568"/>
      <point x="434" y="599"/>
    </contour>
    <contour>
      <point x="420" y="413" type="curve" smooth="yes"/>
      <point x="434" y="437"/>
      <point x="436" y="469"/>
      <point x="402" y="489" type="curve" smooth="yes"/>
      <point x="369" y="508"/>
      <point x="317" y="515"/>
      <point x="246" y="533" type="curve"/>
      <point x="229" y="504" type="line"/>
      <point x="285" y="450"/>
      <point x="312" y="410"/>
      <point x="345" y="391" type="curve" smooth="yes"/>
      <point x="380" y="371"/>
      <point x="406" y="388"/>
    </contour>
    <contour>
      <point x="238" y="307" type="curve" smooth="yes"/>
      <point x="265" y="307"/>
      <point x="294" y="321"/>
      <point x="294" y="361" type="curve" smooth="yes"/>
      <point x="294" y="399"/>
      <point x="274" y="447"/>
      <point x="255" y="518" type="curve"/>
      <point x="221" y="518" type="line"/>
      <point x="202" y="443"/>
      <point x="181" y="399"/>
      <point x="181" y="361" type="curve" smooth="yes"/>
      <point x="181" y="321"/>
      <point x="209" y="307"/>
    </contour>
    <contour>
      <point x="55" y="412" type="curve" smooth="yes"/>
      <point x="68" y="388"/>
      <point x="95" y="370"/>
      <point x="130" y="390" type="curve" smooth="yes"/>
      <point x="163" y="409"/>
      <point x="194" y="451"/>
      <point x="246" y="503" type="curve"/>
      <point x="229" y="532" type="line"/>
      <point x="155" y="511"/>
      <point x="106" y="507"/>
      <point x="73" y="488" type="curve" smooth="yes"/>
      <point x="38" y="468"/>
      <point x="40" y="437"/>
    </contour>
    <contour>
      <point x="54" y="623" type="curve" smooth="yes"/>
      <point x="40" y="600"/>
      <point x="38" y="567"/>
      <point x="73" y="547" type="curve" smooth="yes"/>
      <point x="106" y="528"/>
      <point x="158" y="522"/>
      <point x="229" y="503" type="curve"/>
      <point x="245" y="532" type="line"/>
      <point x="190" y="586"/>
      <point x="162" y="626"/>
      <point x="129" y="645" type="curve" smooth="yes"/>
      <point x="94" y="666"/>
      <point x="68" y="648"/>
    </contour>
    <contour>
      <point x="237" y="729" type="curve" smooth="yes"/>
      <point x="209" y="729"/>
      <point x="180" y="715"/>
      <point x="180" y="675" type="curve" smooth="yes"/>
      <point x="180" y="637"/>
      <point x="200" y="589"/>
      <point x="220" y="518" type="curve"/>
      <point x="253" y="518" type="line"/>
      <point x="273" y="593"/>
      <point x="293" y="637"/>
      <point x="293" y="675" type="curve" smooth="yes"/>
      <point x="293" y="715"/>
      <point x="265" y="729"/>
    </contour>
  </outline>
</glyph>
<glyph name="plus" format="2">
  <advance width="627"/>
  <unicode hex="002B"/>
  <outline>
    <contour>
      <point x="271" y="15" type="line"/>
      <point x="357" y="15" type="line"/>
      <point x="357" y="225" type="line"/>
      <point x="564" y="225" type="line"/>
      <point x="564" y="305" type="line"/>
      <point x="357" y="305" type="line"/>
      <point x="357" y="516" type="line"/>
      <point x="271" y="516" type="line"/>
      <point x="271" y="305" type="line"/>
      <point x="63" y="305" type="line"/>
      <point x="63" y="225" type="line"/>
      <point x="271" y="225" type="line"/>
    </contour>
  </outline>
</glyph>
<glyph name="comma" format="2">
  <advance width="306"/>
  <unicode hex="002C"/>
  <outline>
    <contour>
      <point x="106" y="-185" type="line"/>
      <point x="219" y="-146"/>
      <point x="274" y="-77"/>
      <point x="274" y="25" type="curve" smooth="yes"/>
      <point x="274" y="115"/>
      <point x="231" y="168"/>
      <point x="157" y="168" type="curve" smooth="yes"/>
      <point x="91" y="168"/>
      <point x="47" y="129"/>
      <point x="47" y="70" type="curve" smooth="yes"/>
      <point x="47" y="18"/>
      <point x="80" y="-14"/>
      <point x="134" y="-14" type="curve" smooth="yes"/>
      <point x="158" y="-14"/>
      <point x="183" y="-8"/>
      <point x="192" y="-8" type="curve" smooth="yes"/>
      <point x="199" y="-8"/>
      <point x="202" y="-12"/>
      <point x="202" y="-24" type="curve" smooth="yes"/>
      <point x="202" y="-67"/>
      <point x="160" y="-106"/>
      <point x="83" y="-134" type="curve"/>
    </contour>
  </outline>
</glyph>
<glyph name="hyphen" format="2">
  <advance width="469"/>
  <unicode hex="002D"/>
  <outline>
    <contour>
      <point x="54" y="217" type="line"/>
      <point x="415" y="217" type="line"/>
      <point x="415" y="346" type="line"/>
      <point x="54" y="346" type="line"/>
    </contour>
  </outline>
</glyph>
<glyph name="period" format="2">
  <advance width="302"/>
  <unicode hex="002E"/>
  <anchor x="0" y="0" name="^entry"/>
  <anchor x="429" y="0" name="^exit"/>
  <anchor x="151" y="0" name="_Ldot"/>
  <anchor x="151" y="154" name="_ascender"/>
  <anchor x="151" y="0" name="_baseline"/>
  <anchor x="151" y="0" name="_center"/>
  <anchor x="151" y="0" name="center"/>
  <outline>
    <contour>
      <point x="151" y="-14" type="curve" smooth="yes"/>
      <point x="217" y="-14"/>
      <point x="255" y="20"/>
      <point x="255" y="77" type="curve" smooth="yes"/>
      <point x="255" y="135"/>
      <point x="217" y="168"/>
      <point x="151" y="168" type="curve" smooth="yes"/>
      <point x="85" y="168"/>
      <point x="47" y="135"/>
      <point x="47" y="77" type="curve" smooth="yes"/>
      <point x="47" y="19"/>
      <point x="85" y="-14"/>
    </contour>
  </outline>
</glyph>
<glyph name="slash" format="2">
  <advance width="415"/>
  <unicode hex="002F"/>
  <anchor x="103" y="708" name="ascender"/>
  <anchor x="312" y="0" name="baseline"/>
  <outline>
    <contour>
      <point x="30" y="-14" type="line"/>
      <point x="113" y="-14" type="line"/>
      <point x="385" y="722" type="line"/>
      <point x="302" y="722" type="line"/>
    </contour>
  </outline>
</glyph>
<glyph name="zero" format="2">
  <advance width="703"/>
  <unicode hex="0030"/>
  <anchor x="351" y="260" name="center"/>
  <outline>
    <contour>
      <point x="346" y="-14" type="curve" smooth="yes"/>
      <point x="522" y="-14"/>
      <point x="649" y="104"/>
      <point x="649" y="268" type="curve" smooth="yes"/>
      <point x="649" y="425"/>
      <point x="530" y="533"/>
      <point x="357" y="533" type="curve" smooth="yes"/>
      <point x="180" y="533"/>
      <point x="54" y="416"/>
      <point x="54" y="252" type="curve" smooth="yes"/>
      <point x="54" y="95"/>
      <point x="173" y="-14"/>
    </contour>
    <contour>
      <point x="352" y="56" type="curve" smooth="yes"/>
      <point x="284" y="56"/>
      <point x="241" y="133"/>
      <point x="241" y="255" type="curve" smooth="yes"/>
      <point x="241" y="382"/>
      <point x="284" y="463"/>
      <point x="351" y="463" type="curve" smooth="yes"/>
      <point x="419" y="463"/>
      <point x="462" y="386"/>
      <point x="462" y="264" type="curve" smooth="yes"/>
      <point x="462" y="137"/>
      <point x="419" y="56"/>
    </contour>
  </outline>
</glyph>
<glyph name="one" format="2">
  <advance width="422"/>
  <unicode hex="0031"/>
  <outline>
    <contour>
      <point x="46" y="0" type="line"/>
      <point x="80" y="1"/>
      <point x="157" y="4"/>
      <point x="223" y="4" type="curve" smooth="yes"/>
      <point x="288" y="4"/>
      <point x="364" y="1"/>
      <point x="398" y="0" type="curve"/>
      <point x="398" y="71" type="line"/>
      <point x="334" y="71"/>
      <point x="312" y="89"/>
      <point x="312" y="143" type="curve" smooth="yes"/>
      <point x="312" y="540" type="line"/>
      <point x="249" y="504"/>
      <point x="172" y="491"/>
      <point x="46" y="489" type="curve"/>
      <point x="46" y="418" type="line"/>
      <point x="112" y="418"/>
      <point x="132" y="406"/>
      <point x="132" y="309" type="curve" smooth="yes"/>
      <point x="132" y="143" type="line" smooth="yes"/>
      <point x="132" y="89"/>
      <point x="110" y="71"/>
      <point x="46" y="71" type="curve"/>
    </contour>
  </outline>
</glyph>
<glyph name="two" format="2">
  <advance width="529"/>
  <unicode hex="0032"/>
  <outline>
    <contour>
      <point x="499" y="-5" type="curve"/>
      <point x="496" y="38"/>
      <point x="495" y="87"/>
      <point x="495" y="188" type="curve"/>
      <point x="422" y="188" type="line"/>
      <point x="417" y="157"/>
      <point x="410" y="147"/>
      <point x="355" y="147" type="curve" smooth="yes"/>
      <point x="214" y="147" type="line"/>
      <point x="214" y="157" type="line"/>
      <point x="324" y="209"/>
      <point x="459" y="282"/>
      <point x="459" y="407" type="curve" smooth="yes"/>
      <point x="459" y="487"/>
      <point x="387" y="533"/>
      <point x="260" y="533" type="curve" smooth="yes"/>
      <point x="118" y="533"/>
      <point x="22" y="472"/>
      <point x="22" y="378" type="curve" smooth="yes"/>
      <point x="22" y="328"/>
      <point x="52" y="292"/>
      <point x="103" y="292" type="curve" smooth="yes"/>
      <point x="144" y="292"/>
      <point x="169" y="312"/>
      <point x="169" y="344" type="curve" smooth="yes"/>
      <point x="169" y="377"/>
      <point x="140" y="394"/>
      <point x="140" y="423" type="curve" smooth="yes"/>
      <point x="140" y="445"/>
      <point x="161" y="459"/>
      <point x="194" y="459" type="curve" smooth="yes"/>
      <point x="247" y="459"/>
      <point x="272" y="429"/>
      <point x="272" y="381" type="curve" smooth="yes"/>
      <point x="272" y="257"/>
      <point x="96" y="136"/>
      <point x="21" y="71" type="curve"/>
      <point x="21" y="0" type="line"/>
      <point x="410" y="0" type="line" smooth="yes"/>
      <point x="446" y="0"/>
      <point x="488" y="-1"/>
    </contour>
  </outline>
</glyph>
<glyph name="three" format="2">
  <advance width="567"/>
  <unicode hex="0033"/>
  <outline>
    <contour>
      <point x="269" y="-150" type="curve" smooth="yes"/>
      <point x="428" y="-150"/>
      <point x="535" y="-77"/>
      <point x="535" y="32" type="curve" smooth="yes"/>
      <point x="535" y="112"/>
      <point x="477" y="174"/>
      <point x="375" y="205" type="curve"/>
      <point x="467" y="239"/>
      <point x="516" y="296"/>
      <point x="516" y="368" type="curve" smooth="yes"/>
      <point x="516" y="466"/>
      <point x="421" y="533"/>
      <point x="283" y="533" type="curve" smooth="yes"/>
      <point x="148" y="533"/>
      <point x="53" y="468"/>
      <point x="53" y="376" type="curve" smooth="yes"/>
      <point x="53" y="324"/>
      <point x="83" y="292"/>
      <point x="134" y="292" type="curve" smooth="yes"/>
      <point x="174" y="292"/>
      <point x="200" y="311"/>
      <point x="200" y="340" type="curve" smooth="yes"/>
      <point x="200" y="371"/>
      <point x="171" y="395"/>
      <point x="171" y="423" type="curve" smooth="yes"/>
      <point x="171" y="446"/>
      <point x="192" y="459"/>
      <point x="231" y="459" type="curve" smooth="yes"/>
      <point x="302" y="459"/>
      <point x="346" y="413"/>
      <point x="346" y="339" type="curve" smooth="yes"/>
      <point x="346" y="295"/>
      <point x="327" y="251"/>
      <point x="299" y="229" type="curve"/>
      <point x="281" y="233"/>
      <point x="265" y="235"/>
      <point x="252" y="235" type="curve" smooth="yes"/>
      <point x="212" y="235"/>
      <point x="188" y="220"/>
      <point x="188" y="194" type="curve" smooth="yes"/>
      <point x="188" y="169"/>
      <point x="209" y="153"/>
      <point x="243" y="153" type="curve" smooth="yes"/>
      <point x="259" y="153"/>
      <point x="277" y="157"/>
      <point x="301" y="166" type="curve"/>
      <point x="331" y="143"/>
      <point x="348" y="102"/>
      <point x="348" y="53" type="curve" smooth="yes"/>
      <point x="348" y="-27"/>
      <point x="298" y="-77"/>
      <point x="218" y="-77" type="curve" smooth="yes"/>
      <point x="179" y="-77"/>
      <point x="160" y="-65"/>
      <point x="160" y="-40" type="curve" smooth="yes"/>
      <point x="160" y="-7"/>
      <point x="195" y="18"/>
      <point x="195" y="55" type="curve" smooth="yes"/>
      <point x="195" y="88"/>
      <point x="166" y="110"/>
      <point x="122" y="110" type="curve" smooth="yes"/>
      <point x="64" y="110"/>
      <point x="28" y="73"/>
      <point x="28" y="12" type="curve" smooth="yes"/>
      <point x="28" y="-87"/>
      <point x="122" y="-150"/>
    </contour>
  </outline>
</glyph>
<glyph name="four" format="2">
  <advance width="570"/>
  <unicode hex="0034"/>
  <outline>
    <contour>
      <point x="6" y="24" type="line"/>
      <point x="543" y="24" type="line"/>
      <point x="543" y="161" type="line"/>
      <point x="69" y="161" type="line"/>
      <point x="93" y="137" type="line"/>
      <point x="316" y="425" type="line"/>
      <point x="311" y="533" type="line"/>
      <point x="6" y="140" type="line"/>
    </contour>
    <contour>
      <point x="287" y="-141" type="line"/>
      <point x="427" y="-141" type="line"/>
      <point x="427" y="533" type="line"/>
      <point x="311" y="533" type="line"/>
      <point x="287" y="428" type="line"/>
    </contour>
  </outline>
</glyph>
<glyph name="five" format="2">
  <advance width="524"/>
  <unicode hex="0035"/>
  <outline>
    <contour>
      <point x="241" y="-150" type="curve" smooth="yes"/>
      <point x="397" y="-150"/>
      <point x="493" y="-66"/>
      <point x="493" y="69" type="curve" smooth="yes"/>
      <point x="493" y="196"/>
      <point x="408" y="271"/>
      <point x="264" y="271" type="curve" smooth="yes"/>
      <point x="231" y="271"/>
      <point x="194" y="267"/>
      <point x="167" y="259" type="curve"/>
      <point x="182" y="368" type="line"/>
      <point x="208" y="365"/>
      <point x="232" y="363"/>
      <point x="258" y="363" type="curve" smooth="yes"/>
      <point x="398" y="363"/>
      <point x="473" y="421"/>
      <point x="481" y="536" type="curve"/>
      <point x="435" y="554" type="line"/>
      <point x="405" y="528"/>
      <point x="347" y="513"/>
      <point x="279" y="513" type="curve" smooth="yes"/>
      <point x="224" y="513"/>
      <point x="167" y="519"/>
      <point x="134" y="529" type="curve"/>
      <point x="90" y="210" type="line"/>
      <point x="108" y="172" type="line"/>
      <point x="124" y="184"/>
      <point x="147" y="190"/>
      <point x="196" y="190" type="curve" smooth="yes"/>
      <point x="267" y="190"/>
      <point x="308" y="143"/>
      <point x="308" y="62" type="curve" smooth="yes"/>
      <point x="308" y="-22"/>
      <point x="262" y="-80"/>
      <point x="197" y="-80" type="curve" smooth="yes"/>
      <point x="172" y="-80"/>
      <point x="160" y="-72"/>
      <point x="160" y="-55" type="curve" smooth="yes"/>
      <point x="160" y="-27"/>
      <point x="190" y="6"/>
      <point x="190" y="47" type="curve" smooth="yes"/>
      <point x="190" y="85"/>
      <point x="164" y="109"/>
      <point x="122" y="109" type="curve" smooth="yes"/>
      <point x="65" y="109"/>
      <point x="28" y="67"/>
      <point x="28" y="4" type="curve" smooth="yes"/>
      <point x="28" y="-91"/>
      <point x="110" y="-150"/>
    </contour>
    <contour>
      <point x="107" y="150" type="curve" smooth="yes"/>
      <point x="145" y="150"/>
      <point x="169" y="178"/>
      <point x="171" y="224" type="curve"/>
      <point x="164" y="260" type="line"/>
      <point x="104" y="249"/>
      <point x="70" y="222"/>
      <point x="70" y="185" type="curve" smooth="yes"/>
      <point x="70" y="163"/>
      <point x="84" y="150"/>
    </contour>
  </outline>
</glyph>
<glyph name="six" format="2">
  <advance width="632"/>
  <unicode hex="0036"/>
  <outline>
    <contour>
      <point x="320" y="-14" type="curve" smooth="yes"/>
      <point x="478" y="-14"/>
      <point x="578" y="79"/>
      <point x="578" y="224" type="curve" smooth="yes"/>
      <point x="578" y="352"/>
      <point x="500" y="438"/>
      <point x="382" y="438" type="curve" smooth="yes"/>
      <point x="297" y="438"/>
      <point x="238" y="391"/>
      <point x="220" y="311" type="curve"/>
      <point x="228" y="249" type="line"/>
      <point x="245" y="311"/>
      <point x="280" y="348"/>
      <point x="321" y="348" type="curve" smooth="yes"/>
      <point x="368" y="348"/>
      <point x="391" y="303"/>
      <point x="391" y="211" type="curve" smooth="yes"/>
      <point x="391" y="114"/>
      <point x="366" y="56"/>
      <point x="324" y="56" type="curve" smooth="yes"/>
      <point x="271" y="56"/>
      <point x="241" y="153"/>
      <point x="241" y="326" type="curve" smooth="yes"/>
      <point x="241" y="546"/>
      <point x="289" y="653"/>
      <point x="389" y="653" type="curve" smooth="yes"/>
      <point x="420" y="653"/>
      <point x="435" y="643"/>
      <point x="435" y="624" type="curve" smooth="yes"/>
      <point x="435" y="593"/>
      <point x="396" y="568"/>
      <point x="396" y="526" type="curve" smooth="yes"/>
      <point x="396" y="492"/>
      <point x="422" y="471"/>
      <point x="464" y="471" type="curve" smooth="yes"/>
      <point x="518" y="471"/>
      <point x="553" y="508"/>
      <point x="553" y="567" type="curve" smooth="yes"/>
      <point x="553" y="658"/>
      <point x="472" y="722"/>
      <point x="358" y="722" type="curve" smooth="yes"/>
      <point x="176" y="722"/>
      <point x="54" y="558"/>
      <point x="54" y="313" type="curve" smooth="yes"/>
      <point x="54" y="99"/>
      <point x="146" y="-14"/>
    </contour>
  </outline>
</glyph>
<glyph name="eight" format="2">
  <advance width="581"/>
  <unicode hex="0038"/>
  <outline>
    <contour>
      <point x="275" y="-14" type="curve" smooth="yes"/>
      <point x="441" y="-14"/>
      <point x="549" y="70"/>
      <point x="549" y="200" type="curve" smooth="yes"/>
      <point x="549" y="426"/>
      <point x="228" y="418"/>
      <point x="228" y="578" type="curve" smooth="yes"/>
      <point x="228" y="624"/>
      <point x="255" y="652"/>
      <point x="301" y="652" type="curve" smooth="yes"/>
      <point x="356" y="652"/>
      <point x="386" y="616"/>
      <point x="386" y="550" type="curve" smooth="yes"/>
      <point x="386" y="501"/>
      <point x="368" y="456"/>
      <point x="336" y="423" type="curve"/>
      <point x="374" y="389" type="line"/>
      <point x="464" y="439"/>
      <point x="507" y="496"/>
      <point x="507" y="565" type="curve" smooth="yes"/>
      <point x="507" y="660"/>
      <point x="425" y="722"/>
      <point x="300" y="722" type="curve" smooth="yes"/>
      <point x="157" y="722"/>
      <point x="60" y="642"/>
      <point x="60" y="525" type="curve" smooth="yes"/>
      <point x="60" y="312"/>
      <point x="379" y="314"/>
      <point x="379" y="142" type="curve" smooth="yes"/>
      <point x="379" y="88"/>
      <point x="347" y="56"/>
      <point x="291" y="56" type="curve" smooth="yes"/>
      <point x="216" y="56"/>
      <point x="169" y="107"/>
      <point x="169" y="190" type="curve" smooth="yes"/>
      <point x="169" y="245"/>
      <point x="190" y="296"/>
      <point x="226" y="330" type="curve"/>
      <point x="188" y="364" type="line"/>
      <point x="84" y="314"/>
      <point x="32" y="248"/>
      <point x="32" y="165" type="curve" smooth="yes"/>
      <point x="32" y="54"/>
      <point x="125" y="-14"/>
    </contour>
  </outline>
</glyph>
<glyph name="nine" format="2">
  <advance width="632"/>
  <unicode hex="0039"/>
  <outline>
    <contour>
      <point x="278" y="-150" type="curve" smooth="yes"/>
      <point x="460" y="-150"/>
      <point x="578" y="-5"/>
      <point x="578" y="220" type="curve" smooth="yes"/>
      <point x="578" y="422"/>
      <point x="482" y="533"/>
      <point x="306" y="533" type="curve" smooth="yes"/>
      <point x="154" y="533"/>
      <point x="54" y="446"/>
      <point x="54" y="315" type="curve" smooth="yes"/>
      <point x="54" y="199"/>
      <point x="132" y="121"/>
      <point x="249" y="121" type="curve" smooth="yes"/>
      <point x="334" y="121"/>
      <point x="394" y="160"/>
      <point x="412" y="228" type="curve"/>
      <point x="404" y="290" type="line"/>
      <point x="387" y="241"/>
      <point x="352" y="211"/>
      <point x="310" y="211" type="curve" smooth="yes"/>
      <point x="264" y="211"/>
      <point x="241" y="249"/>
      <point x="241" y="327" type="curve" smooth="yes"/>
      <point x="241" y="409"/>
      <point x="267" y="463"/>
      <point x="307" y="463" type="curve" smooth="yes"/>
      <point x="360" y="463"/>
      <point x="391" y="367"/>
      <point x="391" y="205" type="curve" smooth="yes"/>
      <point x="391" y="9"/>
      <point x="345" y="-81"/>
      <point x="245" y="-81" type="curve" smooth="yes"/>
      <point x="213" y="-81"/>
      <point x="197" y="-72"/>
      <point x="197" y="-53" type="curve" smooth="yes"/>
      <point x="197" y="-23"/>
      <point x="236" y="-3"/>
      <point x="236" y="37" type="curve" smooth="yes"/>
      <point x="236" y="70"/>
      <point x="210" y="91"/>
      <point x="169" y="91" type="curve" smooth="yes"/>
      <point x="115" y="91"/>
      <point x="79" y="53"/>
      <point x="79" y="-3" type="curve" smooth="yes"/>
      <point x="79" y="-89"/>
      <point x="161" y="-150"/>
    </contour>
  </outline>
</glyph>
<glyph name="equal" format="2">
  <advance width="627"/>
  <unicode hex="003D"/>
  <outline>
    <contour>
      <point x="63" y="296" type="line"/>
      <point x="564" y="296" type="line"/>
      <point x="564" y="376" type="line"/>
      <point x="63" y="376" type="line"/>
    </contour>
    <contour>
      <point x="63" y="156" type="line"/>
      <point x="564" y="156" type="line"/>
      <point x="564" y="236" type="line"/>
      <point x="63" y="236" type="line"/>
    </contour>
  </outline>
</glyph>
<glyph name="at" format="2">
  <advance width="1010"/>
  <unicode hex="0040"/>
  <outline>
    <contour>
      <point x="420" y="-161" type="curve" smooth="yes"/>
      <point x="508" y="-161"/>
      <point x="590" y="-146"/>
      <point x="653" y="-118" type="curve"/>
      <point x="636" y="-67" type="line"/>
      <point x="573" y="-92"/>
      <point x="508" y="-103"/>
      <point x="431" y="-103" type="curve" smooth="yes"/>
      <point x="224" y="-103"/>
      <point x="121" y="-15"/>
      <point x="121" y="162" type="curve" smooth="yes"/>
      <point x="121" y="416"/>
      <point x="331" y="610"/>
      <point x="606" y="610" type="curve" smooth="yes"/>
      <point x="789" y="610"/>
      <point x="898" y="524"/>
      <point x="898" y="380" type="curve" smooth="yes"/>
      <point x="898" y="241"/>
      <point x="798" y="101"/>
      <point x="698" y="101" type="curve" smooth="yes"/>
      <point x="665" y="101"/>
      <point x="661" y="117"/>
      <point x="669" y="147" type="curve" smooth="yes"/>
      <point x="713" y="305" type="line" smooth="yes"/>
      <point x="732" y="373"/>
      <point x="738" y="399"/>
      <point x="770" y="431" type="curve"/>
      <point x="717" y="478" type="line"/>
      <point x="671" y="436"/>
      <point x="632" y="410"/>
      <point x="588" y="386" type="curve"/>
      <point x="527" y="166" type="line" smooth="yes"/>
      <point x="500" y="68"/>
      <point x="558" y="26"/>
      <point x="628" y="26" type="curve" smooth="yes"/>
      <point x="818" y="26"/>
      <point x="968" y="180"/>
      <point x="968" y="376" type="curve" smooth="yes"/>
      <point x="968" y="559"/>
      <point x="835" y="668"/>
      <point x="611" y="668" type="curve" smooth="yes"/>
      <point x="293" y="668"/>
      <point x="51" y="448"/>
      <point x="51" y="159" type="curve" smooth="yes"/>
      <point x="51" y="-50"/>
      <point x="179" y="-161"/>
    </contour>
    <contour>
      <point x="395" y="26" type="curve" smooth="yes"/>
      <point x="458" y="26"/>
      <point x="506" y="60"/>
      <point x="534" y="127" type="curve"/>
      <point x="538" y="182" type="line"/>
      <point x="517" y="129"/>
      <point x="494" y="106"/>
      <point x="462" y="106" type="curve" smooth="yes"/>
      <point x="427" y="106"/>
      <point x="410" y="134"/>
      <point x="410" y="190" type="curve" smooth="yes"/>
      <point x="410" y="302"/>
      <point x="471" y="408"/>
      <point x="535" y="408" type="curve" smooth="yes"/>
      <point x="562" y="408"/>
      <point x="576" y="391"/>
      <point x="589" y="343" type="curve"/>
      <point x="694" y="394" type="line"/>
      <point x="635" y="454"/>
      <point x="588" y="478"/>
      <point x="527" y="478" type="curve" smooth="yes"/>
      <point x="385" y="478"/>
      <point x="266" y="348"/>
      <point x="263" y="190" type="curve" smooth="yes"/>
      <point x="261" y="87"/>
      <point x="310" y="26"/>
    </contour>
  </outline>
</glyph>
<glyph name="A" format="2">
  <advance width="831"/>
  <unicode hex="0041"/>
  <anchor x="417" y="0" name="bottom"/>
  <anchor x="401" y="354" name="center"/>
  <anchor x="633" y="0" name="ogonek"/>
  <anchor x="401" y="708" name="top"/>
  <anchor x="401" y="688" name="top_low_1"/>
  <anchor x="401" y="668" name="top_low_2"/>
  <anchor x="401" y="648" name="top_low_3"/>
  <outline>
    <contour>
      <point x="225" y="206" type="curve"/>
      <point x="354" y="508" type="line"/>
      <point x="302" y="515" type="line"/>
      <point x="479" y="156" type="line"/>
      <point x="510" y="92"/>
      <point x="498" y="78"/>
      <point x="444" y="74" type="curve"/>
      <point x="411" y="71" type="line"/>
      <point x="411" y="1" type="line"/>
      <point x="480" y="2"/>
      <point x="589" y="3"/>
      <point x="650" y="3" type="curve"/>
      <point x="667" y="3" type="line"/>
      <point x="681" y="3" type="line"/>
      <point x="720" y="3"/>
      <point x="789" y="2"/>
      <point x="835" y="0" type="curve"/>
      <point x="834" y="70" type="line"/>
      <point x="798" y="73" type="line"/>
      <point x="753" y="77"/>
      <point x="737" y="87"/>
      <point x="712" y="136" type="curve"/>
      <point x="431" y="708" type="line"/>
      <point x="365" y="708" type="line"/>
      <point x="144" y="196" type="line"/>
      <point x="105" y="103"/>
      <point x="72" y="80"/>
      <point x="-8" y="72" type="curve"/>
      <point x="-27" y="70" type="line"/>
      <point x="-27" y="0" type="line"/>
      <point x="20" y="2"/>
      <point x="74" y="3"/>
      <point x="128" y="3" type="curve"/>
      <point x="181" y="3"/>
      <point x="243" y="2"/>
      <point x="306" y="0" type="curve"/>
      <point x="306" y="70" type="line"/>
      <point x="279" y="73" type="line"/>
      <point x="204" y="81"/>
      <point x="190" y="121"/>
    </contour>
    <contour>
      <point x="176" y="193" type="line"/>
      <point x="509" y="193" type="line"/>
      <point x="474" y="263" type="line"/>
      <point x="206" y="263" type="line"/>
    </contour>
  </outline>
</glyph>
<glyph name="B" format="2">
  <advance width="736"/>
  <unicode hex="0042"/>
  <anchor x="376" y="0" name="bottom"/>
  <anchor x="234" y="367" name="center"/>
  <anchor x="403" y="0" name="currency"/>
  <anchor x="384" y="708" name="top"/>
  <anchor x="384" y="688" name="top_low_1"/>
  <anchor x="384" y="668" name="top_low_2"/>
  <anchor x="384" y="648" name="top_low_3"/>
  <outline>
    <contour>
      <point x="356" y="0" type="curve"/>
      <point x="416" y="0" type="line" smooth="yes"/>
      <point x="606" y="0"/>
      <point x="716" y="72"/>
      <point x="716" y="196" type="curve" smooth="yes"/>
      <point x="716" y="300"/>
      <point x="637" y="362"/>
      <point x="493" y="371" type="curve"/>
      <point x="493" y="373" type="line"/>
      <point x="613" y="404"/>
      <point x="664" y="454"/>
      <point x="664" y="541" type="curve" smooth="yes"/>
      <point x="664" y="654"/>
      <point x="577" y="708"/>
      <point x="394" y="708" type="curve" smooth="yes"/>
      <point x="356" y="708" type="line"/>
      <point x="322" y="708"/>
      <point x="268" y="705"/>
      <point x="238" y="705" type="curve"/>
      <point x="185" y="705"/>
      <point x="90" y="706"/>
      <point x="30" y="708" type="curve"/>
      <point x="30" y="638" type="line"/>
      <point x="63" y="635" type="line"/>
      <point x="119" y="630"/>
      <point x="131" y="616"/>
      <point x="131" y="552" type="curve"/>
      <point x="131" y="156" type="line"/>
      <point x="131" y="92"/>
      <point x="119" y="78"/>
      <point x="63" y="73" type="curve"/>
      <point x="30" y="70" type="line"/>
      <point x="30" y="0" type="line"/>
      <point x="90" y="2"/>
      <point x="185" y="3"/>
      <point x="238" y="3" type="curve"/>
      <point x="268" y="3"/>
      <point x="322" y="0"/>
    </contour>
    <contour>
      <point x="401" y="73" type="curve" smooth="yes"/>
      <point x="350" y="73"/>
      <point x="334" y="93"/>
      <point x="334" y="156" type="curve" smooth="yes"/>
      <point x="334" y="638" type="line"/>
      <point x="369" y="638" type="line" smooth="yes"/>
      <point x="444" y="638"/>
      <point x="478" y="597"/>
      <point x="478" y="529" type="curve" smooth="yes"/>
      <point x="478" y="450"/>
      <point x="433" y="401"/>
      <point x="361" y="401" type="curve" smooth="yes"/>
      <point x="275" y="401" type="line"/>
      <point x="275" y="334" type="line"/>
      <point x="358" y="334" type="line" smooth="yes"/>
      <point x="453" y="334"/>
      <point x="506" y="283"/>
      <point x="506" y="189" type="curve" smooth="yes"/>
      <point x="506" y="113"/>
      <point x="469" y="73"/>
    </contour>
  </outline>
</glyph>
<glyph name="C" format="2">
  <advance width="718"/>
  <unicode hex="0043"/>
  <anchor x="418" y="0" name="bottom"/>
  <anchor x="384" y="354" name="center"/>
  <anchor x="404" y="0" name="currency"/>
  <anchor x="246" y="354" name="middlestroke"/>
  <anchor x="350" y="708" name="top"/>
  <anchor x="350" y="688" name="top_low_1"/>
  <anchor x="350" y="668" name="top_low_2"/>
  <anchor x="350" y="648" name="top_low_3"/>
  <outline>
    <contour>
      <point x="362" y="-14" type="curve" smooth="yes"/>
      <point x="504" y="-14"/>
      <point x="534" y="59"/>
      <point x="568" y="59" type="curve" smooth="yes"/>
      <point x="583" y="59"/>
      <point x="590" y="43"/>
      <point x="594" y="-4" type="curve"/>
      <point x="667" y="-4" type="line"/>
      <point x="661" y="96"/>
      <point x="663" y="161"/>
      <point x="663" y="280" type="curve"/>
      <point x="590" y="280" type="line"/>
      <point x="574" y="147"/>
      <point x="511" y="71"/>
      <point x="418" y="71" type="curve" smooth="yes"/>
      <point x="309" y="71"/>
      <point x="247" y="174"/>
      <point x="247" y="355" type="curve" smooth="yes"/>
      <point x="247" y="534"/>
      <point x="308" y="633"/>
      <point x="418" y="633" type="curve" smooth="yes"/>
      <point x="510" y="633"/>
      <point x="573" y="558"/>
      <point x="590" y="428" type="curve"/>
      <point x="663" y="428" type="line"/>
      <point x="663" y="547"/>
      <point x="661" y="610"/>
      <point x="667" y="712" type="curve"/>
      <point x="594" y="712" type="line"/>
      <point x="590" y="667"/>
      <point x="582" y="648"/>
      <point x="568" y="648" type="curve" smooth="yes"/>
      <point x="542" y="648"/>
      <point x="498" y="722"/>
      <point x="361" y="722" type="curve" smooth="yes"/>
      <point x="166" y="722"/>
      <point x="37" y="574"/>
      <point x="37" y="350" type="curve" smooth="yes"/>
      <point x="37" y="128"/>
      <point x="164" y="-14"/>
    </contour>
  </outline>
</glyph>
<glyph name="D" format="2">
  <advance width="843"/>
  <unicode hex="0044"/>
  <anchor x="401" y="0" name="bottom"/>
  <anchor x="236" y="356" name="center"/>
  <anchor x="433" y="708" name="top"/>
  <anchor x="433" y="688" name="top_low_1"/>
  <anchor x="433" y="668" name="top_low_2"/>
  <anchor x="433" y="648" name="top_low_3"/>
  <outline>
    <contour>
      <point x="356" y="0" type="curve"/>
      <point x="384" y="0" type="line" smooth="yes"/>
      <point x="648" y="0"/>
      <point x="806" y="139"/>
      <point x="806" y="370" type="curve" smooth="yes"/>
      <point x="806" y="591"/>
      <point x="662" y="708"/>
      <point x="388" y="708" type="curve" smooth="yes"/>
      <point x="356" y="708" type="line"/>
      <point x="322" y="708"/>
      <point x="268" y="705"/>
      <point x="238" y="705" type="curve"/>
      <point x="185" y="705"/>
      <point x="90" y="706"/>
      <point x="30" y="708" type="curve"/>
      <point x="30" y="638" type="line"/>
      <point x="63" y="635" type="line"/>
      <point x="119" y="630"/>
      <point x="131" y="616"/>
      <point x="131" y="552" type="curve"/>
      <point x="131" y="156" type="line"/>
      <point x="131" y="92"/>
      <point x="119" y="78"/>
      <point x="63" y="73" type="curve"/>
      <point x="30" y="70" type="line"/>
      <point x="30" y="0" type="line"/>
      <point x="90" y="2"/>
      <point x="185" y="3"/>
      <point x="238" y="3" type="curve"/>
      <point x="268" y="3"/>
      <point x="322" y="0"/>
    </contour>
    <contour>
      <point x="403" y="68" type="curve" smooth="yes"/>
      <point x="348" y="68"/>
      <point x="334" y="85"/>
      <point x="334" y="154" type="curve" smooth="yes"/>
      <point x="334" y="640" type="line"/>
      <point x="404" y="640" type="line" smooth="yes"/>
      <point x="538" y="640"/>
      <point x="596" y="554"/>
      <point x="596" y="356" type="curve" smooth="yes"/>
      <point x="596" y="156"/>
      <point x="537" y="68"/>
    </contour>
  </outline>
</glyph>
<glyph name="E" format="2">
  <advance width="701"/>
  <unicode hex="0045"/>
  <anchor x="356" y="0" name="bottom"/>
  <anchor x="331" y="354" name="center"/>
  <anchor x="589" y="0" name="ogonek"/>
  <anchor x="331" y="708" name="top"/>
  <anchor x="331" y="688" name="top_low_1"/>
  <anchor x="331" y="668" name="top_low_2"/>
  <anchor x="331" y="648" name="top_low_3"/>
  <outline>
    <contour>
      <point x="216" y="3" type="curve"/>
      <point x="233" y="3" type="line"/>
      <point x="439" y="3" type="line"/>
      <point x="537" y="3"/>
      <point x="599" y="2"/>
      <point x="643" y="0" type="curve"/>
      <point x="642" y="87"/>
      <point x="646" y="181"/>
      <point x="654" y="280" type="curve"/>
      <point x="581" y="280" type="line"/>
      <point x="545" y="150"/>
      <point x="484" y="73"/>
      <point x="427" y="73" type="curve"/>
      <point x="399" y="73" type="line"/>
      <point x="349" y="73"/>
      <point x="333" y="90"/>
      <point x="333" y="144" type="curve"/>
      <point x="333" y="635" type="line"/>
      <point x="372" y="635" type="line"/>
      <point x="460" y="635"/>
      <point x="502" y="606"/>
      <point x="530" y="508" type="curve"/>
      <point x="603" y="508" type="line"/>
      <point x="599" y="579"/>
      <point x="597" y="646"/>
      <point x="598" y="708" type="curve"/>
      <point x="549" y="706"/>
      <point x="481" y="705"/>
      <point x="374" y="705" type="curve"/>
      <point x="233" y="705" type="line"/>
      <point x="216" y="705" type="line"/>
      <point x="169" y="705"/>
      <point x="84" y="706"/>
      <point x="30" y="708" type="curve"/>
      <point x="30" y="638" type="line"/>
      <point x="62" y="634" type="line"/>
      <point x="118" y="627"/>
      <point x="130" y="616"/>
      <point x="130" y="552" type="curve"/>
      <point x="130" y="156" type="line"/>
      <point x="130" y="92"/>
      <point x="118" y="81"/>
      <point x="62" y="74" type="curve"/>
      <point x="30" y="70" type="line"/>
      <point x="30" y="0" type="line"/>
      <point x="84" y="2"/>
      <point x="169" y="3"/>
    </contour>
    <contour>
      <point x="275" y="321" type="line"/>
      <point x="445" y="321" type="line"/>
      <point x="445" y="391" type="line"/>
      <point x="275" y="391" type="line"/>
    </contour>
    <contour>
      <point x="431" y="214" type="curve"/>
      <point x="504" y="214" type="line"/>
      <point x="500" y="266"/>
      <point x="499" y="303"/>
      <point x="499" y="356" type="curve" smooth="yes"/>
      <point x="499" y="409"/>
      <point x="500" y="446"/>
      <point x="504" y="498" type="curve"/>
      <point x="431" y="498" type="line"/>
      <point x="422" y="426"/>
      <point x="396" y="391"/>
      <point x="350" y="391" type="curve"/>
      <point x="350" y="321" type="line"/>
      <point x="396" y="321"/>
      <point x="422" y="286"/>
    </contour>
  </outline>
</glyph>
<glyph name="G" format="2">
  <advance width="757"/>
  <unicode hex="0047"/>
  <anchor x="420" y="0" name="bottom"/>
  <anchor x="374" y="708" name="top"/>
  <anchor x="374" y="688" name="top_low_1"/>
  <anchor x="374" y="668" name="top_low_2"/>
  <anchor x="374" y="648" name="top_low_3"/>
  <outline>
    <contour>
      <point x="370" y="-14" type="curve" smooth="yes"/>
      <point x="516" y="-14"/>
      <point x="544" y="57"/>
      <point x="591" y="57" type="curve" smooth="yes"/>
      <point x="614" y="57"/>
      <point x="624" y="41"/>
      <point x="628" y="0" type="curve"/>
      <point x="701" y="0" type="line"/>
      <point x="701" y="168" type="line" smooth="yes"/>
      <point x="701" y="239"/>
      <point x="707" y="251"/>
      <point x="742" y="254" type="curve"/>
      <point x="742" y="324" type="line"/>
      <point x="711" y="322"/>
      <point x="657" y="321"/>
      <point x="591" y="321" type="curve" smooth="yes"/>
      <point x="519" y="321"/>
      <point x="457" y="322"/>
      <point x="427" y="324" type="curve"/>
      <point x="427" y="254" type="line"/>
      <point x="487" y="252"/>
      <point x="498" y="238"/>
      <point x="498" y="168" type="curve" smooth="yes"/>
      <point x="498" y="128" type="line" smooth="yes"/>
      <point x="498" y="80"/>
      <point x="466" y="59"/>
      <point x="415" y="59" type="curve" smooth="yes"/>
      <point x="308" y="59"/>
      <point x="247" y="159"/>
      <point x="247" y="335" type="curve" smooth="yes"/>
      <point x="247" y="524"/>
      <point x="315" y="633"/>
      <point x="433" y="633" type="curve" smooth="yes"/>
      <point x="521" y="633"/>
      <point x="579" y="576"/>
      <point x="610" y="458" type="curve"/>
      <point x="683" y="458" type="line"/>
      <point x="683" y="597"/>
      <point x="684" y="660"/>
      <point x="687" y="708" type="curve"/>
      <point x="614" y="708" type="line"/>
      <point x="610" y="667"/>
      <point x="602" y="648"/>
      <point x="588" y="648" type="curve" smooth="yes"/>
      <point x="561" y="648"/>
      <point x="521" y="722"/>
      <point x="378" y="722" type="curve" smooth="yes"/>
      <point x="174" y="722"/>
      <point x="37" y="571"/>
      <point x="37" y="345" type="curve" smooth="yes"/>
      <point x="37" y="125"/>
      <point x="166" y="-14"/>
    </contour>
  </outline>
</glyph>
<glyph name="I" format="2">
  <advance width="463"/>
  <unicode hex="0049"/>
  <anchor x="29" y="0" name="#entry"/>
  <anchor x="434" y="0" name="^exit"/>
  <anchor x="232" y="0" name="bottom"/>
  <anchor x="232" y="354" name="center"/>
  <anchor x="410" y="0" name="ogonek"/>
  <anchor x="231" y="708" name="top"/>
  <anchor x="231" y="688" name="top_low_1"/>
  <anchor x="231" y="668" name="top_low_2"/>
  <anchor x="231" y="648" name="top_low_3"/>
  <outline>
    <contour>
      <point x="216" y="3" type="curve"/>
      <point x="232" y="3" type="line"/>
      <point x="247" y="3" type="line"/>
      <point x="294" y="3"/>
      <point x="379" y="2"/>
      <point x="433" y="0" type="curve"/>
      <point x="433" y="70" type="line"/>
      <point x="401" y="74" type="line"/>
      <point x="345" y="81"/>
      <point x="333" y="92"/>
      <point x="333" y="156" type="curve"/>
      <point x="333" y="552" type="line"/>
      <point x="333" y="616"/>
      <point x="345" y="627"/>
      <point x="401" y="634" type="curve"/>
      <point x="433" y="637" type="line"/>
      <point x="433" y="707" type="line"/>
      <point x="379" y="706"/>
      <point x="294" y="705"/>
      <point x="247" y="705" type="curve"/>
      <point x="232" y="705" type="line"/>
      <point x="216" y="705" type="line"/>
      <point x="169" y="705"/>
      <point x="84" y="706"/>
      <point x="30" y="707" type="curve"/>
      <point x="30" y="637" type="line"/>
      <point x="62" y="634" type="line"/>
      <point x="118" y="627"/>
      <point x="130" y="616"/>
      <point x="130" y="552" type="curve"/>
      <point x="130" y="156" type="line"/>
      <point x="130" y="92"/>
      <point x="118" y="81"/>
      <point x="62" y="74" type="curve"/>
      <point x="30" y="70" type="line"/>
      <point x="30" y="0" type="line"/>
      <point x="84" y="2"/>
      <point x="169" y="3"/>
    </contour>
  </outline>
</glyph>
<glyph name="K" format="2">
  <advance width="801"/>
  <unicode hex="004B"/>
  <anchor x="425" y="0" name="bottom"/>
  <anchor x="448" y="356" name="center"/>
  <anchor x="231" y="520" name="stroke"/>
  <anchor x="422" y="708" name="top"/>
  <anchor x="422" y="688" name="top_low_1"/>
  <anchor x="422" y="668" name="top_low_2"/>
  <anchor x="422" y="648" name="top_low_3"/>
  <outline>
    <contour>
      <point x="531" y="0" type="curve"/>
      <point x="556" y="2"/>
      <point x="604" y="3"/>
      <point x="661" y="3" type="curve" smooth="yes"/>
      <point x="702" y="3"/>
      <point x="747" y="2"/>
      <point x="798" y="0" type="curve"/>
      <point x="798" y="70" type="line"/>
      <point x="749" y="78"/>
      <point x="729" y="99"/>
      <point x="710" y="156" type="curve" smooth="yes"/>
      <point x="678" y="251" type="line" smooth="yes"/>
      <point x="639" y="366"/>
      <point x="590" y="403"/>
      <point x="489" y="420" type="curve"/>
      <point x="478" y="359" type="line"/>
      <point x="618" y="549" type="line" smooth="yes"/>
      <point x="663" y="610"/>
      <point x="700" y="630"/>
      <point x="780" y="638" type="curve"/>
      <point x="780" y="708" type="line"/>
      <point x="686" y="706"/>
      <point x="651" y="705"/>
      <point x="614" y="705" type="curve" smooth="yes"/>
      <point x="542" y="705"/>
      <point x="481" y="706"/>
      <point x="440" y="708" type="curve"/>
      <point x="440" y="638" type="line"/>
      <point x="553" y="635"/>
      <point x="566" y="596"/>
      <point x="503" y="508" type="curve" smooth="yes"/>
      <point x="466" y="456" type="line" smooth="yes"/>
      <point x="427" y="402"/>
      <point x="411" y="391"/>
      <point x="368" y="391" type="curve" smooth="yes"/>
      <point x="291" y="391" type="line"/>
      <point x="291" y="321" type="line"/>
      <point x="368" y="321" type="line" smooth="yes"/>
      <point x="426" y="321"/>
      <point x="453" y="301"/>
      <point x="476" y="233" type="curve" smooth="yes"/>
      <point x="519" y="103" type="line" smooth="yes"/>
      <point x="531" y="68"/>
      <point x="533" y="43"/>
    </contour>
    <contour>
      <point x="216" y="3" type="curve"/>
      <point x="231" y="3" type="line"/>
      <point x="247" y="3" type="line"/>
      <point x="294" y="3"/>
      <point x="379" y="2"/>
      <point x="433" y="0" type="curve"/>
      <point x="433" y="70" type="line"/>
      <point x="401" y="74" type="line"/>
      <point x="345" y="81"/>
      <point x="333" y="92"/>
      <point x="333" y="156" type="curve"/>
      <point x="333" y="708" type="line"/>
      <point x="299" y="706"/>
      <point x="265" y="705"/>
      <point x="231" y="705" type="curve"/>
      <point x="216" y="705" type="line"/>
      <point x="169" y="705"/>
      <point x="84" y="706"/>
      <point x="30" y="708" type="curve"/>
      <point x="30" y="638" type="line"/>
      <point x="62" y="634" type="line"/>
      <point x="118" y="627"/>
      <point x="130" y="616"/>
      <point x="130" y="552" type="curve"/>
      <point x="130" y="156" type="line"/>
      <point x="130" y="92"/>
      <point x="118" y="81"/>
      <point x="62" y="74" type="curve"/>
      <point x="30" y="71" type="line"/>
      <point x="30" y="1" type="line"/>
      <point x="84" y="2"/>
      <point x="169" y="3"/>
    </contour>
  </outline>
</glyph>
<glyph name="M" format="2">
  <advance width="1026"/>
  <unicode hex="004D"/>
  <anchor x="513" y="0" name="bottom"/>
  <anchor x="513" y="708" name="top"/>
  <anchor x="513" y="688" name="top_low_1"/>
  <anchor x="513" y="668" name="top_low_2"/>
  <anchor x="513" y="648" name="top_low_3"/>
  <outline>
    <contour>
      <point x="411" y="0" type="line"/>
      <point x="477" y="0" type="line"/>
      <point x="672" y="594" type="line"/>
      <point x="693" y="594" type="line"/>
      <point x="693" y="156" type="line"/>
      <point x="693" y="92"/>
      <point x="682" y="80"/>
      <point x="630" y="74" type="curve"/>
      <point x="603" y="70" type="line"/>
      <point x="603" y="0" type="line"/>
      <point x="654" y="2"/>
      <point x="734" y="3"/>
      <point x="779" y="3" type="curve"/>
      <point x="795" y="3" type="line"/>
      <point x="810" y="3" type="line"/>
      <point x="857" y="3"/>
      <point x="942" y="2"/>
      <point x="996" y="0" type="curve"/>
      <point x="996" y="70" type="line"/>
      <point x="964" y="74" type="line"/>
      <point x="908" y="81"/>
      <point x="896" y="92"/>
      <point x="896" y="156" type="curve"/>
      <point x="896" y="552" type="line"/>
      <point x="896" y="616"/>
      <point x="908" y="627"/>
      <point x="964" y="634" type="curve"/>
      <point x="996" y="638" type="line"/>
      <point x="996" y="708" type="line"/>
      <point x="942" y="706"/>
      <point x="857" y="705"/>
      <point x="810" y="705" type="curve"/>
      <point x="799" y="705" type="line"/>
      <point x="741" y="705"/>
      <point x="698" y="706"/>
      <point x="636" y="708" type="curve"/>
      <point x="476" y="221" type="line"/>
      <point x="537" y="272" type="line"/>
      <point x="400" y="708" type="line"/>
      <point x="355" y="706"/>
      <point x="302" y="705"/>
      <point x="243" y="705" type="curve"/>
      <point x="217" y="706" type="line"/>
      <point x="170" y="705"/>
      <point x="85" y="707"/>
      <point x="31" y="709" type="curve"/>
      <point x="31" y="639" type="line"/>
      <point x="63" y="635" type="line"/>
      <point x="119" y="628"/>
      <point x="131" y="617"/>
      <point x="131" y="553" type="curve"/>
      <point x="131" y="156" type="line"/>
      <point x="131" y="92"/>
      <point x="119" y="78"/>
      <point x="63" y="73" type="curve"/>
      <point x="30" y="70" type="line"/>
      <point x="30" y="0" type="line"/>
      <point x="70" y="2"/>
      <point x="133" y="3"/>
      <point x="168" y="3" type="curve"/>
      <point x="201" y="3"/>
      <point x="257" y="2"/>
      <point x="285" y="0" type="curve"/>
      <point x="285" y="70" type="line"/>
      <point x="260" y="72" type="line"/>
      <point x="214" y="76"/>
      <point x="204" y="92"/>
      <point x="204" y="156" type="curve"/>
      <point x="204" y="594" type="line"/>
      <point x="225" y="594" type="line"/>
    </contour>
  </outline>
</glyph>
<glyph name="R" format="2">
  <advance width="752"/>
  <unicode hex="0052"/>
  <anchor x="130" y="0" name="baseline_left"/>
  <anchor x="414" y="0" name="bottom"/>
  <anchor x="232" y="346" name="center"/>
  <anchor x="130" y="180" name="stem"/>
  <anchor x="373" y="708" name="top"/>
  <outline>
    <contour>
      <point x="130" y="180" type="line"/>
      <point x="333" y="180" type="line"/>
      <point x="333" y="638" type="line"/>
      <point x="388" y="638" type="line" smooth="yes"/>
      <point x="459" y="638"/>
      <point x="493" y="600"/>
      <point x="493" y="519" type="curve" smooth="yes"/>
      <point x="493" y="428"/>
      <point x="455" y="381"/>
      <point x="380" y="381" type="curve" smooth="yes"/>
      <point x="244" y="381" type="line"/>
      <point x="244" y="342" type="line"/>
      <point x="370" y="342" type="line" smooth="yes"/>
      <point x="577" y="342"/>
      <point x="683" y="408"/>
      <point x="683" y="536" type="curve" smooth="yes"/>
      <point x="683" y="655"/>
      <point x="591" y="708"/>
      <point x="386" y="708" type="curve" smooth="yes"/>
      <point x="347" y="708"/>
      <point x="321" y="705"/>
      <point x="231" y="705" type="curve"/>
      <point x="216" y="705" type="line"/>
      <point x="169" y="705"/>
      <point x="84" y="706"/>
      <point x="30" y="708" type="curve"/>
      <point x="30" y="638" type="line"/>
      <point x="62" y="634" type="line"/>
      <point x="118" y="627"/>
      <point x="130" y="616"/>
      <point x="130" y="552" type="curve"/>
    </contour>
    <contour>
      <point x="634" y="-14" type="curve" smooth="yes"/>
      <point x="698" y="-14"/>
      <point x="746" y="4"/>
      <point x="779" y="40" type="curve"/>
      <point x="750" y="97" type="line"/>
      <point x="744" y="92"/>
      <point x="737" y="90"/>
      <point x="727" y="90" type="curve" smooth="yes"/>
      <point x="703" y="90"/>
      <point x="690" y="108"/>
      <point x="680" y="155" type="curve" smooth="yes"/>
      <point x="675" y="179" type="line" smooth="yes"/>
      <point x="647" y="312"/>
      <point x="566" y="359"/>
      <point x="361" y="359" type="curve" smooth="yes"/>
      <point x="250" y="359" type="line"/>
      <point x="250" y="311" type="line"/>
      <point x="372" y="311" type="line" smooth="yes"/>
      <point x="426" y="311"/>
      <point x="447" y="291"/>
      <point x="456" y="234" type="curve" smooth="yes"/>
      <point x="471" y="134" type="line" smooth="yes"/>
      <point x="487" y="25"/>
      <point x="530" y="-14"/>
    </contour>
    <contour>
      <point x="216" y="2" type="curve"/>
      <point x="233" y="3" type="line"/>
      <point x="246" y="3" type="line"/>
      <point x="281" y="3"/>
      <point x="344" y="2"/>
      <point x="383" y="0" type="curve"/>
      <point x="383" y="70" type="line"/>
      <point x="376" y="71" type="line"/>
      <point x="339" y="76"/>
      <point x="333" y="90"/>
      <point x="333" y="156" type="curve"/>
      <point x="333" y="180" type="line"/>
      <point x="130" y="180" type="line"/>
      <point x="130" y="156" type="line"/>
      <point x="130" y="92"/>
      <point x="118" y="81"/>
      <point x="62" y="74" type="curve"/>
      <point x="30" y="71" type="line"/>
      <point x="30" y="1" type="line"/>
      <point x="84" y="2"/>
      <point x="169" y="3"/>
    </contour>
  </outline>
</glyph>
<glyph name="S" format="2">
  <advance width="653"/>
  <unicode hex="0053"/>
  <anchor x="332" y="0" name="bottom"/>
  <anchor x="332" y="354" name="center"/>
  <anchor x="337" y="0" name="currency"/>
  <anchor x="333" y="708" name="top"/>
  <anchor x="333" y="688" name="top_low_1"/>
  <anchor x="333" y="668" name="top_low_2"/>
  <anchor x="333" y="648" name="top_low_3"/>
  <outline>
    <contour>
      <point x="353" y="-14" type="curve" smooth="yes"/>
      <point x="518" y="-14"/>
      <point x="617" y="73"/>
      <point x="617" y="207" type="curve" smooth="yes"/>
      <point x="617" y="335"/>
      <point x="549" y="403"/>
      <point x="386" y="448" type="curve" smooth="yes"/>
      <point x="252" y="485"/>
      <point x="209" y="514"/>
      <point x="209" y="569" type="curve" smooth="yes"/>
      <point x="209" y="617"/>
      <point x="244" y="645"/>
      <point x="306" y="645" type="curve" smooth="yes"/>
      <point x="404" y="645"/>
      <point x="478" y="579"/>
      <point x="505" y="468" type="curve"/>
      <point x="578" y="468" type="line"/>
      <point x="578" y="613"/>
      <point x="579" y="664"/>
      <point x="583" y="712" type="curve"/>
      <point x="510" y="712" type="line"/>
      <point x="507" y="684"/>
      <point x="500" y="671"/>
      <point x="488" y="671" type="curve" smooth="yes"/>
      <point x="464" y="671"/>
      <point x="414" y="722"/>
      <point x="297" y="722" type="curve" smooth="yes"/>
      <point x="146" y="722"/>
      <point x="54" y="638"/>
      <point x="54" y="510" type="curve" smooth="yes"/>
      <point x="54" y="385"/>
      <point x="120" y="319"/>
      <point x="275" y="277" type="curve" smooth="yes"/>
      <point x="410" y="241"/>
      <point x="458" y="209"/>
      <point x="458" y="149" type="curve" smooth="yes"/>
      <point x="458" y="98"/>
      <point x="417" y="66"/>
      <point x="342" y="66" type="curve" smooth="yes"/>
      <point x="226" y="66"/>
      <point x="151" y="142"/>
      <point x="126" y="283" type="curve"/>
      <point x="53" y="283" type="line"/>
      <point x="53" y="124"/>
      <point x="52" y="53"/>
      <point x="49" y="-4" type="curve"/>
      <point x="122" y="-4" type="line"/>
      <point x="126" y="26"/>
      <point x="132" y="37"/>
      <point x="144" y="37" type="curve" smooth="yes"/>
      <point x="168" y="37"/>
      <point x="226" y="-14"/>
    </contour>
  </outline>
</glyph>
<glyph name="T" format="2">
  <advance width="699"/>
  <unicode hex="0054"/>
  <anchor x="451" y="0" name="#exit"/>
  <anchor x="451" y="0" name="%exit"/>
  <anchor x="349" y="0" name="bottom"/>
  <anchor x="350" y="354" name="center"/>
  <anchor x="350" y="285" name="center_lowered"/>
  <outline>
    <contour>
      <point x="334" y="3" type="curve"/>
      <point x="349" y="3" type="line"/>
      <point x="365" y="3" type="line"/>
      <point x="417" y="3"/>
      <point x="504" y="2"/>
      <point x="571" y="0" type="curve"/>
      <point x="571" y="70" type="line"/>
      <point x="518" y="76" type="line"/>
      <point x="463" y="82"/>
      <point x="451" y="94"/>
      <point x="451" y="156" type="curve"/>
      <point x="451" y="250" type="line"/>
      <point x="248" y="250" type="line"/>
      <point x="248" y="156" type="line"/>
      <point x="248" y="95"/>
      <point x="236" y="82"/>
      <point x="181" y="76" type="curve"/>
      <point x="128" y="71" type="line"/>
      <point x="128" y="1" type="line"/>
      <point x="194" y="2"/>
      <point x="282" y="3"/>
    </contour>
    <component base="_UC-T-upper"/>
  </outline>
</glyph>
<glyph name="V" format="2">
  <advance width="831"/>
  <unicode hex="0056"/>
  <anchor x="433" y="0" name="bottom"/>
  <anchor x="423" y="708" name="top"/>
  <anchor x="423" y="688" name="top_low_1"/>
  <anchor x="423" y="668" name="top_low_2"/>
  <anchor x="423" y="648" name="top_low_3"/>
  <outline>
    <contour>
      <point x="400" y="0" type="line"/>
      <point x="466" y="0" type="line"/>
      <point x="687" y="512" type="line"/>
      <point x="726" y="605"/>
      <point x="759" y="628"/>
      <point x="839" y="636" type="curve"/>
      <point x="858" y="638" type="line"/>
      <point x="858" y="708" type="line"/>
      <point x="811" y="706"/>
      <point x="757" y="705"/>
      <point x="703" y="705" type="curve"/>
      <point x="650" y="705"/>
      <point x="588" y="706"/>
      <point x="525" y="708" type="curve"/>
      <point x="525" y="638" type="line"/>
      <point x="552" y="635" type="line"/>
      <point x="627" y="627"/>
      <point x="641" y="587"/>
      <point x="606" y="502" type="curve"/>
      <point x="477" y="200" type="line"/>
      <point x="529" y="193" type="line"/>
      <point x="352" y="552" type="line"/>
      <point x="321" y="616"/>
      <point x="333" y="630"/>
      <point x="387" y="634" type="curve"/>
      <point x="420" y="637" type="line"/>
      <point x="420" y="707" type="line"/>
      <point x="351" y="706"/>
      <point x="242" y="705"/>
      <point x="181" y="705" type="curve"/>
      <point x="164" y="705" type="line"/>
      <point x="150" y="705" type="line"/>
      <point x="111" y="705"/>
      <point x="42" y="706"/>
      <point x="-4" y="708" type="curve"/>
      <point x="-3" y="638" type="line"/>
      <point x="33" y="635" type="line"/>
      <point x="78" y="631"/>
      <point x="94" y="621"/>
      <point x="119" y="572" type="curve"/>
    </contour>
  </outline>
</glyph>
<glyph name="W" format="2">
  <advance width="1149"/>
  <unicode hex="0057"/>
  <anchor x="600" y="0" name="bottom"/>
  <anchor x="599" y="356" name="currency"/>
  <anchor x="600" y="708" name="top"/>
  <anchor x="600" y="688" name="top_low_1"/>
  <anchor x="600" y="668" name="top_low_2"/>
  <anchor x="600" y="648" name="top_low_3"/>
  <outline>
    <contour>
      <point x="751" y="0" type="line"/>
      <point x="817" y="0" type="line"/>
      <point x="1004" y="508" type="line"/>
      <point x="1039" y="602"/>
      <point x="1066" y="628"/>
      <point x="1146" y="636" type="curve"/>
      <point x="1165" y="638" type="line"/>
      <point x="1165" y="708" type="line"/>
      <point x="1118" y="706"/>
      <point x="1064" y="705"/>
      <point x="1010" y="705" type="curve"/>
      <point x="957" y="705"/>
      <point x="895" y="706"/>
      <point x="832" y="708" type="curve"/>
      <point x="832" y="638" type="line"/>
      <point x="859" y="635" type="line"/>
      <point x="934" y="627"/>
      <point x="954" y="584"/>
      <point x="923" y="498" type="curve"/>
      <point x="825" y="217" type="line"/>
      <point x="877" y="208" type="line"/>
      <point x="728" y="548" type="line"/>
      <point x="700" y="614"/>
      <point x="713" y="630"/>
      <point x="756" y="635" type="curve"/>
      <point x="782" y="638" type="line"/>
      <point x="782" y="708" type="line"/>
      <point x="721" y="706"/>
      <point x="622" y="705"/>
      <point x="564" y="705" type="curve"/>
      <point x="552" y="705" type="line"/>
      <point x="543" y="705" type="line"/>
      <point x="513" y="705"/>
      <point x="460" y="706"/>
      <point x="425" y="708" type="curve"/>
      <point x="425" y="638" type="line"/>
      <point x="443" y="636" type="line"/>
      <point x="479" y="629"/>
      <point x="485" y="616"/>
      <point x="504" y="574" type="curve"/>
    </contour>
    <contour>
      <point x="375" y="0" type="line"/>
      <point x="441" y="0" type="line"/>
      <point x="621" y="459" type="line"/>
      <point x="583" y="546" type="line"/>
      <point x="447" y="198" type="line"/>
      <point x="508" y="197" type="line"/>
      <point x="350" y="549" type="line"/>
      <point x="321" y="614"/>
      <point x="330" y="631"/>
      <point x="356" y="636" type="curve"/>
      <point x="371" y="638" type="line"/>
      <point x="371" y="708" type="line"/>
      <point x="323" y="706"/>
      <point x="238" y="705"/>
      <point x="185" y="705" type="curve"/>
      <point x="170" y="705" type="line"/>
      <point x="159" y="705" type="line"/>
      <point x="120" y="705"/>
      <point x="51" y="706"/>
      <point x="5" y="708" type="curve"/>
      <point x="6" y="638" type="line"/>
      <point x="42" y="635" type="line"/>
      <point x="87" y="631"/>
      <point x="100" y="619"/>
      <point x="123" y="569" type="curve"/>
    </contour>
  </outline>
</glyph>
<glyph name="X" format="2">
  <advance width="869"/>
  <unicode hex="0058"/>
  <anchor x="435" y="0" name="bottom"/>
  <anchor x="872" y="0" name="bottomright"/>
  <anchor x="435" y="708" name="top"/>
  <anchor x="435" y="688" name="top_low_1"/>
  <anchor x="435" y="668" name="top_low_2"/>
  <anchor x="435" y="648" name="top_low_3"/>
  <outline>
    <contour>
      <point x="706" y="2" type="curve"/>
      <point x="731" y="3" type="line"/>
      <point x="752" y="2" type="line"/>
      <point x="791" y="3"/>
      <point x="860" y="2"/>
      <point x="906" y="0" type="curve"/>
      <point x="905" y="70" type="line"/>
      <point x="869" y="73" type="line"/>
      <point x="824" y="77"/>
      <point x="789" y="76"/>
      <point x="754" y="118" type="curve"/>
      <point x="386" y="573" type="line"/>
      <point x="341" y="628"/>
      <point x="333" y="630"/>
      <point x="388" y="634" type="curve"/>
      <point x="421" y="637" type="line"/>
      <point x="421" y="707" type="line"/>
      <point x="352" y="705"/>
      <point x="243" y="705"/>
      <point x="182" y="706" type="curve"/>
      <point x="157" y="705" type="line"/>
      <point x="136" y="706" type="line"/>
      <point x="97" y="705"/>
      <point x="28" y="706"/>
      <point x="-18" y="708" type="curve"/>
      <point x="-17" y="638" type="line"/>
      <point x="19" y="635" type="line"/>
      <point x="64" y="631"/>
      <point x="99" y="632"/>
      <point x="134" y="590" type="curve"/>
      <point x="502" y="135" type="line"/>
      <point x="547" y="80"/>
      <point x="555" y="78"/>
      <point x="500" y="74" type="curve"/>
      <point x="467" y="71" type="line"/>
      <point x="467" y="1" type="line"/>
      <point x="536" y="3"/>
      <point x="645" y="3"/>
    </contour>
    <contour>
      <point x="264" y="170" type="curve"/>
      <point x="414" y="332" type="line"/>
      <point x="345" y="357" type="line"/>
      <point x="180" y="163" type="line"/>
      <point x="115" y="86"/>
      <point x="54" y="80"/>
      <point x="-26" y="72" type="curve"/>
      <point x="-45" y="70" type="line"/>
      <point x="-45" y="0" type="line"/>
      <point x="2" y="2"/>
      <point x="56" y="3"/>
      <point x="110" y="3" type="curve"/>
      <point x="163" y="3"/>
      <point x="225" y="2"/>
      <point x="288" y="0" type="curve"/>
      <point x="288" y="70" type="line"/>
      <point x="261" y="73" type="line"/>
      <point x="186" y="81"/>
      <point x="205" y="100"/>
    </contour>
    <contour>
      <point x="493" y="375" type="line"/>
      <point x="639" y="546" type="line"/>
      <point x="704" y="623"/>
      <point x="766" y="628"/>
      <point x="846" y="636" type="curve"/>
      <point x="865" y="638" type="line"/>
      <point x="865" y="708" type="line"/>
      <point x="818" y="706"/>
      <point x="764" y="705"/>
      <point x="710" y="705" type="curve"/>
      <point x="657" y="705"/>
      <point x="595" y="706"/>
      <point x="532" y="708" type="curve"/>
      <point x="532" y="638" type="line"/>
      <point x="559" y="635" type="line"/>
      <point x="634" y="627"/>
      <point x="614" y="609"/>
      <point x="555" y="539" type="curve"/>
      <point x="424" y="400" type="line"/>
    </contour>
  </outline>
</glyph>
<glyph name="Y" format="2">
  <advance width="806"/>
  <unicode hex="0059"/>
  <anchor x="417" y="0" name="bottom"/>
  <anchor x="418" y="255" name="center"/>
  <anchor x="413" y="708" name="top"/>
  <anchor x="413" y="688" name="top_low_1"/>
  <anchor x="413" y="668" name="top_low_2"/>
  <anchor x="413" y="648" name="top_low_3"/>
  <outline>
    <contour>
      <point x="368" y="199" type="line"/>
      <point x="457" y="199" type="line"/>
      <point x="621" y="518" type="line"/>
      <point x="661" y="609"/>
      <point x="696" y="627"/>
      <point x="763" y="636" type="curve"/>
      <point x="781" y="638" type="line"/>
      <point x="781" y="708" type="line"/>
      <point x="740" y="706"/>
      <point x="694" y="705"/>
      <point x="647" y="705" type="curve"/>
      <point x="601" y="705"/>
      <point x="548" y="706"/>
      <point x="493" y="708" type="curve"/>
      <point x="493" y="638" type="line"/>
      <point x="516" y="635" type="line"/>
      <point x="578" y="629"/>
      <point x="584" y="598"/>
      <point x="540" y="509" type="curve"/>
      <point x="434" y="298" type="line"/>
      <point x="506" y="342" type="line"/>
      <point x="373" y="559" type="line"/>
      <point x="336" y="620"/>
      <point x="337" y="630"/>
      <point x="380" y="635" type="curve"/>
      <point x="405" y="637" type="line"/>
      <point x="406" y="707" type="line"/>
      <point x="345" y="706"/>
      <point x="246" y="705"/>
      <point x="188" y="705" type="curve"/>
      <point x="170" y="705" type="line"/>
      <point x="154" y="705" type="line"/>
      <point x="118" y="705"/>
      <point x="54" y="706"/>
      <point x="12" y="708" type="curve"/>
      <point x="13" y="638" type="line"/>
      <point x="43" y="635" type="line"/>
      <point x="85" y="630"/>
      <point x="107" y="624"/>
      <point x="134" y="580" type="curve"/>
    </contour>
    <contour>
      <point x="402" y="3" type="curve"/>
      <point x="417" y="3" type="line"/>
      <point x="433" y="3" type="line"/>
      <point x="485" y="3"/>
      <point x="572" y="2"/>
      <point x="639" y="0" type="curve"/>
      <point x="639" y="70" type="line"/>
      <point x="586" y="76" type="line"/>
      <point x="531" y="82"/>
      <point x="519" y="94"/>
      <point x="519" y="156" type="curve"/>
      <point x="519" y="393" type="line"/>
      <point x="425" y="249" type="line"/>
      <point x="316" y="311" type="line"/>
      <point x="316" y="156" type="line"/>
      <point x="316" y="95"/>
      <point x="304" y="82"/>
      <point x="249" y="76" type="curve"/>
      <point x="196" y="71" type="line"/>
      <point x="196" y="1" type="line"/>
      <point x="262" y="2"/>
      <point x="350" y="3"/>
    </contour>
  </outline>
</glyph>
<glyph name="Z" format="2">
  <advance width="617"/>
  <unicode hex="005A"/>
  <anchor x="310" y="0" name="bottom"/>
  <anchor x="306" y="354" name="center"/>
  <anchor x="306" y="708" name="top"/>
  <anchor x="306" y="688" name="top_low_1"/>
  <anchor x="306" y="668" name="top_low_2"/>
  <anchor x="306" y="648" name="top_low_3"/>
  <outline>
    <contour>
      <point x="27" y="0" type="line"/>
      <point x="109" y="3"/>
      <point x="206" y="3"/>
      <point x="290" y="3" type="curve" smooth="yes"/>
      <point x="340" y="3" type="line"/>
      <point x="452" y="3"/>
      <point x="523" y="2"/>
      <point x="574" y="0" type="curve"/>
      <point x="573" y="87"/>
      <point x="577" y="181"/>
      <point x="585" y="280" type="curve"/>
      <point x="512" y="280" type="line"/>
      <point x="470" y="150"/>
      <point x="401" y="73"/>
      <point x="328" y="73" type="curve"/>
      <point x="248" y="73" type="line"/>
      <point x="571" y="638" type="line"/>
      <point x="571" y="708" type="line"/>
      <point x="496" y="705"/>
      <point x="405" y="705"/>
      <point x="328" y="705" type="curve" smooth="yes"/>
      <point x="251" y="705" type="line"/>
      <point x="159" y="705"/>
      <point x="101" y="706"/>
      <point x="59" y="708" type="curve"/>
      <point x="60" y="646"/>
      <point x="58" y="579"/>
      <point x="54" y="508" type="curve"/>
      <point x="127" y="508" type="line"/>
      <point x="163" y="595"/>
      <point x="219" y="635"/>
      <point x="297" y="635" type="curve"/>
      <point x="350" y="635" type="line"/>
      <point x="27" y="70" type="line"/>
    </contour>
  </outline>
</glyph>
<glyph name="bracketleft" format="2">
  <advance width="329"/>
  <unicode hex="005B"/>
  <outline>
    <contour>
      <point x="78" y="-181" type="line"/>
      <point x="299" y="-181" type="line"/>
      <point x="299" y="-112" type="line"/>
      <point x="258" y="-112" type="line"/>
      <point x="258" y="703" type="line"/>
      <point x="299" y="703" type="line"/>
      <point x="299" y="772" type="line"/>
      <point x="78" y="772" type="line"/>
    </contour>
  </outline>
</glyph>
<glyph name="asciicircum" format="2">
  <advance width="524"/>
  <unicode hex="005E"/>
  <outline>
    <contour>
      <point x="58" y="290" type="line"/>
      <point x="232" y="377" type="line"/>
      <point x="460" y="290" type="line"/>
      <point x="488" y="341" type="line"/>
      <point x="291" y="533" type="line"/>
      <point x="233" y="533" type="line"/>
      <point x="30" y="341" type="line"/>
    </contour>
  </outline>
</glyph>
<glyph name="b" format="2">
  <advance width="643"/>
  <unicode hex="0062"/>
  <anchor x="286" y="260" name="#entry"/>
  <anchor x="286" y="260" name="#exit"/>
  <anchor x="334" y="0" name="bottom"/>
  <anchor x="356" y="261" name="center"/>
  <anchor x="335" y="773" name="top"/>
  <anchor x="106" y="520" name="top-left"/>
  <outline>
    <contour>
      <point x="419" y="534" type="curve" smooth="yes"/>
      <point x="348" y="534"/>
      <point x="294" y="499"/>
      <point x="268" y="427" type="curve"/>
      <point x="280" y="375" type="line"/>
      <point x="291" y="407"/>
      <point x="322" y="432"/>
      <point x="353" y="432" type="curve" smooth="yes"/>
      <point x="403" y="432"/>
      <point x="425" y="380"/>
      <point x="425" y="260" type="curve" smooth="yes"/>
      <point x="425" y="131"/>
      <point x="396" y="73"/>
      <point x="330" y="73" type="curve" smooth="yes"/>
      <point x="306" y="73"/>
      <point x="284" y="83"/>
      <point x="270" y="98" type="curve"/>
      <point x="259" y="39" type="line"/>
      <point x="282" y="5"/>
      <point x="327" y="-13"/>
      <point x="388" y="-13" type="curve" smooth="yes"/>
      <point x="531" y="-13"/>
      <point x="612" y="87"/>
      <point x="612" y="264" type="curve" smooth="yes"/>
      <point x="612" y="433"/>
      <point x="538" y="534"/>
    </contour>
    <component base="_LC-ascender-left-inserif"/>
    <component base="_LC-baseline-left-instroke" xOffset="2"/>
  </outline>
</glyph>
<glyph name="c" format="2">
  <advance width="504"/>
  <unicode hex="0063"/>
  <anchor x="276" y="0" name="bottom"/>
  <anchor x="269" y="259" name="center"/>
  <anchor x="263" y="0" name="currency"/>
  <anchor x="367" y="519" name="hook"/>
  <anchor x="272" y="520" name="top"/>
  <outline>
    <contour>
      <point x="262" y="-14" type="curve" smooth="yes"/>
      <point x="369" y="-14"/>
      <point x="443" y="43"/>
      <point x="481" y="156" type="curve"/>
      <point x="413" y="186" type="line"/>
      <point x="388" y="128"/>
      <point x="358" y="96"/>
      <point x="312" y="96" type="curve" smooth="yes"/>
      <point x="252" y="96"/>
      <point x="218" y="162"/>
      <point x="218" y="277" type="curve" smooth="yes"/>
      <point x="218" y="385"/>
      <point x="258" y="454"/>
      <point x="321" y="454" type="curve" smooth="yes"/>
      <point x="340" y="454"/>
      <point x="351" y="446"/>
      <point x="351" y="432" type="curve" smooth="yes"/>
      <point x="351" y="396"/>
      <point x="302" y="375"/>
      <point x="302" y="327" type="curve" smooth="yes"/>
      <point x="302" y="295"/>
      <point x="328" y="272"/>
      <point x="370" y="272" type="curve" smooth="yes"/>
      <point x="436" y="272"/>
      <point x="469" y="324"/>
      <point x="469" y="381" type="curve" smooth="yes"/>
      <point x="469" y="471"/>
      <point x="395" y="533"/>
      <point x="282" y="533" type="curve" smooth="yes"/>
      <point x="124" y="533"/>
      <point x="31" y="430"/>
      <point x="31" y="256" type="curve" smooth="yes"/>
      <point x="31" y="88"/>
      <point x="118" y="-14"/>
    </contour>
  </outline>
</glyph>
<glyph name="d" format="2">
  <advance width="633"/>
  <unicode hex="0064"/>
  <anchor x="357" y="260" name="#entry"/>
  <anchor x="357" y="260" name="#exit"/>
  <anchor x="138" y="0" name="%entry"/>
  <anchor x="250" y="0" name="^entry"/>
  <anchor x="603" y="0" name="^exit"/>
  <anchor x="344" y="0" name="bottom"/>
  <anchor x="537" y="0" name="bottom-right"/>
  <anchor x="287" y="259" name="center"/>
  <anchor x="357" y="260" name="stem"/>
  <outline>
    <contour>
      <point x="224" y="-14" type="curve" smooth="yes"/>
      <point x="295" y="-14"/>
      <point x="349" y="21"/>
      <point x="375" y="93" type="curve"/>
      <point x="363" y="145" type="line"/>
      <point x="352" y="113"/>
      <point x="321" y="88"/>
      <point x="290" y="88" type="curve" smooth="yes"/>
      <point x="240" y="88"/>
      <point x="218" y="140"/>
      <point x="218" y="260" type="curve" smooth="yes"/>
      <point x="218" y="389"/>
      <point x="247" y="447"/>
      <point x="313" y="447" type="curve" smooth="yes"/>
      <point x="337" y="447"/>
      <point x="359" y="437"/>
      <point x="373" y="422" type="curve"/>
      <point x="384" y="481" type="line"/>
      <point x="361" y="515"/>
      <point x="316" y="533"/>
      <point x="255" y="533" type="curve" smooth="yes"/>
      <point x="112" y="533"/>
      <point x="31" y="433"/>
      <point x="31" y="256" type="curve" smooth="yes"/>
      <point x="31" y="87"/>
      <point x="105" y="-14"/>
    </contour>
    <contour>
      <point x="357" y="0" type="line"/>
      <point x="357" y="-11" type="line"/>
      <point x="402" y="-3"/>
      <point x="456" y="2"/>
      <point x="528" y="2" type="curve"/>
      <point x="568" y="2"/>
      <point x="594" y="1"/>
      <point x="623" y="0" type="curve"/>
      <point x="623" y="70" type="line"/>
      <point x="599" y="73" type="line"/>
      <point x="546" y="80"/>
      <point x="537" y="91"/>
      <point x="537" y="137" type="curve"/>
      <point x="537" y="260" type="line"/>
      <point x="357" y="260" type="line"/>
    </contour>
    <component base="_LC-ascender-right-inserif" xOffset="241"/>
  </outline>
</glyph>
<glyph name="e" format="2">
  <advance width="539"/>
  <unicode hex="0065"/>
  <anchor x="277" y="0" name="bottom"/>
  <anchor x="290" y="259" name="center"/>
  <anchor x="372" y="0" name="ogonek"/>
  <anchor x="268" y="520" name="top"/>
  <anchor x="268" y="500" name="top_low_1"/>
  <anchor x="268" y="480" name="top_low_2"/>
  <anchor x="268" y="460" name="top_low_3"/>
  <outline>
    <contour>
      <point x="277" y="-14" type="curve" smooth="yes"/>
      <point x="391" y="-14"/>
      <point x="470" y="43"/>
      <point x="511" y="156" type="curve"/>
      <point x="443" y="186" type="line"/>
      <point x="414" y="128"/>
      <point x="380" y="96"/>
      <point x="327" y="96" type="curve" smooth="yes"/>
      <point x="259" y="96"/>
      <point x="218" y="162"/>
      <point x="218" y="273" type="curve" smooth="yes"/>
      <point x="218" y="299"/>
      <point x="218" y="306"/>
      <point x="219" y="314" type="curve"/>
      <point x="215" y="322" type="line"/>
      <point x="215" y="408"/>
      <point x="245" y="460"/>
      <point x="293" y="460" type="curve" smooth="yes"/>
      <point x="342" y="460"/>
      <point x="365" y="416"/>
      <point x="361" y="333" type="curve"/>
      <point x="162" y="333" type="line"/>
      <point x="164" y="264" type="line"/>
      <point x="507" y="264" type="line"/>
      <point x="513" y="448"/>
      <point x="445" y="533"/>
      <point x="286" y="533" type="curve" smooth="yes"/>
      <point x="130" y="533"/>
      <point x="31" y="431"/>
      <point x="31" y="258" type="curve" smooth="yes"/>
      <point x="31" y="88"/>
      <point x="124" y="-14"/>
    </contour>
  </outline>
</glyph>
<glyph name="f" format="2">
  <advance width="429"/>
  <unicode hex="0066"/>
  <outline>
    <contour>
      <point x="20" y="450" type="line"/>
      <point x="427" y="450" type="line"/>
      <point x="427" y="520" type="line"/>
      <point x="20" y="520" type="line"/>
    </contour>
  </outline>
</glyph>
<glyph name="g" format="2">
  <advance width="558"/>
  <unicode hex="0067"/>
  <anchor x="290" y="-231" name="bottom"/>
  <anchor x="286" y="0" name="center"/>
  <anchor x="256" y="520" name="top"/>
  <outline>
    <contour>
      <point x="222" y="-239" type="curve" smooth="yes"/>
      <point x="416" y="-239"/>
      <point x="541" y="-152"/>
      <point x="541" y="-18" type="curve" smooth="yes"/>
      <point x="541" y="78"/>
      <point x="476" y="130"/>
      <point x="354" y="130" type="curve" smooth="yes"/>
      <point x="272" y="130" type="line" smooth="yes"/>
      <point x="230" y="130"/>
      <point x="206" y="144"/>
      <point x="206" y="169" type="curve" smooth="yes"/>
      <point x="206" y="185"/>
      <point x="214" y="200"/>
      <point x="238" y="218" type="curve"/>
      <point x="179" y="226" type="line"/>
      <point x="105" y="182"/>
      <point x="72" y="138"/>
      <point x="72" y="83" type="curve" smooth="yes"/>
      <point x="72" y="23"/>
      <point x="128" y="-16"/>
      <point x="212" y="-16" type="curve" smooth="yes"/>
      <point x="336" y="-16" type="line" smooth="yes"/>
      <point x="382" y="-16"/>
      <point x="402" y="-36"/>
      <point x="402" y="-73" type="curve" smooth="yes"/>
      <point x="402" y="-131"/>
      <point x="340" y="-172"/>
      <point x="251" y="-172" type="curve" smooth="yes"/>
      <point x="172" y="-172"/>
      <point x="130" y="-140"/>
      <point x="130" y="-82" type="curve" smooth="yes"/>
      <point x="130" y="-50"/>
      <point x="143" y="-21"/>
      <point x="168" y="0" type="curve"/>
      <point x="133" y="16" type="line"/>
      <point x="47" y="-12"/>
      <point x="0" y="-54"/>
      <point x="0" y="-115" type="curve" smooth="yes"/>
      <point x="0" y="-180"/>
      <point x="66" y="-239"/>
    </contour>
    <contour>
      <point x="253" y="213" type="curve" smooth="yes"/>
      <point x="384" y="213"/>
      <point x="460" y="271"/>
      <point x="460" y="373" type="curve" smooth="yes"/>
      <point x="460" y="475"/>
      <point x="384" y="533"/>
      <point x="253" y="533" type="curve" smooth="yes"/>
      <point x="119" y="533"/>
      <point x="40" y="473"/>
      <point x="40" y="373" type="curve" smooth="yes"/>
      <point x="40" y="273"/>
      <point x="119" y="213"/>
    </contour>
    <contour>
      <point x="255" y="281" type="curve" smooth="yes"/>
      <point x="220" y="281"/>
      <point x="204" y="310"/>
      <point x="204" y="373" type="curve" smooth="yes"/>
      <point x="204" y="436"/>
      <point x="220" y="465"/>
      <point x="255" y="465" type="curve" smooth="yes"/>
      <point x="290" y="465"/>
      <point x="306" y="436"/>
      <point x="306" y="373" type="curve" smooth="yes"/>
      <point x="306" y="310"/>
      <point x="290" y="281"/>
    </contour>
    <contour>
      <point x="365" y="449" type="line"/>
      <point x="557" y="449" type="line"/>
      <point x="557" y="519" type="line"/>
      <point x="275" y="519" type="line"/>
    </contour>
  </outline>
</glyph>
<glyph name="k" format="2">
  <advance width="689"/>
  <unicode hex="006B"/>
  <anchor x="369" y="0" name="bottom"/>
  <anchor x="370" y="758" name="top"/>
  <outline>
    <contour>
      <point x="18" y="0" type="line"/>
      <point x="53" y="1"/>
      <point x="131" y="4"/>
      <point x="198" y="4" type="curve" smooth="yes"/>
      <point x="230" y="4"/>
      <point x="282" y="3"/>
      <point x="350" y="0" type="curve"/>
      <point x="350" y="71" type="line"/>
      <point x="300" y="75"/>
      <point x="284" y="93"/>
      <point x="284" y="143" type="curve" smooth="yes"/>
      <point x="284" y="782" type="line"/>
      <point x="231" y="773"/>
      <point x="173" y="768"/>
      <point x="116" y="768" type="curve" smooth="yes"/>
      <point x="90" y="768"/>
      <point x="68" y="769"/>
      <point x="18" y="771" type="curve"/>
      <point x="18" y="700" type="line"/>
      <point x="79" y="700"/>
      <point x="104" y="675"/>
      <point x="104" y="612" type="curve" smooth="yes"/>
      <point x="104" y="143" type="line" smooth="yes"/>
      <point x="104" y="91"/>
      <point x="86" y="75"/>
      <point x="18" y="71" type="curve"/>
    </contour>
    <contour>
      <point x="409" y="0" type="curve"/>
      <point x="433" y="2"/>
      <point x="477" y="3"/>
      <point x="519" y="3" type="curve" smooth="yes"/>
      <point x="570" y="3"/>
      <point x="621" y="2"/>
      <point x="682" y="0" type="curve"/>
      <point x="682" y="71" type="line"/>
      <point x="613" y="79"/>
      <point x="585" y="100"/>
      <point x="572" y="155" type="curve" smooth="yes"/>
      <point x="561" y="202" type="line" smooth="yes"/>
      <point x="541" y="289"/>
      <point x="508" y="316"/>
      <point x="412" y="323" type="curve"/>
      <point x="428" y="285" type="line"/>
      <point x="502" y="363" type="line" smooth="yes"/>
      <point x="552" y="415"/>
      <point x="587" y="448"/>
      <point x="651" y="448" type="curve"/>
      <point x="651" y="519" type="line"/>
      <point x="576" y="517"/>
      <point x="550" y="516"/>
      <point x="494" y="516" type="curve" smooth="yes"/>
      <point x="440" y="516"/>
      <point x="400" y="517"/>
      <point x="379" y="519" type="curve"/>
      <point x="379" y="448" type="line"/>
      <point x="445" y="446"/>
      <point x="465" y="421"/>
      <point x="424" y="377" type="curve" smooth="yes"/>
      <point x="392" y="343" type="line" smooth="yes"/>
      <point x="368" y="318"/>
      <point x="354" y="313"/>
      <point x="313" y="313" type="curve" smooth="yes"/>
      <point x="258" y="313" type="line"/>
      <point x="258" y="242" type="line"/>
      <point x="306" y="242" type="line" smooth="yes"/>
      <point x="344" y="242"/>
      <point x="368" y="226"/>
      <point x="376" y="191" type="curve" smooth="yes"/>
      <point x="397" y="103" type="line" smooth="yes"/>
      <point x="407" y="62"/>
      <point x="411" y="37"/>
    </contour>
    <component base="_LC-baseline-normal-narrow"/>
    <component base="_LC-ascender-left-inserif" xOffset="6"/>
    <component base="_LC-k-legs" xOffset="259"/>
  </outline>
</glyph>
<glyph name="l" format="2">
  <advance width="382"/>
  <unicode hex="006C"/>
  <anchor x="106" y="260" name="#entry"/>
  <anchor x="286" y="260" name="#exit"/>
  <anchor x="-162" y="0" name="%entry"/>
  <anchor x="106" y="0" name="%exit"/>
  <anchor x="-1" y="0" name="^entry"/>
  <anchor x="352" y="0" name="^exit"/>
  <anchor x="196" y="0" name="bottom"/>
  <anchor x="196" y="354" name="center"/>
  <anchor x="311" y="520" name="right"/>
  <anchor x="106" y="260" name="stem"/>
  <anchor x="196" y="771" name="top"/>
  <anchor x="320" y="771" name="topright"/>
  <outline>
    <contour>
      <point x="196" y="3" type="curve"/>
      <point x="196" y="3" type="line"/>
      <point x="196" y="3" type="line"/>
      <point x="264" y="3"/>
      <point x="319" y="1"/>
      <point x="372" y="0" type="curve"/>
      <point x="372" y="70" type="line"/>
      <point x="348" y="73" type="line"/>
      <point x="295" y="80"/>
      <point x="286" y="91"/>
      <point x="286" y="137" type="curve"/>
      <point x="286" y="260" type="line"/>
      <point x="106" y="260" type="line"/>
      <point x="106" y="137" type="line"/>
      <point x="106" y="91"/>
      <point x="97" y="80"/>
      <point x="44" y="73" type="curve"/>
      <point x="20" y="70" type="line"/>
      <point x="20" y="0" type="line"/>
      <point x="73" y="1"/>
      <point x="128" y="3"/>
    </contour>
    <component base="_LC-ascender-left-inserif"/>
  </outline>
</glyph>
<glyph name="m" format="2">
  <advance width="1037"/>
  <unicode hex="006D"/>
  <anchor x="106" y="260" name="#entry"/>
  <anchor x="286" y="260" name="#exit"/>
  <anchor x="-162" y="0" name="%entry"/>
  <anchor x="106" y="0" name="%exit"/>
  <anchor x="-1" y="0" name="^entry"/>
  <anchor x="383" y="0" name="^exit"/>
  <anchor x="520" y="0" name="bottom"/>
  <anchor x="286" y="260" name="reversedExit"/>
  <anchor x="106" y="260" name="stem"/>
  <anchor x="520" y="520" name="top"/>
  <anchor x="286" y="519" name="topright"/>
  <outline>
    <contour>
      <point x="196" y="3" type="curve"/>
      <point x="196" y="3" type="line"/>
      <point x="196" y="3" type="line"/>
      <point x="264" y="3"/>
      <point x="319" y="1"/>
      <point x="372" y="0" type="curve"/>
      <point x="372" y="70" type="line"/>
      <point x="348" y="73" type="line"/>
      <point x="295" y="80"/>
      <point x="286" y="91"/>
      <point x="286" y="137" type="curve"/>
      <point x="286" y="260" type="line"/>
      <point x="106" y="260" type="line"/>
      <point x="106" y="137" type="line"/>
      <point x="106" y="91"/>
      <point x="97" y="80"/>
      <point x="44" y="73" type="curve"/>
      <point x="20" y="70" type="line"/>
      <point x="20" y="0" type="line"/>
      <point x="73" y="1"/>
      <point x="128" y="3"/>
    </contour>
    <contour>
      <point x="106" y="260" type="line"/>
      <point x="286" y="260" type="line"/>
      <point x="286" y="519" type="line"/>
      <point x="286" y="530" type="line"/>
      <point x="241" y="522"/>
      <point x="187" y="517"/>
      <point x="115" y="517" type="curve"/>
      <point x="75" y="517"/>
      <point x="49" y="518"/>
      <point x="20" y="519" type="curve"/>
      <point x="20" y="449" type="line"/>
      <point x="44" y="446" type="line"/>
      <point x="97" y="439"/>
      <point x="106" y="428"/>
      <point x="106" y="382" type="curve"/>
    </contour>
    <contour>
      <point x="428" y="260" type="line"/>
      <point x="608" y="260" type="line"/>
      <point x="608" y="360" type="line" smooth="yes"/>
      <point x="608" y="473"/>
      <point x="553" y="533"/>
      <point x="448" y="533" type="curve" smooth="yes"/>
      <point x="354" y="533"/>
      <point x="287" y="483"/>
      <point x="237" y="333" type="curve"/>
      <point x="258" y="317" type="line"/>
      <point x="288" y="390"/>
      <point x="320" y="421"/>
      <point x="365" y="421" type="curve" smooth="yes"/>
      <point x="408" y="421"/>
      <point x="428" y="398"/>
      <point x="428" y="348" type="curve" smooth="yes"/>
    </contour>
    <contour>
      <point x="428" y="0" type="line"/>
      <point x="428" y="0" type="line"/>
      <point x="471" y="2"/>
      <point x="511" y="2"/>
      <point x="546" y="2" type="curve"/>
      <point x="579" y="2"/>
      <point x="647" y="1"/>
      <point x="694" y="0" type="curve"/>
      <point x="694" y="70" type="line"/>
      <point x="670" y="73" type="line"/>
      <point x="617" y="80"/>
      <point x="608" y="91"/>
      <point x="608" y="137" type="curve"/>
      <point x="608" y="260" type="line"/>
      <point x="428" y="260" type="line"/>
    </contour>
    <contour>
      <point x="750" y="260" type="line"/>
      <point x="930" y="260" type="line"/>
      <point x="930" y="360" type="line" smooth="yes"/>
      <point x="930" y="473"/>
      <point x="875" y="533"/>
      <point x="770" y="533" type="curve" smooth="yes"/>
      <point x="676" y="533"/>
      <point x="609" y="483"/>
      <point x="559" y="379" type="curve"/>
      <point x="580" y="317" type="line"/>
      <point x="610" y="390"/>
      <point x="642" y="421"/>
      <point x="687" y="421" type="curve" smooth="yes"/>
      <point x="730" y="421"/>
      <point x="750" y="398"/>
      <point x="750" y="348" type="curve" smooth="yes"/>
    </contour>
    <contour>
      <point x="751" y="0" type="line"/>
      <point x="751" y="0" type="line"/>
      <point x="794" y="2"/>
      <point x="834" y="2"/>
      <point x="869" y="2" type="curve"/>
      <point x="902" y="2"/>
      <point x="970" y="1"/>
      <point x="1017" y="0" type="curve"/>
      <point x="1017" y="70" type="line"/>
      <point x="993" y="73" type="line"/>
      <point x="940" y="80"/>
      <point x="931" y="91"/>
      <point x="931" y="137" type="curve"/>
      <point x="931" y="260" type="line"/>
      <point x="751" y="260" type="line"/>
    </contour>
  </outline>
</glyph>
<glyph name="o" format="2">
  <advance width="576"/>
  <unicode hex="006F"/>
  <anchor x="-116" y="260" name="#entry"/>
  <anchor x="288" y="0" name="bottom"/>
  <anchor x="288" y="260" name="center"/>
  <anchor x="394" y="0" name="ogonek"/>
  <anchor x="288" y="520" name="top"/>
  <anchor x="288" y="500" name="top_low_1"/>
  <anchor x="288" y="480" name="top_low_2"/>
  <anchor x="288" y="460" name="top_low_3"/>
  <anchor x="288" y="440" name="top_low_4"/>
  <anchor x="545" y="520" name="topright"/>
  <outline>
    <contour>
      <point x="288" y="-14" type="curve" smooth="yes"/>
      <point x="443" y="-14"/>
      <point x="545" y="77"/>
      <point x="545" y="259" type="curve" smooth="yes"/>
      <point x="545" y="441"/>
      <point x="443" y="533"/>
      <point x="288" y="533" type="curve" smooth="yes"/>
      <point x="133" y="533"/>
      <point x="31" y="441"/>
      <point x="31" y="259" type="curve" smooth="yes"/>
      <point x="31" y="77"/>
      <point x="133" y="-14"/>
    </contour>
    <contour>
      <point x="288" y="56" type="curve" smooth="yes"/>
      <point x="248" y="56"/>
      <point x="218" y="115"/>
      <point x="218" y="259" type="curve" smooth="yes"/>
      <point x="218" y="411"/>
      <point x="248" y="463"/>
      <point x="288" y="463" type="curve" smooth="yes"/>
      <point x="328" y="463"/>
      <point x="358" y="411"/>
      <point x="358" y="259" type="curve" smooth="yes"/>
      <point x="358" y="115"/>
      <point x="328" y="56"/>
    </contour>
  </outline>
</glyph>
<glyph name="p" format="2">
  <advance width="643"/>
  <unicode hex="0070"/>
  <anchor x="286" y="260" name="#entry"/>
  <anchor x="286" y="260" name="#exit"/>
  <anchor x="424" y="-231" name="bottom"/>
  <anchor x="356" y="261" name="center"/>
  <anchor x="106" y="0" name="lower-left"/>
  <anchor x="299" y="520" name="top"/>
  <anchor x="106" y="520" name="top-left"/>
  <outline>
    <contour>
      <point x="196" y="-228" type="curve"/>
      <point x="196" y="-228" type="line"/>
      <point x="196" y="-228" type="line"/>
      <point x="276" y="-228"/>
      <point x="340" y="-230"/>
      <point x="402" y="-231" type="curve"/>
      <point x="402" y="-161" type="line"/>
      <point x="378" y="-158" type="line"/>
      <point x="300" y="-148"/>
      <point x="286" y="-140"/>
      <point x="286" y="-94" type="curve"/>
      <point x="286" y="260" type="line"/>
      <point x="106" y="260" type="line"/>
      <point x="106" y="-94" type="line"/>
      <point x="106" y="-140"/>
      <point x="97" y="-151"/>
      <point x="44" y="-158" type="curve"/>
      <point x="20" y="-161" type="line"/>
      <point x="20" y="-231" type="line"/>
      <point x="73" y="-230"/>
      <point x="128" y="-228"/>
    </contour>
    <contour>
      <point x="419" y="534" type="curve" smooth="yes"/>
      <point x="348" y="534"/>
      <point x="294" y="499"/>
      <point x="268" y="427" type="curve"/>
      <point x="280" y="375" type="line"/>
      <point x="291" y="407"/>
      <point x="322" y="432"/>
      <point x="353" y="432" type="curve" smooth="yes"/>
      <point x="403" y="432"/>
      <point x="425" y="380"/>
      <point x="425" y="260" type="curve" smooth="yes"/>
      <point x="425" y="131"/>
      <point x="396" y="73"/>
      <point x="330" y="73" type="curve" smooth="yes"/>
      <point x="306" y="73"/>
      <point x="284" y="83"/>
      <point x="270" y="98" type="curve"/>
      <point x="259" y="39" type="line"/>
      <point x="282" y="5"/>
      <point x="327" y="-13"/>
      <point x="388" y="-13" type="curve" smooth="yes"/>
      <point x="531" y="-13"/>
      <point x="612" y="87"/>
      <point x="612" y="264" type="curve" smooth="yes"/>
      <point x="612" y="433"/>
      <point x="538" y="534"/>
    </contour>
    <component base="_n-1st-stroke-hook"/>
  </outline>
</glyph>
<glyph name="q" format="2">
  <advance width="643"/>
  <unicode hex="0071"/>
  <anchor x="357" y="260" name="#entry"/>
  <anchor x="357" y="260" name="#exit"/>
  <anchor x="344" y="0" name="bottom"/>
  <anchor x="537" y="0" name="bottom-right"/>
  <anchor x="287" y="259" name="center"/>
  <anchor x="537" y="0" name="lower-right"/>
  <outline>
    <contour>
      <point x="224" y="-14" type="curve" smooth="yes"/>
      <point x="295" y="-14"/>
      <point x="349" y="21"/>
      <point x="375" y="93" type="curve"/>
      <point x="363" y="145" type="line"/>
      <point x="352" y="113"/>
      <point x="321" y="88"/>
      <point x="290" y="88" type="curve" smooth="yes"/>
      <point x="240" y="88"/>
      <point x="218" y="140"/>
      <point x="218" y="260" type="curve" smooth="yes"/>
      <point x="218" y="389"/>
      <point x="247" y="447"/>
      <point x="313" y="447" type="curve" smooth="yes"/>
      <point x="337" y="447"/>
      <point x="359" y="437"/>
      <point x="373" y="422" type="curve"/>
      <point x="384" y="481" type="line"/>
      <point x="361" y="515"/>
      <point x="316" y="533"/>
      <point x="255" y="533" type="curve" smooth="yes"/>
      <point x="112" y="533"/>
      <point x="31" y="433"/>
      <point x="31" y="256" type="curve" smooth="yes"/>
      <point x="31" y="87"/>
      <point x="105" y="-14"/>
    </contour>
    <contour>
      <point x="447" y="-228" type="line"/>
      <point x="515" y="-228"/>
      <point x="570" y="-230"/>
      <point x="623" y="-231" type="curve"/>
      <point x="623" y="-161" type="line"/>
      <point x="599" y="-158" type="line"/>
      <point x="546" y="-151"/>
      <point x="537" y="-140"/>
      <point x="537" y="-94" type="curve"/>
      <point x="537" y="260" type="line"/>
      <point x="357" y="260" type="line"/>
      <point x="357" y="-94" type="line"/>
      <point x="357" y="-140"/>
      <point x="343" y="-148"/>
      <point x="265" y="-158" type="curve"/>
      <point x="241" y="-161" type="line"/>
      <point x="241" y="-231" type="line"/>
      <point x="303" y="-230"/>
      <point x="367" y="-228"/>
      <point x="447" y="-228" type="curve"/>
      <point x="447" y="-228" type="line"/>
    </contour>
    <component base="_LC-xheight-right-instroke" xOffset="207"/>
  </outline>
</glyph>
<glyph name="s" format="2">
  <advance width="508"/>
  <unicode hex="0073"/>
  <anchor x="441" y="0" name="^exit"/>
  <anchor x="257" y="0" name="bottom"/>
  <anchor x="254" y="259" name="center"/>
  <anchor x="247" y="520" name="top"/>
  <anchor x="247" y="500" name="top_low_1"/>
  <anchor x="247" y="480" name="top_low_2"/>
  <anchor x="247" y="460" name="top_low_3"/>
  <anchor x="247" y="440" name="top_low_4"/>
  <outline>
    <contour>
      <point x="283" y="-14" type="curve" smooth="yes"/>
      <point x="390" y="-14"/>
      <point x="458" y="45"/>
      <point x="458" y="152" type="curve" smooth="yes"/>
      <point x="458" y="249"/>
      <point x="407" y="301"/>
      <point x="296" y="333" type="curve" smooth="yes"/>
      <point x="219" y="355"/>
      <point x="195" y="375"/>
      <point x="195" y="409" type="curve" smooth="yes"/>
      <point x="195" y="440"/>
      <point x="217" y="459"/>
      <point x="253" y="459" type="curve" smooth="yes"/>
      <point x="304" y="459"/>
      <point x="344" y="421"/>
      <point x="367" y="342" type="curve"/>
      <point x="437" y="342" type="line"/>
      <point x="437" y="443"/>
      <point x="438" y="485"/>
      <point x="441" y="523" type="curve"/>
      <point x="371" y="523" type="line"/>
      <point x="366" y="505"/>
      <point x="358" y="496"/>
      <point x="346" y="496" type="curve" smooth="yes"/>
      <point x="322" y="496"/>
      <point x="291" y="533"/>
      <point x="218" y="533" type="curve" smooth="yes"/>
      <point x="119" y="533"/>
      <point x="54" y="464"/>
      <point x="54" y="371" type="curve" smooth="yes"/>
      <point x="54" y="283"/>
      <point x="107" y="217"/>
      <point x="223" y="180" type="curve" smooth="yes"/>
      <point x="294" y="157"/>
      <point x="314" y="138"/>
      <point x="314" y="105" type="curve" smooth="yes"/>
      <point x="314" y="77"/>
      <point x="293" y="61"/>
      <point x="257" y="61" type="curve" smooth="yes"/>
      <point x="192" y="61"/>
      <point x="148" y="105"/>
      <point x="124" y="193" type="curve"/>
      <point x="54" y="193" type="line"/>
      <point x="54" y="88"/>
      <point x="53" y="38"/>
      <point x="50" y="-4" type="curve"/>
      <point x="120" y="-4" type="line"/>
      <point x="127" y="15"/>
      <point x="136" y="23"/>
      <point x="149" y="23" type="curve" smooth="yes"/>
      <point x="176" y="23"/>
      <point x="205" y="-14"/>
    </contour>
  </outline>
</glyph>
<glyph name="u" format="2">
  <advance width="715"/>
  <unicode hex="0075"/>
  <anchor x="106" y="260" name="#entry"/>
  <anchor x="286" y="260" name="#exit"/>
  <anchor x="209" y="0" name="%entry"/>
  <anchor x="505" y="520" name="%exit"/>
  <anchor x="9" y="520" name="^entry"/>
  <anchor x="393" y="520" name="^exit"/>
  <anchor x="378" y="0" name="bottom"/>
  <anchor x="357" y="270" name="center"/>
  <anchor x="428" y="260" name="reversedExit"/>
  <anchor x="286" y="260" name="stem"/>
  <anchor x="336" y="520" name="top"/>
  <anchor x="336" y="500" name="top_low_1"/>
  <anchor x="336" y="480" name="top_low_2"/>
  <anchor x="336" y="460" name="top_low_3"/>
  <anchor x="608" y="520" name="topright"/>
  <outline>
    <contour>
      <point x="286" y="520" type="line"/>
      <point x="286" y="531" type="line"/>
      <point x="241" y="523"/>
      <point x="187" y="518"/>
      <point x="115" y="518" type="curve"/>
      <point x="75" y="518"/>
      <point x="49" y="519"/>
      <point x="20" y="520" type="curve"/>
      <point x="20" y="450" type="line"/>
      <point x="44" y="447" type="line"/>
      <point x="97" y="440"/>
      <point x="106" y="429"/>
      <point x="106" y="383" type="curve"/>
      <point x="106" y="260" type="line"/>
      <point x="286" y="260" type="line"/>
    </contour>
    <contour>
      <point x="286" y="260" type="line"/>
      <point x="106" y="260" type="line"/>
      <point x="106" y="160" type="line" smooth="yes"/>
      <point x="106" y="47"/>
      <point x="161" y="-13"/>
      <point x="266" y="-13" type="curve" smooth="yes"/>
      <point x="360" y="-13"/>
      <point x="427" y="37"/>
      <point x="477" y="187" type="curve"/>
      <point x="456" y="203" type="line"/>
      <point x="426" y="130"/>
      <point x="394" y="99"/>
      <point x="349" y="99" type="curve" smooth="yes"/>
      <point x="306" y="99"/>
      <point x="286" y="123"/>
      <point x="286" y="172" type="curve" smooth="yes"/>
    </contour>
    <contour>
      <point x="428" y="0" type="line"/>
      <point x="428" y="-11" type="line"/>
      <point x="473" y="-3"/>
      <point x="527" y="2"/>
      <point x="599" y="2" type="curve"/>
      <point x="639" y="2"/>
      <point x="665" y="1"/>
      <point x="694" y="0" type="curve"/>
      <point x="694" y="70" type="line"/>
      <point x="670" y="73" type="line"/>
      <point x="617" y="80"/>
      <point x="608" y="91"/>
      <point x="608" y="137" type="curve"/>
      <point x="608" y="260" type="line"/>
      <point x="428" y="260" type="line"/>
    </contour>
    <contour>
      <point x="608" y="520" type="line"/>
      <point x="608" y="531" type="line"/>
      <point x="564" y="523"/>
      <point x="512" y="518"/>
      <point x="447" y="518" type="curve"/>
      <point x="416" y="518"/>
      <point x="391" y="519"/>
      <point x="362" y="520" type="curve"/>
      <point x="362" y="450" type="line"/>
      <point x="378" y="448" type="line"/>
      <point x="418" y="443"/>
      <point x="428" y="428"/>
      <point x="428" y="383" type="curve"/>
      <point x="428" y="260" type="line"/>
      <point x="608" y="260" type="line"/>
    </contour>
  </outline>
</glyph>
<glyph name="v" format="2">
  <advance width="717"/>
  <unicode hex="0076"/>
  <anchor x="354" y="0" name="bottom"/>
  <anchor x="354" y="520" name="top"/>
  <outline>
    <contour>
      <point x="327" y="0" type="line"/>
      <point x="394" y="0" type="line"/>
      <point x="542" y="348" type="line"/>
      <point x="578" y="421"/>
      <point x="606" y="442"/>
      <point x="659" y="448" type="curve"/>
      <point x="677" y="450" type="line"/>
      <point x="677" y="520" type="line"/>
      <point x="636" y="518"/>
      <point x="589" y="517"/>
      <point x="542" y="517" type="curve"/>
      <point x="500" y="517"/>
      <point x="450" y="518"/>
      <point x="400" y="520" type="curve"/>
      <point x="400" y="450" type="line"/>
      <point x="421" y="448" type="line"/>
      <point x="481" y="440"/>
      <point x="495" y="409"/>
      <point x="451" y="314" type="curve"/>
      <point x="383" y="147" type="line"/>
      <point x="429" y="193" type="line"/>
      <point x="319" y="420" type="line"/>
      <point x="302" y="450"/>
      <point x="291" y="483"/>
      <point x="293" y="520" type="curve"/>
      <point x="263" y="518"/>
      <point x="233" y="517"/>
      <point x="203" y="517" type="curve"/>
      <point x="125" y="517"/>
      <point x="81" y="518"/>
      <point x="40" y="520" type="curve"/>
      <point x="40" y="449" type="line"/>
      <point x="93" y="444"/>
      <point x="120" y="430"/>
      <point x="147" y="382" type="curve"/>
    </contour>
  </outline>
</glyph>
<glyph name="w" format="2">
  <advance width="916"/>
  <unicode hex="0077"/>
  <anchor x="485" y="0" name="bottom"/>
  <anchor x="497" y="520" name="top"/>
  <outline>
    <contour>
      <point x="288" y="0" type="line"/>
      <point x="355" y="0" type="line"/>
      <point x="541" y="478" type="line"/>
      <point x="483" y="520" type="line"/>
      <point x="356" y="188" type="line"/>
      <point x="399" y="199" type="line"/>
      <point x="312" y="417" type="line"/>
      <point x="297" y="448"/>
      <point x="291" y="483"/>
      <point x="293" y="520" type="curve"/>
      <point x="263" y="518"/>
      <point x="233" y="517"/>
      <point x="203" y="517" type="curve"/>
      <point x="125" y="517"/>
      <point x="81" y="518"/>
      <point x="40" y="520" type="curve"/>
      <point x="40" y="449" type="line"/>
      <point x="93" y="444"/>
      <point x="115" y="428"/>
      <point x="138" y="378" type="curve"/>
    </contour>
    <contour>
      <point x="570" y="0" type="line"/>
      <point x="637" y="0" type="line"/>
      <point x="767" y="333" type="line"/>
      <point x="794" y="404"/>
      <point x="823" y="437"/>
      <point x="876" y="449" type="curve"/>
      <point x="876" y="520" type="line"/>
      <point x="861" y="519"/>
      <point x="828" y="517"/>
      <point x="803" y="517" type="curve"/>
      <point x="773" y="517"/>
      <point x="754" y="518"/>
      <point x="727" y="520" type="curve"/>
      <point x="733" y="485"/>
      <point x="725" y="436"/>
      <point x="701" y="369" type="curve"/>
      <point x="633" y="181" type="line"/>
      <point x="676" y="212" type="line"/>
      <point x="550" y="520" type="line"/>
      <point x="483" y="520" type="line"/>
      <point x="443" y="313" type="line"/>
    </contour>
  </outline>
</glyph>
<glyph name="x" format="2">
  <advance width="607"/>
  <unicode hex="0078"/>
  <anchor x="314" y="0" name="bottom"/>
  <anchor x="616" y="0" name="bottomright"/>
  <anchor x="320" y="520" name="top"/>
  <outline>
    <contour>
      <point x="349" y="0" type="curve"/>
      <point x="373" y="2"/>
      <point x="417" y="4"/>
      <point x="459" y="4" type="curve" smooth="yes"/>
      <point x="523" y="4"/>
      <point x="564" y="3"/>
      <point x="602" y="0" type="curve"/>
      <point x="602" y="71" type="line"/>
      <point x="559" y="75"/>
      <point x="535" y="89"/>
      <point x="497" y="142" type="curve" smooth="yes"/>
      <point x="300" y="416" type="line" smooth="yes"/>
      <point x="276" y="449"/>
      <point x="262" y="482"/>
      <point x="264" y="519" type="curve"/>
      <point x="240" y="517"/>
      <point x="196" y="515"/>
      <point x="154" y="515" type="curve" smooth="yes"/>
      <point x="90" y="515"/>
      <point x="49" y="516"/>
      <point x="11" y="519" type="curve"/>
      <point x="11" y="448" type="line"/>
      <point x="54" y="444"/>
      <point x="77" y="431"/>
      <point x="116" y="377" type="curve" smooth="yes"/>
      <point x="313" y="103" type="line" smooth="yes"/>
      <point x="337" y="70"/>
      <point x="351" y="37"/>
    </contour>
    <contour>
      <point x="-11" y="0" type="line"/>
      <point x="38" y="2"/>
      <point x="68" y="3"/>
      <point x="113" y="3" type="curve" smooth="yes"/>
      <point x="198" y="3"/>
      <point x="251" y="2"/>
      <point x="279" y="0" type="curve"/>
      <point x="279" y="70" type="line"/>
      <point x="221" y="84"/>
      <point x="217" y="135"/>
      <point x="260" y="181" type="curve" smooth="yes"/>
      <point x="296" y="219" type="line"/>
      <point x="252" y="268" type="line"/>
      <point x="129" y="147" type="line" smooth="yes"/>
      <point x="77" y="95"/>
      <point x="43" y="76"/>
      <point x="-11" y="70" type="curve"/>
    </contour>
    <contour>
      <point x="359" y="262" type="line"/>
      <point x="457" y="367" type="line" smooth="yes"/>
      <point x="508" y="421"/>
      <point x="539" y="440"/>
      <point x="591" y="449" type="curve"/>
      <point x="591" y="519" type="line"/>
      <point x="526" y="517"/>
      <point x="509" y="516"/>
      <point x="478" y="516" type="curve" smooth="yes"/>
      <point x="414" y="516"/>
      <point x="371" y="517"/>
      <point x="341" y="519" type="curve"/>
      <point x="341" y="449" type="line"/>
      <point x="395" y="442"/>
      <point x="394" y="404"/>
      <point x="350" y="356" type="curve" smooth="yes"/>
      <point x="313" y="315" type="line"/>
    </contour>
  </outline>
</glyph>
<glyph name="y" format="2">
  <advance width="704"/>
  <unicode hex="0079"/>
  <anchor x="-16" y="260" name="#entry"/>
  <anchor x="521" y="0" name="bottom"/>
  <anchor x="333" y="259" name="center"/>
  <anchor x="367" y="520" name="top"/>
  <outline>
    <contour>
      <point x="365" y="-83" type="line"/>
      <point x="387" y="-83" type="line"/>
      <point x="540" y="344" type="line"/>
      <point x="570" y="419"/>
      <point x="593" y="442"/>
      <point x="646" y="448" type="curve"/>
      <point x="664" y="450" type="line"/>
      <point x="664" y="520" type="line"/>
      <point x="623" y="518"/>
      <point x="576" y="517"/>
      <point x="529" y="517" type="curve"/>
      <point x="487" y="517"/>
      <point x="437" y="518"/>
      <point x="387" y="520" type="curve"/>
      <point x="387" y="450" type="line"/>
      <point x="408" y="448" type="line"/>
      <point x="468" y="440"/>
      <point x="490" y="407"/>
      <point x="451" y="309" type="curve"/>
      <point x="397" y="143" type="line"/>
      <point x="446" y="153" type="line"/>
      <point x="319" y="420" type="line"/>
      <point x="302" y="450"/>
      <point x="291" y="483"/>
      <point x="293" y="520" type="curve"/>
      <point x="263" y="518"/>
      <point x="233" y="517"/>
      <point x="203" y="517" type="curve"/>
      <point x="125" y="517"/>
      <point x="81" y="518"/>
      <point x="40" y="520" type="curve"/>
      <point x="40" y="449" type="line"/>
      <point x="93" y="444"/>
      <point x="120" y="430"/>
      <point x="147" y="381" type="curve"/>
    </contour>
    <contour>
      <point x="242" y="-239" type="curve" smooth="yes"/>
      <point x="305" y="-239"/>
      <point x="343" y="-209"/>
      <point x="367" y="-142" type="curve" smooth="yes"/>
      <point x="429" y="35" type="line"/>
      <point x="363" y="49" type="line"/>
      <point x="300" y="-131" type="line" smooth="yes"/>
      <point x="290" y="-158"/>
      <point x="281" y="-169"/>
      <point x="268" y="-169" type="curve" smooth="yes"/>
      <point x="258" y="-169"/>
      <point x="252" y="-162"/>
      <point x="252" y="-149" type="curve" smooth="yes"/>
      <point x="252" y="-130"/>
      <point x="265" y="-112"/>
      <point x="265" y="-90" type="curve" smooth="yes"/>
      <point x="265" y="-60"/>
      <point x="241" y="-40"/>
      <point x="204" y="-40" type="curve" smooth="yes"/>
      <point x="152" y="-40"/>
      <point x="115" y="-79"/>
      <point x="115" y="-133" type="curve" smooth="yes"/>
      <point x="115" y="-196"/>
      <point x="166" y="-239"/>
    </contour>
  </outline>
</glyph>
<glyph name="z" format="2">
  <advance width="472"/>
  <unicode hex="007A"/>
  <anchor x="240" y="0" name="bottom"/>
  <anchor x="236" y="269" name="center"/>
  <anchor x="248" y="520" name="top"/>
  <outline>
    <contour>
      <point x="35" y="0" type="line"/>
      <point x="83" y="2"/>
      <point x="138" y="3"/>
      <point x="188" y="3" type="curve" smooth="yes"/>
      <point x="241" y="3" type="line"/>
      <point x="308" y="3" type="line"/>
      <point x="350" y="3"/>
      <point x="392" y="3"/>
      <point x="434" y="0" type="curve"/>
      <point x="433" y="57"/>
      <point x="435" y="118"/>
      <point x="441" y="182" type="curve"/>
      <point x="368" y="182" type="line"/>
      <point x="347" y="81"/>
      <point x="335" y="70"/>
      <point x="241" y="70" type="curve"/>
      <point x="223" y="70" type="line"/>
      <point x="438" y="449" type="line"/>
      <point x="438" y="519" type="line"/>
      <point x="390" y="517"/>
      <point x="335" y="516"/>
      <point x="285" y="516" type="curve" smooth="yes"/>
      <point x="232" y="516" type="line"/>
      <point x="165" y="516" type="line"/>
      <point x="123" y="516"/>
      <point x="81" y="516"/>
      <point x="39" y="519" type="curve"/>
      <point x="40" y="462"/>
      <point x="38" y="401"/>
      <point x="32" y="337" type="curve"/>
      <point x="105" y="337" type="line"/>
      <point x="126" y="438"/>
      <point x="138" y="449"/>
      <point x="232" y="449" type="curve"/>
      <point x="250" y="449" type="line"/>
      <point x="35" y="70" type="line"/>
    </contour>
  </outline>
</glyph>
<glyph name="braceleft" format="2">
  <advance width="372"/>
  <unicode hex="007B"/>
  <outline>
    <contour>
      <point x="342" y="-191" type="curve"/>
      <point x="342" y="-122" type="line"/>
      <point x="278" y="-119"/>
      <point x="272" y="-113"/>
      <point x="272" y="47" type="curve" smooth="yes"/>
      <point x="272" y="216"/>
      <point x="233" y="267"/>
      <point x="139" y="299" type="curve"/>
      <point x="233" y="331"/>
      <point x="272" y="376"/>
      <point x="272" y="551" type="curve" smooth="yes"/>
      <point x="272" y="700"/>
      <point x="277" y="708"/>
      <point x="342" y="713" type="curve"/>
      <point x="342" y="782" type="line"/>
      <point x="149" y="782"/>
      <point x="92" y="728"/>
      <point x="92" y="551" type="curve" smooth="yes"/>
      <point x="92" y="343"/>
      <point x="83" y="333"/>
      <point x="16" y="333" type="curve" smooth="yes"/>
      <point x="11" y="333" type="line"/>
      <point x="11" y="265" type="line"/>
      <point x="16" y="265" type="line" smooth="yes"/>
      <point x="83" y="265"/>
      <point x="92" y="255"/>
      <point x="92" y="47" type="curve" smooth="yes"/>
      <point x="92" y="-137"/>
      <point x="144" y="-191"/>
    </contour>
  </outline>
</glyph>
<glyph name="asciitilde" format="2">
  <advance width="684"/>
  <unicode hex="007E"/>
  <anchor x="342" y="262" name="_center"/>
  <outline>
    <contour>
      <point x="467" y="172" type="curve" smooth="yes"/>
      <point x="563" y="172"/>
      <point x="624" y="246"/>
      <point x="634" y="340" type="curve"/>
      <point x="561" y="352" type="line"/>
      <point x="546" y="307"/>
      <point x="525" y="285"/>
      <point x="475" y="285" type="curve" smooth="yes"/>
      <point x="404" y="285"/>
      <point x="309" y="362"/>
      <point x="217" y="362" type="curve" smooth="yes"/>
      <point x="121" y="362"/>
      <point x="60" y="288"/>
      <point x="50" y="194" type="curve"/>
      <point x="123" y="182" type="line"/>
      <point x="138" y="227"/>
      <point x="159" y="249"/>
      <point x="209" y="249" type="curve" smooth="yes"/>
      <point x="280" y="249"/>
      <point x="368" y="172"/>
    </contour>
  </outline>
</glyph>
<glyph name="brokenbar" format="2">
  <advance width="274"/>
  <unicode hex="00A6"/>
  <outline>
    <contour>
      <point x="77" y="-231" type="line"/>
      <point x="197" y="-231" type="line"/>
      <point x="197" y="326" type="line"/>
      <point x="77" y="326" type="line"/>
    </contour>
    <contour>
      <point x="77" y="384" type="line"/>
      <point x="197" y="384" type="line"/>
      <point x="197" y="858" type="line"/>
      <point x="77" y="858" type="line"/>
    </contour>
  </outline>
</glyph>
<glyph name="section" format="2">
  <advance width="627"/>
  <unicode hex="00A7"/>
  <outline>
    <contour>
      <point x="465" y="66" type="line"/>
      <point x="562" y="114"/>
      <point x="597" y="164"/>
      <point x="597" y="230" type="curve" smooth="yes"/>
      <point x="597" y="320"/>
      <point x="528" y="368"/>
      <point x="410" y="447" type="curve" smooth="yes"/>
      <point x="318" y="509"/>
      <point x="274" y="541"/>
      <point x="274" y="587" type="curve" smooth="yes"/>
      <point x="274" y="621"/>
      <point x="300" y="649"/>
      <point x="354" y="649" type="curve" smooth="yes"/>
      <point x="394" y="649"/>
      <point x="419" y="635"/>
      <point x="419" y="611" type="curve" smooth="yes"/>
      <point x="419" y="582"/>
      <point x="390" y="567"/>
      <point x="390" y="528" type="curve" smooth="yes"/>
      <point x="390" y="493"/>
      <point x="419" y="471"/>
      <point x="456" y="471" type="curve" smooth="yes"/>
      <point x="516" y="471"/>
      <point x="547" y="518"/>
      <point x="547" y="568" type="curve" smooth="yes"/>
      <point x="547" y="661"/>
      <point x="464" y="722"/>
      <point x="336" y="722" type="curve" smooth="yes"/>
      <point x="195" y="722"/>
      <point x="94" y="655"/>
      <point x="94" y="548" type="curve" smooth="yes"/>
      <point x="94" y="464"/>
      <point x="146" y="407"/>
      <point x="279" y="320" type="curve" smooth="yes"/>
      <point x="427" y="224"/>
      <point x="444" y="199"/>
      <point x="444" y="165" type="curve" smooth="yes"/>
      <point x="444" y="140"/>
      <point x="433" y="121"/>
      <point x="416" y="106" type="curve"/>
    </contour>
    <contour>
      <point x="291" y="-239" type="curve" smooth="yes"/>
      <point x="432" y="-239"/>
      <point x="533" y="-172"/>
      <point x="533" y="-65" type="curve" smooth="yes"/>
      <point x="533" y="19"/>
      <point x="481" y="76"/>
      <point x="348" y="163" type="curve" smooth="yes"/>
      <point x="200" y="259"/>
      <point x="183" y="284"/>
      <point x="183" y="318" type="curve" smooth="yes"/>
      <point x="183" y="343"/>
      <point x="194" y="362"/>
      <point x="211" y="377" type="curve"/>
      <point x="162" y="417" type="line"/>
      <point x="65" y="369"/>
      <point x="30" y="319"/>
      <point x="30" y="253" type="curve" smooth="yes"/>
      <point x="30" y="163"/>
      <point x="99" y="115"/>
      <point x="217" y="36" type="curve" smooth="yes"/>
      <point x="309" y="-26"/>
      <point x="353" y="-58"/>
      <point x="353" y="-104" type="curve" smooth="yes"/>
      <point x="353" y="-138"/>
      <point x="327" y="-166"/>
      <point x="273" y="-166" type="curve" smooth="yes"/>
      <point x="233" y="-166"/>
      <point x="208" y="-152"/>
      <point x="208" y="-128" type="curve" smooth="yes"/>
      <point x="208" y="-99"/>
      <point x="237" y="-84"/>
      <point x="237" y="-45" type="curve" smooth="yes"/>
      <point x="237" y="-10"/>
      <point x="208" y="12"/>
      <point x="171" y="12" type="curve" smooth="yes"/>
      <point x="111" y="12"/>
      <point x="80" y="-35"/>
      <point x="80" y="-85" type="curve" smooth="yes"/>
      <point x="80" y="-178"/>
      <point x="163" y="-239"/>
    </contour>
  </outline>
</glyph>
<glyph name="copyright" format="2">
  <advance width="872"/>
  <unicode hex="00A9"/>
  <outline>
    <contour>
      <point x="437" y="-14" type="curve" smooth="yes"/>
      <point x="669" y="-14"/>
      <point x="835" y="152"/>
      <point x="835" y="384" type="curve" smooth="yes"/>
      <point x="835" y="616"/>
      <point x="669" y="782"/>
      <point x="437" y="782" type="curve" smooth="yes"/>
      <point x="205" y="782"/>
      <point x="39" y="616"/>
      <point x="39" y="384" type="curve" smooth="yes"/>
      <point x="39" y="152"/>
      <point x="205" y="-14"/>
    </contour>
    <contour>
      <point x="438" y="143" type="curve" smooth="yes"/>
      <point x="541" y="143"/>
      <point x="615" y="194"/>
      <point x="653" y="288" type="curve"/>
      <point x="594" y="326" type="line"/>
      <point x="562" y="286"/>
      <point x="530" y="268"/>
      <point x="482" y="268" type="curve" smooth="yes"/>
      <point x="426" y="268"/>
      <point x="385" y="313"/>
      <point x="385" y="393" type="curve" smooth="yes"/>
      <point x="385" y="481"/>
      <point x="419" y="528"/>
      <point x="473" y="528" type="curve" smooth="yes"/>
      <point x="495" y="528"/>
      <point x="511" y="522"/>
      <point x="511" y="505" type="curve" smooth="yes"/>
      <point x="511" y="476"/>
      <point x="479" y="462"/>
      <point x="479" y="425" type="curve" smooth="yes"/>
      <point x="479" y="392"/>
      <point x="508" y="370"/>
      <point x="552" y="370" type="curve" smooth="yes"/>
      <point x="614" y="370"/>
      <point x="656" y="407"/>
      <point x="656" y="469" type="curve" smooth="yes"/>
      <point x="656" y="557"/>
      <point x="567" y="626"/>
      <point x="457" y="626" type="curve" smooth="yes"/>
      <point x="308" y="626"/>
      <point x="198" y="523"/>
      <point x="198" y="379" type="curve" smooth="yes"/>
      <point x="198" y="240"/>
      <point x="301" y="143"/>
    </contour>
    <contour>
      <point x="437" y="68" type="curve" smooth="yes"/>
      <point x="257" y="68"/>
      <point x="129" y="200"/>
      <point x="129" y="384" type="curve" smooth="yes"/>
      <point x="129" y="568"/>
      <point x="257" y="700"/>
      <point x="437" y="700" type="curve" smooth="yes"/>
      <point x="617" y="700"/>
      <point x="745" y="568"/>
      <point x="745" y="384" type="curve" smooth="yes"/>
      <point x="745" y="200"/>
      <point x="617" y="68"/>
    </contour>
  </outline>
</glyph>
<glyph name="ordfeminine" format="2">
  <advance width="491"/>
  <unicode hex="00AA"/>
  <outline>
    <contour>
      <point x="151" y="360" type="curve" smooth="yes"/>
      <point x="208" y="360"/>
      <point x="253" y="380"/>
      <point x="282" y="419" type="curve"/>
      <point x="283" y="380"/>
      <point x="312" y="360"/>
      <point x="368" y="360" type="curve" smooth="yes"/>
      <point x="418" y="360"/>
      <point x="455" y="377"/>
      <point x="482" y="412" type="curve"/>
      <point x="457" y="447" type="line"/>
      <point x="450" y="441"/>
      <point x="445" y="439"/>
      <point x="437" y="439" type="curve" smooth="yes"/>
      <point x="427" y="439"/>
      <point x="423" y="444"/>
      <point x="423" y="458" type="curve" smooth="yes"/>
      <point x="423" y="598" type="line" smooth="yes"/>
      <point x="423" y="686"/>
      <point x="372" y="723"/>
      <point x="249" y="723" type="curve" smooth="yes"/>
      <point x="134" y="723"/>
      <point x="60" y="687"/>
      <point x="60" y="631" type="curve" smooth="yes"/>
      <point x="60" y="598"/>
      <point x="85" y="579"/>
      <point x="127" y="579" type="curve" smooth="yes"/>
      <point x="161" y="579"/>
      <point x="184" y="593"/>
      <point x="184" y="613" type="curve" smooth="yes"/>
      <point x="184" y="626"/>
      <point x="177" y="634"/>
      <point x="177" y="647" type="curve" smooth="yes"/>
      <point x="177" y="661"/>
      <point x="191" y="669"/>
      <point x="215" y="669" type="curve" smooth="yes"/>
      <point x="257" y="669"/>
      <point x="282" y="648"/>
      <point x="282" y="613" type="curve" smooth="yes"/>
      <point x="282" y="608" type="line" smooth="yes"/>
      <point x="282" y="551"/>
      <point x="38" y="595"/>
      <point x="38" y="451" type="curve" smooth="yes"/>
      <point x="38" y="393"/>
      <point x="79" y="360"/>
    </contour>
    <contour>
      <point x="227" y="435" type="curve" smooth="yes"/>
      <point x="197" y="435"/>
      <point x="181" y="448"/>
      <point x="181" y="471" type="curve" smooth="yes"/>
      <point x="181" y="529"/>
      <point x="254" y="515"/>
      <point x="282" y="555" type="curve"/>
      <point x="282" y="456" type="line"/>
      <point x="271" y="443"/>
      <point x="250" y="435"/>
    </contour>
  </outline>
</glyph>
<glyph name="logicalnot" format="2">
  <advance width="627"/>
  <unicode hex="00AC"/>
  <outline>
    <contour>
      <point x="478" y="50" type="line"/>
      <point x="564" y="50" type="line"/>
      <point x="564" y="305" type="line"/>
      <point x="63" y="305" type="line"/>
      <point x="63" y="225" type="line"/>
      <point x="478" y="225" type="line"/>
    </contour>
  </outline>
</glyph>
<glyph name="registered" format="2">
  <advance width="701"/>
  <unicode hex="00AE"/>
  <outline>
    <contour>
      <point x="351" y="210" type="curve" smooth="yes"/>
      <point x="513" y="210"/>
      <point x="644" y="341"/>
      <point x="644" y="503" type="curve" smooth="yes"/>
      <point x="644" y="665"/>
      <point x="513" y="796"/>
      <point x="351" y="796" type="curve" smooth="yes"/>
      <point x="189" y="796"/>
      <point x="58" y="665"/>
      <point x="58" y="503" type="curve" smooth="yes"/>
      <point x="58" y="341"/>
      <point x="189" y="210"/>
    </contour>
    <contour>
      <point x="351" y="259" type="curve" smooth="yes"/>
      <point x="219" y="259"/>
      <point x="112" y="369"/>
      <point x="112" y="503" type="curve" smooth="yes"/>
      <point x="112" y="637"/>
      <point x="219" y="747"/>
      <point x="351" y="747" type="curve" smooth="yes"/>
      <point x="483" y="747"/>
      <point x="590" y="637"/>
      <point x="590" y="503" type="curve" smooth="yes"/>
      <point x="590" y="369"/>
      <point x="483" y="259"/>
    </contour>
    <contour>
      <point x="193" y="352" type="line"/>
      <point x="219" y="353"/>
      <point x="245" y="353"/>
      <point x="289" y="353" type="curve" smooth="yes"/>
      <point x="339" y="353"/>
      <point x="355" y="353"/>
      <point x="380" y="352" type="curve"/>
      <point x="380" y="397" type="line"/>
      <point x="341" y="399"/>
      <point x="337" y="403"/>
      <point x="337" y="434" type="curve" smooth="yes"/>
      <point x="337" y="621" type="line"/>
      <point x="351" y="621" type="line" smooth="yes"/>
      <point x="384" y="621"/>
      <point x="398" y="608"/>
      <point x="398" y="578" type="curve" smooth="yes"/>
      <point x="398" y="547"/>
      <point x="382" y="531"/>
      <point x="351" y="531" type="curve" smooth="yes"/>
      <point x="288" y="531" type="line"/>
      <point x="288" y="485" type="line"/>
      <point x="368" y="485" type="line" smooth="yes"/>
      <point x="454" y="485"/>
      <point x="501" y="518"/>
      <point x="501" y="579" type="curve" smooth="yes"/>
      <point x="501" y="637"/>
      <point x="457" y="666"/>
      <point x="367" y="666" type="curve" smooth="yes"/>
      <point x="333" y="666"/>
      <point x="317" y="665"/>
      <point x="291" y="665" type="curve" smooth="yes"/>
      <point x="259" y="665"/>
      <point x="224" y="665"/>
      <point x="193" y="666" type="curve"/>
      <point x="193" y="621" type="line"/>
      <point x="232" y="619"/>
      <point x="236" y="615"/>
      <point x="236" y="583" type="curve" smooth="yes"/>
      <point x="236" y="434" type="line" smooth="yes"/>
      <point x="236" y="403"/>
      <point x="232" y="399"/>
      <point x="193" y="397" type="curve"/>
    </contour>
    <contour>
      <point x="471" y="347" type="curve" smooth="yes"/>
      <point x="498" y="347"/>
      <point x="523" y="355"/>
      <point x="538" y="368" type="curve"/>
      <point x="520" y="405" type="line"/>
      <point x="517" y="403"/>
      <point x="512" y="401"/>
      <point x="508" y="401" type="curve" smooth="yes"/>
      <point x="502" y="401"/>
      <point x="498" y="406"/>
      <point x="495" y="417" type="curve" smooth="yes"/>
      <point x="488" y="440" type="line" smooth="yes"/>
      <point x="480" y="467"/>
      <point x="460" y="490"/>
      <point x="384" y="498" type="curve"/>
      <point x="345" y="504" type="line"/>
      <point x="347" y="485" type="line"/>
      <point x="372" y="485"/>
      <point x="381" y="476"/>
      <point x="386" y="448" type="curve" smooth="yes"/>
      <point x="392" y="412" type="line" smooth="yes"/>
      <point x="399" y="369"/>
      <point x="425" y="347"/>
    </contour>
  </outline>
</glyph>
<glyph name="degree" format="2">
  <advance width="369"/>
  <unicode hex="00B0"/>
  <outline>
    <contour>
      <point x="184" y="503" type="curve" smooth="yes"/>
      <point x="275" y="503"/>
      <point x="342" y="570"/>
      <point x="342" y="660" type="curve" smooth="yes"/>
      <point x="342" y="749"/>
      <point x="275" y="816"/>
      <point x="184" y="816" type="curve" smooth="yes"/>
      <point x="94" y="816"/>
      <point x="27" y="749"/>
      <point x="27" y="660" type="curve" smooth="yes"/>
      <point x="27" y="570"/>
      <point x="94" y="503"/>
    </contour>
    <contour>
      <point x="184" y="570" type="curve" smooth="yes"/>
      <point x="136" y="570"/>
      <point x="102" y="607"/>
      <point x="102" y="659" type="curve" smooth="yes"/>
      <point x="102" y="709"/>
      <point x="138" y="749"/>
      <point x="184" y="749" type="curve" smooth="yes"/>
      <point x="230" y="749"/>
      <point x="267" y="709"/>
      <point x="267" y="659" type="curve" smooth="yes"/>
      <point x="267" y="608"/>
      <point x="232" y="570"/>
    </contour>
  </outline>
</glyph>
<glyph name="paragraph" format="2">
  <advance width="820"/>
  <unicode hex="00B6"/>
  <outline>
    <contour>
      <point x="345" y="-231" type="line"/>
      <point x="390" y="-231"/>
      <point x="475" y="-228"/>
      <point x="580" y="-228" type="curve" smooth="yes"/>
      <point x="664" y="-228"/>
      <point x="730" y="-230"/>
      <point x="790" y="-231" type="curve"/>
      <point x="790" y="-161" type="line"/>
      <point x="702" y="-158"/>
      <point x="689" y="-147"/>
      <point x="689" y="-75" type="curve" smooth="yes"/>
      <point x="689" y="552" type="line" smooth="yes"/>
      <point x="689" y="623"/>
      <point x="703" y="635"/>
      <point x="790" y="638" type="curve"/>
      <point x="790" y="708" type="line"/>
      <point x="757" y="706"/>
      <point x="502" y="708"/>
      <point x="467" y="708" type="curve" smooth="yes"/>
      <point x="171" y="708"/>
      <point x="37" y="589"/>
      <point x="37" y="412" type="curve" smooth="yes"/>
      <point x="37" y="245"/>
      <point x="156" y="107"/>
      <point x="486" y="107" type="curve"/>
      <point x="486" y="-68" type="line" smooth="yes"/>
      <point x="486" y="-148"/>
      <point x="466" y="-161"/>
      <point x="345" y="-161" type="curve"/>
    </contour>
    <contour>
      <point x="487" y="208" type="line"/>
      <point x="478" y="208"/>
      <point x="447" y="259"/>
      <point x="441" y="328" type="curve"/>
      <point x="351" y="270"/>
      <point x="304" y="248"/>
      <point x="286" y="250" type="curve"/>
      <point x="286" y="265"/>
      <point x="313" y="304"/>
      <point x="387" y="379" type="curve"/>
      <point x="249" y="381"/>
      <point x="171" y="398"/>
      <point x="166" y="411" type="curve"/>
      <point x="171" y="422"/>
      <point x="249" y="442"/>
      <point x="387" y="444" type="curve"/>
      <point x="313" y="519"/>
      <point x="285" y="558"/>
      <point x="286" y="574" type="curve"/>
      <point x="304" y="577"/>
      <point x="350" y="554"/>
      <point x="441" y="495" type="curve"/>
      <point x="447" y="561"/>
      <point x="478" y="616"/>
      <point x="487" y="616" type="curve"/>
    </contour>
  </outline>
</glyph>
<glyph name="AE" format="2">
  <advance width="962"/>
  <unicode hex="00C6"/>
  <anchor x="463" y="0" name="bottom"/>
  <anchor x="496" y="708" name="top"/>
  <anchor x="496" y="688" name="top_low_1"/>
  <anchor x="496" y="668" name="top_low_2"/>
  <anchor x="496" y="648" name="top_low_3"/>
  <outline>
    <contour>
      <point x="-17" y="0" type="line"/>
      <point x="18" y="2"/>
      <point x="60" y="3"/>
      <point x="103" y="3" type="curve" smooth="yes"/>
      <point x="148" y="3"/>
      <point x="183" y="2"/>
      <point x="264" y="0" type="curve"/>
      <point x="264" y="70" type="line"/>
      <point x="169" y="92"/>
      <point x="161" y="130"/>
      <point x="227" y="238" type="curve" smooth="yes"/>
      <point x="553" y="771" type="line"/>
      <point x="479" y="771" type="line"/>
      <point x="131" y="203" type="line" smooth="yes"/>
      <point x="81" y="121"/>
      <point x="46" y="90"/>
      <point x="-17" y="70" type="curve"/>
    </contour>
    <contour>
      <point x="240" y="321" type="line"/>
      <point x="745" y="321" type="line"/>
      <point x="745" y="391" type="line"/>
      <point x="280" y="391" type="line"/>
    </contour>
    <contour>
      <point x="507" y="3" type="curve"/>
      <point x="524" y="3" type="line"/>
      <point x="672" y="3" type="line"/>
      <point x="783" y="3"/>
      <point x="853" y="2"/>
      <point x="904" y="0" type="curve"/>
      <point x="903" y="87"/>
      <point x="907" y="181"/>
      <point x="915" y="280" type="curve"/>
      <point x="842" y="280" type="line"/>
      <point x="808" y="144"/>
      <point x="752" y="73"/>
      <point x="684" y="73" type="curve"/>
      <point x="675" y="73" type="line" smooth="yes"/>
      <point x="632" y="73"/>
      <point x="624" y="83"/>
      <point x="624" y="136" type="curve" smooth="yes"/>
      <point x="624" y="635" type="line"/>
      <point x="633" y="635" type="line"/>
      <point x="721" y="635"/>
      <point x="763" y="606"/>
      <point x="791" y="508" type="curve"/>
      <point x="864" y="508" type="line"/>
      <point x="860" y="579"/>
      <point x="858" y="646"/>
      <point x="859" y="708" type="curve"/>
      <point x="810" y="706"/>
      <point x="742" y="705"/>
      <point x="635" y="705" type="curve"/>
      <point x="524" y="705" type="line"/>
      <point x="507" y="705" type="line"/>
      <point x="460" y="705"/>
      <point x="375" y="706"/>
      <point x="321" y="708" type="curve"/>
      <point x="321" y="638" type="line"/>
      <point x="353" y="634" type="line"/>
      <point x="409" y="627"/>
      <point x="421" y="616"/>
      <point x="421" y="552" type="curve"/>
      <point x="421" y="156" type="line"/>
      <point x="421" y="91"/>
      <point x="413" y="78"/>
      <point x="368" y="72" type="curve"/>
      <point x="351" y="70" type="line"/>
      <point x="351" y="0" type="line"/>
      <point x="396" y="2"/>
      <point x="467" y="3"/>
    </contour>
    <contour>
      <point x="712" y="214" type="curve"/>
      <point x="785" y="214" type="line"/>
      <point x="781" y="266"/>
      <point x="780" y="303"/>
      <point x="780" y="356" type="curve" smooth="yes"/>
      <point x="780" y="409"/>
      <point x="781" y="446"/>
      <point x="785" y="498" type="curve"/>
      <point x="712" y="498" type="line"/>
      <point x="703" y="426"/>
      <point x="677" y="391"/>
      <point x="631" y="391" type="curve"/>
      <point x="631" y="321" type="line"/>
      <point x="677" y="321"/>
      <point x="703" y="286"/>
    </contour>
  </outline>
</glyph>
<glyph name="germandbls" format="2">
  <advance width="737"/>
  <unicode hex="00DF"/>
  <outline>
    <contour>
      <point x="480" y="-14" type="curve" smooth="yes"/>
      <point x="617" y="-14"/>
      <point x="711" y="71"/>
      <point x="711" y="197" type="curve" smooth="yes"/>
      <point x="711" y="315"/>
      <point x="629" y="399"/>
      <point x="480" y="433" type="curve"/>
      <point x="577" y="478"/>
      <point x="620" y="533"/>
      <point x="620" y="610" type="curve" smooth="yes"/>
      <point x="620" y="717"/>
      <point x="530" y="782"/>
      <point x="382" y="782" type="curve" smooth="yes"/>
      <point x="203" y="782"/>
      <point x="106" y="687"/>
      <point x="106" y="512" type="curve" smooth="yes"/>
      <point x="106" y="137" type="line"/>
      <point x="106" y="91"/>
      <point x="97" y="80"/>
      <point x="44" y="73" type="curve"/>
      <point x="20" y="70" type="line"/>
      <point x="20" y="0" type="line"/>
      <point x="49" y="1"/>
      <point x="75" y="2"/>
      <point x="115" y="2" type="curve"/>
      <point x="187" y="2"/>
      <point x="241" y="-3"/>
      <point x="286" y="-11" type="curve"/>
      <point x="286" y="0" type="line"/>
      <point x="286" y="583" type="line" smooth="yes"/>
      <point x="286" y="671"/>
      <point x="314" y="717"/>
      <point x="368" y="717" type="curve" smooth="yes"/>
      <point x="421" y="717"/>
      <point x="450" y="674"/>
      <point x="450" y="597" type="curve" smooth="yes"/>
      <point x="450" y="548"/>
      <point x="439" y="492"/>
      <point x="423" y="461" type="curve"/>
      <point x="402" y="466"/>
      <point x="390" y="468"/>
      <point x="381" y="468" type="curve" smooth="yes"/>
      <point x="349" y="468"/>
      <point x="329" y="452"/>
      <point x="329" y="427" type="curve" smooth="yes"/>
      <point x="329" y="401"/>
      <point x="349" y="384"/>
      <point x="378" y="384" type="curve" smooth="yes"/>
      <point x="392" y="384"/>
      <point x="408" y="388"/>
      <point x="423" y="395" type="curve"/>
      <point x="482" y="366"/>
      <point x="524" y="279"/>
      <point x="524" y="184" type="curve" smooth="yes"/>
      <point x="524" y="108"/>
      <point x="496" y="55"/>
      <point x="457" y="55" type="curve" smooth="yes"/>
      <point x="445" y="55"/>
      <point x="439" y="60"/>
      <point x="439" y="71" type="curve" smooth="yes"/>
      <point x="439" y="97"/>
      <point x="478" y="122"/>
      <point x="478" y="168" type="curve" smooth="yes"/>
      <point x="478" y="204"/>
      <point x="453" y="227"/>
      <point x="414" y="227" type="curve" smooth="yes"/>
      <point x="359" y="227"/>
      <point x="321" y="182"/>
      <point x="321" y="117" type="curve" smooth="yes"/>
      <point x="321" y="34"/>
      <point x="379" y="-14"/>
    </contour>
  </outline>
</glyph>
<glyph name="ae" format="2">
  <advance width="813"/>
  <unicode hex="00E6"/>
  <anchor x="423" y="0" name="bottom"/>
  <anchor x="638" y="0" name="ogonek"/>
  <anchor x="417" y="520" name="top"/>
  <outline>
    <contour>
      <point x="561" y="-14" type="curve" smooth="yes"/>
      <point x="670" y="-14"/>
      <point x="747" y="43"/>
      <point x="785" y="156" type="curve"/>
      <point x="717" y="186" type="line"/>
      <point x="690" y="128"/>
      <point x="656" y="96"/>
      <point x="609" y="96" type="curve" smooth="yes"/>
      <point x="546" y="96"/>
      <point x="509" y="162"/>
      <point x="509" y="273" type="curve" smooth="yes"/>
      <point x="509" y="299"/>
      <point x="509" y="306"/>
      <point x="510" y="314" type="curve"/>
      <point x="506" y="322" type="line"/>
      <point x="508" y="408"/>
      <point x="534" y="460"/>
      <point x="576" y="460" type="curve" smooth="yes"/>
      <point x="617" y="460"/>
      <point x="637" y="416"/>
      <point x="634" y="333" type="curve"/>
      <point x="452" y="333" type="line"/>
      <point x="454" y="264" type="line"/>
      <point x="781" y="264" type="line"/>
      <point x="788" y="448"/>
      <point x="726" y="533"/>
      <point x="580" y="533" type="curve" smooth="yes"/>
      <point x="422" y="533"/>
      <point x="329" y="431"/>
      <point x="329" y="258" type="curve" smooth="yes"/>
      <point x="329" y="88"/>
      <point x="417" y="-14"/>
    </contour>
    <contour>
      <point x="266" y="98" type="curve" smooth="yes"/>
      <point x="232" y="98"/>
      <point x="213" y="116"/>
      <point x="213" y="150" type="curve" smooth="yes"/>
      <point x="213" y="222"/>
      <point x="301" y="231"/>
      <point x="329" y="269" type="curve"/>
      <point x="329" y="258" type="line"/>
      <point x="354" y="146" type="line"/>
      <point x="331" y="116"/>
      <point x="299" y="98"/>
    </contour>
    <contour>
      <point x="191" y="-14" type="curve" smooth="yes"/>
      <point x="281" y="-14"/>
      <point x="351" y="27"/>
      <point x="392" y="102" type="curve"/>
      <point x="472" y="343" type="line"/>
      <point x="472" y="488"/>
      <point x="416" y="533"/>
      <point x="279" y="533" type="curve" smooth="yes"/>
      <point x="146" y="533"/>
      <point x="54" y="476"/>
      <point x="54" y="392" type="curve" smooth="yes"/>
      <point x="54" y="342"/>
      <point x="85" y="312"/>
      <point x="146" y="312" type="curve" smooth="yes"/>
      <point x="189" y="312"/>
      <point x="221" y="332"/>
      <point x="221" y="360" type="curve" smooth="yes"/>
      <point x="221" y="387"/>
      <point x="200" y="410"/>
      <point x="200" y="431" type="curve" smooth="yes"/>
      <point x="200" y="451"/>
      <point x="220" y="463"/>
      <point x="253" y="463" type="curve" smooth="yes"/>
      <point x="304" y="463"/>
      <point x="330" y="436"/>
      <point x="330" y="381" type="curve" smooth="yes"/>
      <point x="330" y="370" type="line" smooth="yes"/>
      <point x="330" y="265"/>
      <point x="36" y="291"/>
      <point x="36" y="113" type="curve" smooth="yes"/>
      <point x="36" y="34"/>
      <point x="95" y="-14"/>
    </contour>
  </outline>
</glyph>
<glyph name="eth" format="2">
  <advance width="574"/>
  <unicode hex="00F0"/>
  <outline>
    <contour>
      <point x="274" y="-14" type="curve" smooth="yes"/>
      <point x="449" y="-14"/>
      <point x="542" y="89"/>
      <point x="542" y="285" type="curve" smooth="yes"/>
      <point x="542" y="532"/>
      <point x="396" y="713"/>
      <point x="142" y="782" type="curve"/>
      <point x="120" y="721" type="line"/>
      <point x="288" y="662"/>
      <point x="358" y="531"/>
      <point x="358" y="278" type="curve" smooth="yes"/>
      <point x="358" y="131"/>
      <point x="335" y="56"/>
      <point x="289" y="56" type="curve" smooth="yes"/>
      <point x="245" y="56"/>
      <point x="218" y="125"/>
      <point x="218" y="240" type="curve" smooth="yes"/>
      <point x="218" y="359"/>
      <point x="247" y="412"/>
      <point x="311" y="412" type="curve" smooth="yes"/>
      <point x="336" y="412"/>
      <point x="358" y="403"/>
      <point x="373" y="387" type="curve"/>
      <point x="364" y="446" type="line"/>
      <point x="345" y="480"/>
      <point x="303" y="498"/>
      <point x="245" y="498" type="curve" smooth="yes"/>
      <point x="110" y="498"/>
      <point x="31" y="402"/>
      <point x="31" y="239" type="curve" smooth="yes"/>
      <point x="31" y="72"/>
      <point x="114" y="-14"/>
    </contour>
    <contour>
      <point x="140" y="541" type="line"/>
      <point x="325" y="631" type="line"/>
      <point x="288" y="685" type="line"/>
      <point x="111" y="599" type="line"/>
    </contour>
    <contour>
      <point x="325" y="631" type="line"/>
      <point x="487" y="710" type="line"/>
      <point x="458" y="768" type="line"/>
      <point x="288" y="685" type="line"/>
    </contour>
  </outline>
</glyph>
<glyph name="divide" format="2">
  <advance width="627"/>
  <unicode hex="00F7"/>
  <outline>
    <contour>
      <point x="313" y="13" type="curve" smooth="yes"/>
      <point x="362" y="13"/>
      <point x="402" y="53"/>
      <point x="402" y="102" type="curve" smooth="yes"/>
      <point x="402" y="150"/>
      <point x="362" y="190"/>
      <point x="313" y="190" type="curve" smooth="yes"/>
      <point x="265" y="190"/>
      <point x="225" y="150"/>
      <point x="225" y="102" type="curve" smooth="yes"/>
      <point x="225" y="53"/>
      <point x="265" y="13"/>
    </contour>
    <contour>
      <point x="313" y="342" type="curve" smooth="yes"/>
      <point x="362" y="342"/>
      <point x="402" y="380"/>
      <point x="402" y="430" type="curve" smooth="yes"/>
      <point x="402" y="478"/>
      <point x="362" y="518"/>
      <point x="313" y="518" type="curve" smooth="yes"/>
      <point x="265" y="518"/>
      <point x="225" y="478"/>
      <point x="225" y="430" type="curve" smooth="yes"/>
      <point x="225" y="380"/>
      <point x="265" y="342"/>
    </contour>
    <component base="minus"/>
  </outline>
</glyph>
<glyph name="Aogonek" format="2">
  <advance width="818"/>
  <unicode hex="0104"/>
  <anchor x="401" y="354" name="center"/>
  <anchor x="401" y="708" name="top"/>
  <anchor x="401" y="688" name="top_low_1"/>
  <anchor x="401" y="668" name="top_low_2"/>
  <anchor x="401" y="648" name="top_low_3"/>
  <outline>
    <contour>
      <point x="225" y="206" type="curve"/>
      <point x="354" y="508" type="line"/>
      <point x="302" y="515" type="line"/>
      <point x="506" y="101" type="line"/>
      <point x="537" y="39"/>
      <point x="531" y="3"/>
      <point x="470" y="-39" type="curve"/>
      <point x="400" y="-88"/>
      <point x="372" y="-121"/>
      <point x="372" y="-164" type="curve"/>
      <point x="373" y="-210"/>
      <point x="415" y="-240"/>
      <point x="482" y="-240" type="curve"/>
      <point x="530" y="-240"/>
      <point x="577" y="-223"/>
      <point x="615" y="-191" type="curve"/>
      <point x="589" y="-137" type="line"/>
      <point x="572" y="-146"/>
      <point x="558" y="-150"/>
      <point x="542" y="-150" type="curve"/>
      <point x="519" y="-150"/>
      <point x="505" y="-138"/>
      <point x="505" y="-116" type="curve"/>
      <point x="505" y="-50"/>
      <point x="574" y="9"/>
      <point x="822" y="0" type="curve"/>
      <point x="822" y="70" type="line"/>
      <point x="764" y="71"/>
      <point x="731" y="99"/>
      <point x="698" y="166" type="curve"/>
      <point x="431" y="708" type="line"/>
      <point x="365" y="708" type="line"/>
      <point x="144" y="196" type="line"/>
      <point x="105" y="103"/>
      <point x="72" y="80"/>
      <point x="-8" y="72" type="curve"/>
      <point x="-27" y="70" type="line"/>
      <point x="-27" y="0" type="line"/>
      <point x="20" y="2"/>
      <point x="74" y="3"/>
      <point x="128" y="3" type="curve"/>
      <point x="181" y="3"/>
      <point x="243" y="2"/>
      <point x="306" y="0" type="curve"/>
      <point x="306" y="70" type="line"/>
      <point x="279" y="73" type="line"/>
      <point x="204" y="81"/>
      <point x="190" y="121"/>
    </contour>
    <contour>
      <point x="176" y="193" type="line"/>
      <point x="509" y="193" type="line"/>
      <point x="474" y="263" type="line"/>
      <point x="206" y="263" type="line"/>
    </contour>
  </outline>
</glyph>
<glyph name="idotless" format="2">
  <advance width="393"/>
  <unicode hex="0131"/>
  <anchor x="106" y="260" name="#entry"/>
  <anchor x="286" y="260" name="#exit"/>
  <anchor x="-162" y="0" name="%entry"/>
  <anchor x="106" y="0" name="%exit"/>
  <anchor x="-1" y="0" name="^entry"/>
  <anchor x="383" y="0" name="^exit"/>
  <anchor x="199" y="0" name="bottom"/>
  <anchor x="196" y="259" name="center"/>
  <anchor x="296" y="0" name="ogonek"/>
  <anchor x="106" y="260" name="stem"/>
  <anchor x="195" y="520" name="top"/>
  <anchor x="195" y="500" name="top_low_1"/>
  <anchor x="195" y="480" name="top_low_2"/>
  <anchor x="195" y="460" name="top_low_3"/>
  <anchor x="286" y="519" name="topright"/>
  <outline>
    <contour>
      <point x="106" y="260" type="line"/>
      <point x="286" y="260" type="line"/>
      <point x="286" y="519" type="line"/>
      <point x="286" y="530" type="line"/>
      <point x="241" y="522"/>
      <point x="187" y="517"/>
      <point x="115" y="517" type="curve"/>
      <point x="75" y="517"/>
      <point x="49" y="518"/>
      <point x="20" y="519" type="curve"/>
      <point x="20" y="449" type="line"/>
      <point x="44" y="446" type="line"/>
      <point x="97" y="439"/>
      <point x="106" y="428"/>
      <point x="106" y="382" type="curve"/>
    </contour>
    <contour>
      <point x="196" y="3" type="curve"/>
      <point x="196" y="3" type="line"/>
      <point x="196" y="3" type="line"/>
      <point x="264" y="3"/>
      <point x="319" y="1"/>
      <point x="372" y="0" type="curve"/>
      <point x="372" y="70" type="line"/>
      <point x="348" y="73" type="line"/>
      <point x="295" y="80"/>
      <point x="286" y="91"/>
      <point x="286" y="137" type="curve"/>
      <point x="286" y="260" type="line"/>
      <point x="106" y="260" type="line"/>
      <point x="106" y="137" type="line"/>
      <point x="106" y="91"/>
      <point x="97" y="80"/>
      <point x="44" y="73" type="curve"/>
      <point x="20" y="70" type="line"/>
      <point x="20" y="0" type="line"/>
      <point x="73" y="1"/>
      <point x="128" y="3"/>
    </contour>
  </outline>
</glyph>
<glyph name="eng" format="2">
  <advance width="721"/>
  <unicode hex="014B"/>
  <anchor x="106" y="260" name="#entry"/>
  <anchor x="286" y="260" name="#exit"/>
  <anchor x="-162" y="0" name="%entry"/>
  <anchor x="106" y="0" name="%exit"/>
  <anchor x="-1" y="0" name="^entry"/>
  <anchor x="383" y="0" name="^exit"/>
  <anchor x="357" y="0" name="bottom"/>
  <anchor x="286" y="260" name="reversedExit"/>
  <anchor x="106" y="260" name="stem"/>
  <anchor x="347" y="520" name="top"/>
  <anchor x="286" y="519" name="topright"/>
  <outline>
    <contour>
      <point x="196" y="3" type="curve"/>
      <point x="196" y="3" type="line"/>
      <point x="196" y="3" type="line"/>
      <point x="264" y="3"/>
      <point x="319" y="1"/>
      <point x="372" y="0" type="curve"/>
      <point x="372" y="70" type="line"/>
      <point x="348" y="73" type="line"/>
      <point x="295" y="80"/>
      <point x="286" y="91"/>
      <point x="286" y="137" type="curve"/>
      <point x="286" y="260" type="line"/>
      <point x="106" y="260" type="line"/>
      <point x="106" y="137" type="line"/>
      <point x="106" y="91"/>
      <point x="97" y="80"/>
      <point x="44" y="73" type="curve"/>
      <point x="20" y="70" type="line"/>
      <point x="20" y="0" type="line"/>
      <point x="73" y="1"/>
      <point x="128" y="3"/>
    </contour>
    <contour>
      <point x="106" y="260" type="line"/>
      <point x="286" y="260" type="line"/>
      <point x="286" y="519" type="line"/>
      <point x="286" y="530" type="line"/>
      <point x="241" y="522"/>
      <point x="187" y="517"/>
      <point x="115" y="517" type="curve"/>
      <point x="75" y="517"/>
      <point x="49" y="518"/>
      <point x="20" y="519" type="curve"/>
      <point x="20" y="449" type="line"/>
      <point x="44" y="446" type="line"/>
      <point x="97" y="439"/>
      <point x="106" y="428"/>
      <point x="106" y="382" type="curve"/>
    </contour>
    <contour>
      <point x="434" y="260" type="line"/>
      <point x="614" y="260" type="line"/>
      <point x="614" y="358" type="line" smooth="yes"/>
      <point x="614" y="473"/>
      <point x="558" y="533"/>
      <point x="451" y="533" type="curve" smooth="yes"/>
      <point x="356" y="533"/>
      <point x="288" y="484"/>
      <point x="238" y="334" type="curve"/>
      <point x="259" y="318" type="line"/>
      <point x="289" y="391"/>
      <point x="322" y="421"/>
      <point x="368" y="421" type="curve" smooth="yes"/>
      <point x="413" y="421"/>
      <point x="434" y="397"/>
      <point x="434" y="347" type="curve" smooth="yes"/>
    </contour>
    <contour>
      <point x="295" y="-239" type="line"/>
      <point x="552" y="-239"/>
      <point x="614" y="-132"/>
      <point x="614" y="45" type="curve" smooth="yes"/>
      <point x="614" y="260" type="line"/>
      <point x="434" y="260" type="line"/>
      <point x="434" y="53" type="line" smooth="yes"/>
      <point x="434" y="-107"/>
      <point x="390" y="-170"/>
      <point x="295" y="-174" type="curve"/>
    </contour>
  </outline>
</glyph>
<glyph name="OE" format="2">
  <advance width="1061"/>
  <unicode hex="0152"/>
  <anchor x="527" y="0" name="bottom"/>
  <anchor x="521" y="708" name="top"/>
  <anchor x="521" y="688" name="top_low_1"/>
  <anchor x="521" y="668" name="top_low_2"/>
  <anchor x="521" y="648" name="top_low_3"/>
  <outline>
    <contour>
      <point x="397" y="-14" type="curve" smooth="yes"/>
      <point x="472" y="-14"/>
      <point x="492" y="3"/>
      <point x="624" y="3" type="curve" smooth="yes"/>
      <point x="667" y="3"/>
      <point x="704" y="3"/>
      <point x="729" y="3" type="curve" smooth="yes"/>
      <point x="772" y="3" type="line"/>
      <point x="882" y="3"/>
      <point x="952" y="2"/>
      <point x="1003" y="0" type="curve"/>
      <point x="1002" y="87"/>
      <point x="1006" y="181"/>
      <point x="1014" y="280" type="curve"/>
      <point x="941" y="280" type="line"/>
      <point x="912" y="140"/>
      <point x="866" y="73"/>
      <point x="801" y="73" type="curve"/>
      <point x="774" y="73" type="line" smooth="yes"/>
      <point x="732" y="73"/>
      <point x="723" y="87"/>
      <point x="723" y="156" type="curve" smooth="yes"/>
      <point x="723" y="635" type="line"/>
      <point x="766" y="635" type="line"/>
      <point x="854" y="635"/>
      <point x="896" y="606"/>
      <point x="924" y="508" type="curve"/>
      <point x="997" y="508" type="line"/>
      <point x="993" y="579"/>
      <point x="991" y="646"/>
      <point x="992" y="708" type="curve"/>
      <point x="943" y="706"/>
      <point x="875" y="705"/>
      <point x="768" y="705" type="curve"/>
      <point x="623" y="705" type="line" smooth="yes"/>
      <point x="498" y="705"/>
      <point x="469" y="722"/>
      <point x="399" y="722" type="curve" smooth="yes"/>
      <point x="186" y="722"/>
      <point x="37" y="567"/>
      <point x="37" y="345" type="curve" smooth="yes"/>
      <point x="37" y="128"/>
      <point x="180" y="-14"/>
    </contour>
    <contour>
      <point x="415" y="54" type="curve" smooth="yes"/>
      <point x="313" y="54"/>
      <point x="247" y="174"/>
      <point x="247" y="360" type="curve" smooth="yes"/>
      <point x="247" y="541"/>
      <point x="310" y="654"/>
      <point x="412" y="654" type="curve" smooth="yes"/>
      <point x="480" y="654"/>
      <point x="520" y="613"/>
      <point x="520" y="542" type="curve" smooth="yes"/>
      <point x="520" y="156" type="line" smooth="yes"/>
      <point x="520" y="93"/>
      <point x="480" y="54"/>
    </contour>
    <contour>
      <point x="684" y="321" type="line"/>
      <point x="834" y="321" type="line"/>
      <point x="834" y="391" type="line"/>
      <point x="684" y="391" type="line"/>
    </contour>
    <contour>
      <point x="811" y="214" type="curve"/>
      <point x="884" y="214" type="line"/>
      <point x="880" y="266"/>
      <point x="879" y="303"/>
      <point x="879" y="356" type="curve" smooth="yes"/>
      <point x="879" y="409"/>
      <point x="880" y="446"/>
      <point x="884" y="498" type="curve"/>
      <point x="811" y="498" type="line"/>
      <point x="802" y="426"/>
      <point x="776" y="391"/>
      <point x="730" y="391" type="curve"/>
      <point x="730" y="321" type="line"/>
      <point x="776" y="321"/>
      <point x="802" y="286"/>
    </contour>
  </outline>
</glyph>
<glyph name="oe" format="2">
  <advance width="836"/>
  <unicode hex="0153"/>
  <anchor x="419" y="0" name="bottom"/>
  <anchor x="420" y="520" name="top"/>
  <outline>
    <contour>
      <point x="268" y="-14" type="curve" smooth="yes"/>
      <point x="413" y="-14"/>
      <point x="485" y="78"/>
      <point x="485" y="262" type="curve" smooth="yes"/>
      <point x="485" y="443"/>
      <point x="415" y="533"/>
      <point x="272" y="533" type="curve" smooth="yes"/>
      <point x="119" y="533"/>
      <point x="31" y="433"/>
      <point x="31" y="257" type="curve" smooth="yes"/>
      <point x="31" y="84"/>
      <point x="116" y="-14"/>
    </contour>
    <contour>
      <point x="276" y="56" type="curve" smooth="yes"/>
      <point x="238" y="56"/>
      <point x="218" y="126"/>
      <point x="218" y="259" type="curve" smooth="yes"/>
      <point x="218" y="392"/>
      <point x="238" y="463"/>
      <point x="276" y="463" type="curve" smooth="yes"/>
      <point x="315" y="463"/>
      <point x="338" y="386"/>
      <point x="338" y="258" type="curve" smooth="yes"/>
      <point x="338" y="131"/>
      <point x="315" y="56"/>
    </contour>
    <contour>
      <point x="599" y="-14" type="curve" smooth="yes"/>
      <point x="701" y="-14"/>
      <point x="771" y="43"/>
      <point x="808" y="156" type="curve"/>
      <point x="740" y="186" type="line"/>
      <point x="710" y="123"/>
      <point x="677" y="96"/>
      <point x="631" y="96" type="curve" smooth="yes"/>
      <point x="561" y="96"/>
      <point x="525" y="160"/>
      <point x="525" y="283" type="curve" smooth="yes"/>
      <point x="525" y="305"/>
      <point x="525" y="312"/>
      <point x="526" y="314" type="curve"/>
      <point x="522" y="322" type="line"/>
      <point x="522" y="409"/>
      <point x="550" y="460"/>
      <point x="597" y="460" type="curve" smooth="yes"/>
      <point x="640" y="460"/>
      <point x="661" y="416"/>
      <point x="658" y="333" type="curve"/>
      <point x="469" y="333" type="line"/>
      <point x="471" y="264" type="line"/>
      <point x="804" y="264" type="line"/>
      <point x="811" y="446"/>
      <point x="748" y="533"/>
      <point x="608" y="533" type="curve" smooth="yes"/>
      <point x="461" y="533"/>
      <point x="378" y="435"/>
      <point x="378" y="262" type="curve" smooth="yes"/>
      <point x="378" y="89"/>
      <point x="460" y="-14"/>
    </contour>
  </outline>
</glyph>
<glyph name="bstroke" format="2">
  <advance width="641"/>
  <unicode hex="0180"/>
  <anchor x="284" y="260" name="#entry"/>
  <anchor x="284" y="260" name="#exit"/>
  <anchor x="354" y="261" name="center"/>
  <anchor x="297" y="520" name="top"/>
  <anchor x="104" y="520" name="top-left"/>
  <outline>
    <contour>
      <point x="417" y="476" type="curve" smooth="yes"/>
      <point x="346" y="476"/>
      <point x="296" y="440"/>
      <point x="272" y="383" type="curve"/>
      <point x="278" y="317" type="line"/>
      <point x="289" y="349"/>
      <point x="320" y="374"/>
      <point x="351" y="374" type="curve" smooth="yes"/>
      <point x="401" y="374"/>
      <point x="423" y="331"/>
      <point x="423" y="231" type="curve" smooth="yes"/>
      <point x="423" y="122"/>
      <point x="394" y="73"/>
      <point x="328" y="73" type="curve" smooth="yes"/>
      <point x="304" y="73"/>
      <point x="282" y="83"/>
      <point x="268" y="98" type="curve"/>
      <point x="257" y="39" type="line"/>
      <point x="280" y="5"/>
      <point x="325" y="-13"/>
      <point x="386" y="-13" type="curve" smooth="yes"/>
      <point x="529" y="-13"/>
      <point x="610" y="77"/>
      <point x="610" y="235" type="curve" smooth="yes"/>
      <point x="610" y="386"/>
      <point x="536" y="476"/>
    </contour>
    <component base="_LC-baseline-left-instroke"/>
    <component base="_LC-ascender-serifless" xOffset="-3"/>
    <component base="strokeshortcomb" xOffset="-28" yOffset="349"/>
  </outline>
</glyph>
<glyph name="Bhook" format="2">
  <advance width="896"/>
  <unicode hex="0181"/>
  <anchor x="544" y="0" name="bottom"/>
  <anchor x="563" y="0" name="currency"/>
  <anchor x="544" y="708" name="top"/>
  <outline>
    <contour>
      <point x="377" y="3" type="curve"/>
      <point x="392" y="3" type="line"/>
      <point x="508" y="3"/>
      <point x="541" y="0"/>
      <point x="576" y="0" type="curve" smooth="yes"/>
      <point x="766" y="0"/>
      <point x="876" y="72"/>
      <point x="876" y="196" type="curve" smooth="yes"/>
      <point x="876" y="300"/>
      <point x="797" y="362"/>
      <point x="653" y="371" type="curve"/>
      <point x="653" y="373" type="line"/>
      <point x="773" y="404"/>
      <point x="824" y="454"/>
      <point x="824" y="541" type="curve" smooth="yes"/>
      <point x="824" y="654"/>
      <point x="737" y="708"/>
      <point x="554" y="708" type="curve" smooth="yes"/>
      <point x="522" y="708"/>
      <point x="487" y="705"/>
      <point x="395" y="705" type="curve"/>
      <point x="398" y="705" type="line"/>
      <point x="343" y="705"/>
      <point x="285" y="708"/>
      <point x="231" y="708" type="curve"/>
      <point x="95" y="708"/>
      <point x="16" y="647"/>
      <point x="16" y="547" type="curve"/>
      <point x="16" y="484"/>
      <point x="52" y="444"/>
      <point x="110" y="444" type="curve"/>
      <point x="160" y="444"/>
      <point x="192" y="475"/>
      <point x="192" y="522" type="curve"/>
      <point x="192" y="560"/>
      <point x="171" y="574"/>
      <point x="171" y="605" type="curve"/>
      <point x="171" y="629"/>
      <point x="183" y="637"/>
      <point x="220" y="637" type="curve"/>
      <point x="276" y="637"/>
      <point x="291" y="619"/>
      <point x="291" y="552" type="curve"/>
      <point x="291" y="156" type="line"/>
      <point x="291" y="95"/>
      <point x="279" y="82"/>
      <point x="224" y="76" type="curve"/>
      <point x="171" y="71" type="line"/>
      <point x="171" y="1" type="line"/>
      <point x="237" y="2"/>
      <point x="325" y="3"/>
    </contour>
    <contour>
      <point x="561" y="73" type="curve" smooth="yes"/>
      <point x="510" y="73"/>
      <point x="494" y="93"/>
      <point x="494" y="156" type="curve" smooth="yes"/>
      <point x="494" y="638" type="line"/>
      <point x="529" y="638" type="line" smooth="yes"/>
      <point x="604" y="638"/>
      <point x="638" y="597"/>
      <point x="638" y="529" type="curve" smooth="yes"/>
      <point x="638" y="450"/>
      <point x="593" y="401"/>
      <point x="521" y="401" type="curve" smooth="yes"/>
      <point x="435" y="401" type="line"/>
      <point x="435" y="334" type="line"/>
      <point x="518" y="334" type="line" smooth="yes"/>
      <point x="613" y="334"/>
      <point x="666" y="283"/>
      <point x="666" y="189" type="curve" smooth="yes"/>
      <point x="666" y="113"/>
      <point x="629" y="73"/>
    </contour>
  </outline>
</glyph>
<glyph name="Chook" format="2">
  <advance width="718"/>
  <unicode hex="0187"/>
  <anchor x="418" y="0" name="bottom"/>
  <anchor x="404" y="0" name="currency"/>
  <anchor x="246" y="354" name="middlestroke"/>
  <anchor x="350" y="708" name="top"/>
  <outline>
    <contour>
      <point x="362" y="-14" type="curve" smooth="yes"/>
      <point x="504" y="-14"/>
      <point x="534" y="59"/>
      <point x="568" y="59" type="curve" smooth="yes"/>
      <point x="583" y="59"/>
      <point x="590" y="43"/>
      <point x="594" y="-4" type="curve"/>
      <point x="667" y="-4" type="line"/>
      <point x="661" y="96"/>
      <point x="663" y="161"/>
      <point x="663" y="280" type="curve"/>
      <point x="590" y="280" type="line"/>
      <point x="574" y="147"/>
      <point x="511" y="71"/>
      <point x="418" y="71" type="curve" smooth="yes"/>
      <point x="309" y="71"/>
      <point x="247" y="174"/>
      <point x="247" y="355" type="curve" smooth="yes"/>
      <point x="247" y="534"/>
      <point x="308" y="633"/>
      <point x="418" y="633" type="curve" smooth="yes"/>
      <point x="510" y="633"/>
      <point x="573" y="558"/>
      <point x="590" y="428" type="curve"/>
      <point x="663" y="428" type="line"/>
      <point x="655" y="517"/>
      <point x="632" y="589"/>
      <point x="598" y="648" type="curve"/>
      <point x="548" y="648"/>
      <point x="518" y="722"/>
      <point x="361" y="722" type="curve" smooth="yes"/>
      <point x="166" y="722"/>
      <point x="37" y="574"/>
      <point x="37" y="350" type="curve" smooth="yes"/>
      <point x="37" y="128"/>
      <point x="164" y="-14"/>
    </contour>
    <contour>
      <point x="593" y="428" type="curve"/>
      <point x="663" y="428" type="line"/>
      <point x="663" y="605"/>
      <point x="568" y="658"/>
      <point x="568" y="764" type="curve" smooth="yes"/>
      <point x="568" y="790"/>
      <point x="579" y="801"/>
      <point x="605" y="801" type="curve" smooth="yes"/>
      <point x="636" y="801"/>
      <point x="650" y="780"/>
      <point x="688" y="780" type="curve" smooth="yes"/>
      <point x="735" y="780"/>
      <point x="766" y="812"/>
      <point x="766" y="863" type="curve" smooth="yes"/>
      <point x="766" y="922"/>
      <point x="726" y="956"/>
      <point x="655" y="956" type="curve" smooth="yes"/>
      <point x="559" y="956"/>
      <point x="497" y="893"/>
      <point x="497" y="795" type="curve" smooth="yes"/>
      <point x="497" y="621"/>
      <point x="593" y="576"/>
    </contour>
  </outline>
</glyph>
<glyph name="Dhook" format="2">
  <advance width="1003"/>
  <unicode hex="018A"/>
  <anchor x="578" y="0" name="bottom"/>
  <anchor x="396" y="356" name="center"/>
  <anchor x="593" y="708" name="top"/>
  <outline>
    <contour>
      <point x="522" y="0" type="curve"/>
      <point x="544" y="0" type="line" smooth="yes"/>
      <point x="808" y="0"/>
      <point x="966" y="139"/>
      <point x="966" y="370" type="curve" smooth="yes"/>
      <point x="966" y="591"/>
      <point x="822" y="708"/>
      <point x="548" y="708" type="curve" smooth="yes"/>
      <point x="512" y="708"/>
      <point x="442" y="705"/>
      <point x="392" y="705" type="curve"/>
      <point x="398" y="705" type="line"/>
      <point x="343" y="705"/>
      <point x="285" y="708"/>
      <point x="231" y="708" type="curve"/>
      <point x="95" y="708"/>
      <point x="16" y="647"/>
      <point x="16" y="547" type="curve"/>
      <point x="16" y="484"/>
      <point x="52" y="444"/>
      <point x="110" y="444" type="curve"/>
      <point x="160" y="444"/>
      <point x="192" y="475"/>
      <point x="192" y="522" type="curve"/>
      <point x="192" y="560"/>
      <point x="171" y="574"/>
      <point x="171" y="605" type="curve"/>
      <point x="171" y="629"/>
      <point x="183" y="637"/>
      <point x="220" y="637" type="curve"/>
      <point x="276" y="637"/>
      <point x="291" y="619"/>
      <point x="291" y="552" type="curve"/>
      <point x="291" y="156" type="line"/>
      <point x="291" y="93"/>
      <point x="278" y="80"/>
      <point x="211" y="74" type="curve"/>
      <point x="163" y="70" type="line"/>
      <point x="163" y="0" type="line"/>
      <point x="231" y="2"/>
      <point x="338" y="3"/>
      <point x="398" y="3" type="curve"/>
      <point x="430" y="3"/>
      <point x="486" y="0"/>
    </contour>
    <contour>
      <point x="563" y="68" type="curve" smooth="yes"/>
      <point x="508" y="68"/>
      <point x="494" y="85"/>
      <point x="494" y="154" type="curve" smooth="yes"/>
      <point x="494" y="640" type="line"/>
      <point x="564" y="640" type="line" smooth="yes"/>
      <point x="698" y="640"/>
      <point x="756" y="554"/>
      <point x="756" y="356" type="curve" smooth="yes"/>
      <point x="756" y="156"/>
      <point x="697" y="68"/>
    </contour>
  </outline>
</glyph>
<glyph name="Schwa" format="2">
  <advance width="814"/>
  <unicode hex="018F"/>
  <anchor x="426" y="0" name="bottom"/>
  <anchor x="426" y="708" name="top"/>
  <anchor x="426" y="688" name="top_low_1"/>
  <anchor x="426" y="668" name="top_low_2"/>
  <anchor x="426" y="648" name="top_low_3"/>
  <outline>
    <contour>
      <point x="400" y="-14" type="curve" smooth="yes"/>
      <point x="630" y="-14"/>
      <point x="777" y="131"/>
      <point x="777" y="360" type="curve" smooth="yes"/>
      <point x="777" y="583"/>
      <point x="636" y="722"/>
      <point x="412" y="722" type="curve" smooth="yes"/>
      <point x="261" y="722"/>
      <point x="143" y="656"/>
      <point x="72" y="533" type="curve"/>
      <point x="112" y="508" type="line"/>
      <point x="166" y="579"/>
      <point x="235" y="613"/>
      <point x="325" y="613" type="curve" smooth="yes"/>
      <point x="482" y="613"/>
      <point x="570" y="506"/>
      <point x="570" y="314" type="curve" smooth="yes"/>
      <point x="570" y="154"/>
      <point x="510" y="59"/>
      <point x="409" y="59" type="curve" smooth="yes"/>
      <point x="304" y="59"/>
      <point x="232" y="160"/>
      <point x="243" y="292" type="curve"/>
      <point x="626" y="292" type="line"/>
      <point x="624" y="361" type="line"/>
      <point x="38" y="361" type="line"/>
      <point x="26" y="132"/>
      <point x="167" y="-14"/>
    </contour>
  </outline>
</glyph>
<glyph name="Eopen" format="2">
  <advance width="651"/>
  <unicode hex="0190"/>
  <anchor x="329" y="0" name="bottom"/>
  <anchor x="329" y="708" name="top"/>
  <outline>
    <contour>
      <point x="266" y="-14" type="curve" smooth="yes"/>
      <point x="399" y="-14"/>
      <point x="477" y="37"/>
      <point x="504" y="37" type="curve" smooth="yes"/>
      <point x="517" y="37"/>
      <point x="523" y="26"/>
      <point x="527" y="-4" type="curve"/>
      <point x="600" y="-4" type="line"/>
      <point x="596" y="44"/>
      <point x="595" y="93"/>
      <point x="595" y="240" type="curve"/>
      <point x="522" y="240" type="line"/>
      <point x="500" y="132"/>
      <point x="438" y="73"/>
      <point x="346" y="73" type="curve" smooth="yes"/>
      <point x="271" y="73"/>
      <point x="230" y="113"/>
      <point x="230" y="187" type="curve" smooth="yes"/>
      <point x="230" y="247"/>
      <point x="257" y="296"/>
      <point x="307" y="325" type="curve"/>
      <point x="333" y="316"/>
      <point x="353" y="312"/>
      <point x="371" y="312" type="curve" smooth="yes"/>
      <point x="407" y="312"/>
      <point x="431" y="329"/>
      <point x="431" y="354" type="curve" smooth="yes"/>
      <point x="431" y="379"/>
      <point x="407" y="396"/>
      <point x="371" y="396" type="curve" smooth="yes"/>
      <point x="353" y="396"/>
      <point x="333" y="392"/>
      <point x="307" y="383" type="curve"/>
      <point x="259" y="407"/>
      <point x="230" y="456"/>
      <point x="230" y="514" type="curve" smooth="yes"/>
      <point x="230" y="590"/>
      <point x="277" y="635"/>
      <point x="357" y="635" type="curve" smooth="yes"/>
      <point x="446" y="635"/>
      <point x="501" y="579"/>
      <point x="522" y="468" type="curve"/>
      <point x="595" y="468" type="line"/>
      <point x="595" y="615"/>
      <point x="596" y="664"/>
      <point x="600" y="712" type="curve"/>
      <point x="527" y="712" type="line"/>
      <point x="523" y="681"/>
      <point x="517" y="671"/>
      <point x="503" y="671" type="curve" smooth="yes"/>
      <point x="473" y="671"/>
      <point x="422" y="722"/>
      <point x="290" y="722" type="curve" smooth="yes"/>
      <point x="136" y="722"/>
      <point x="40" y="646"/>
      <point x="40" y="535" type="curve" smooth="yes"/>
      <point x="40" y="450"/>
      <point x="96" y="387"/>
      <point x="191" y="355" type="curve"/>
      <point x="191" y="353" type="line"/>
      <point x="82" y="324"/>
      <point x="20" y="256"/>
      <point x="20" y="166" type="curve" smooth="yes"/>
      <point x="20" y="54"/>
      <point x="113" y="-14"/>
    </contour>
  </outline>
</glyph>
<glyph name="Fhook" format="2">
  <advance width="639"/>
  <unicode hex="0191"/>
  <anchor x="341" y="0" name="bottom"/>
  <anchor x="238" y="140" name="center"/>
  <anchor x="130" y="250" name="stem"/>
  <anchor x="335" y="708" name="top"/>
  <anchor x="335" y="688" name="top_low_1"/>
  <anchor x="335" y="668" name="top_low_2"/>
  <anchor x="335" y="648" name="top_low_3"/>
  <outline>
    <contour>
      <point x="130" y="250" type="line"/>
      <point x="333" y="250" type="line"/>
      <point x="333" y="635" type="line"/>
      <point x="364" y="635" type="line"/>
      <point x="445" y="635"/>
      <point x="497" y="599"/>
      <point x="530" y="508" type="curve"/>
      <point x="603" y="508" type="line"/>
      <point x="599" y="579"/>
      <point x="597" y="646"/>
      <point x="598" y="708" type="curve"/>
      <point x="554" y="706"/>
      <point x="492" y="705"/>
      <point x="395" y="705" type="curve"/>
      <point x="233" y="705" type="line"/>
      <point x="216" y="705" type="line"/>
      <point x="169" y="705"/>
      <point x="84" y="706"/>
      <point x="30" y="708" type="curve"/>
      <point x="30" y="638" type="line"/>
      <point x="62" y="634" type="line"/>
      <point x="118" y="627"/>
      <point x="130" y="616"/>
      <point x="130" y="552" type="curve"/>
    </contour>
    <contour>
      <point x="273" y="271" type="line"/>
      <point x="443" y="271" type="line"/>
      <point x="443" y="341" type="line"/>
      <point x="273" y="341" type="line"/>
    </contour>
    <contour>
      <point x="429" y="124" type="curve"/>
      <point x="502" y="124" type="line"/>
      <point x="498" y="191"/>
      <point x="497" y="238"/>
      <point x="497" y="306" type="curve" smooth="yes"/>
      <point x="497" y="374"/>
      <point x="498" y="421"/>
      <point x="502" y="488" type="curve"/>
      <point x="429" y="488" type="line"/>
      <point x="420" y="389"/>
      <point x="394" y="341"/>
      <point x="348" y="341" type="curve"/>
      <point x="348" y="271" type="line"/>
      <point x="394" y="271"/>
      <point x="420" y="224"/>
    </contour>
    <component base="_UC-J-descender-stump" xOffset="11"/>
  </outline>
</glyph>
<glyph name="Ghook" format="2">
  <advance width="829"/>
  <unicode hex="0193"/>
  <anchor x="420" y="0" name="bottom"/>
  <anchor x="394" y="0" name="currency"/>
  <anchor x="399" y="708" name="top"/>
  <outline>
    <contour>
      <point x="363" y="-14" type="curve" smooth="yes"/>
      <point x="504" y="-14"/>
      <point x="545" y="57"/>
      <point x="593" y="57" type="curve" smooth="yes"/>
      <point x="616" y="57"/>
      <point x="626" y="41"/>
      <point x="630" y="0" type="curve"/>
      <point x="703" y="0" type="line"/>
      <point x="703" y="198" type="line"/>
      <point x="703" y="264"/>
      <point x="709" y="278"/>
      <point x="746" y="283" type="curve"/>
      <point x="753" y="284" type="line"/>
      <point x="753" y="354" type="line"/>
      <point x="714" y="352"/>
      <point x="651" y="351"/>
      <point x="616" y="351" type="curve"/>
      <point x="602" y="351" type="line"/>
      <point x="586" y="351" type="line"/>
      <point x="539" y="351"/>
      <point x="454" y="352"/>
      <point x="400" y="354" type="curve"/>
      <point x="400" y="284" type="line"/>
      <point x="432" y="280" type="line"/>
      <point x="488" y="273"/>
      <point x="500" y="262"/>
      <point x="500" y="198" type="curve"/>
      <point x="500" y="128" type="line" smooth="yes"/>
      <point x="500" y="84"/>
      <point x="472" y="61"/>
      <point x="421" y="61" type="curve" smooth="yes"/>
      <point x="311" y="61"/>
      <point x="247" y="166"/>
      <point x="247" y="348" type="curve" smooth="yes"/>
      <point x="247" y="533"/>
      <point x="313" y="633"/>
      <point x="438" y="633" type="curve" smooth="yes"/>
      <point x="550" y="633"/>
      <point x="613" y="558"/>
      <point x="630" y="428" type="curve"/>
      <point x="703" y="428" type="line"/>
      <point x="695" y="517"/>
      <point x="672" y="589"/>
      <point x="638" y="648" type="curve"/>
      <point x="584" y="648"/>
      <point x="552" y="722"/>
      <point x="382" y="722" type="curve" smooth="yes"/>
      <point x="173" y="722"/>
      <point x="37" y="574"/>
      <point x="37" y="347" type="curve" smooth="yes"/>
      <point x="37" y="127"/>
      <point x="165" y="-14"/>
    </contour>
    <contour>
      <point x="633" y="428" type="curve"/>
      <point x="703" y="428" type="line"/>
      <point x="703" y="605"/>
      <point x="608" y="658"/>
      <point x="608" y="764" type="curve" smooth="yes"/>
      <point x="608" y="790"/>
      <point x="619" y="801"/>
      <point x="645" y="801" type="curve" smooth="yes"/>
      <point x="676" y="801"/>
      <point x="690" y="780"/>
      <point x="728" y="780" type="curve" smooth="yes"/>
      <point x="775" y="780"/>
      <point x="806" y="812"/>
      <point x="806" y="863" type="curve" smooth="yes"/>
      <point x="806" y="922"/>
      <point x="766" y="956"/>
      <point x="695" y="956" type="curve" smooth="yes"/>
      <point x="599" y="956"/>
      <point x="537" y="893"/>
      <point x="537" y="795" type="curve" smooth="yes"/>
      <point x="537" y="621"/>
      <point x="633" y="576"/>
    </contour>
  </outline>
</glyph>
<glyph name="Khook" format="2">
  <advance width="916"/>
  <unicode hex="0198"/>
  <anchor x="445" y="0" name="bottom"/>
  <anchor x="231" y="509" name="center"/>
  <anchor x="422" y="708" name="top"/>
  <outline>
    <contour>
      <point x="532" y="0" type="curve"/>
      <point x="557" y="2"/>
      <point x="605" y="3"/>
      <point x="662" y="3" type="curve" smooth="yes"/>
      <point x="703" y="3"/>
      <point x="748" y="2"/>
      <point x="799" y="0" type="curve"/>
      <point x="799" y="70" type="line"/>
      <point x="750" y="78"/>
      <point x="731" y="99"/>
      <point x="711" y="156" type="curve" smooth="yes"/>
      <point x="678" y="251" type="line" smooth="yes"/>
      <point x="638" y="366"/>
      <point x="590" y="403"/>
      <point x="489" y="420" type="curve"/>
      <point x="478" y="359" type="line"/>
      <point x="627" y="567" type="line"/>
      <point x="672" y="630"/>
      <point x="701" y="652"/>
      <point x="739" y="652" type="curve"/>
      <point x="764" y="652"/>
      <point x="776" y="645"/>
      <point x="776" y="630" type="curve"/>
      <point x="776" y="609"/>
      <point x="752" y="591"/>
      <point x="752" y="561" type="curve"/>
      <point x="752" y="532"/>
      <point x="775" y="516"/>
      <point x="814" y="516" type="curve"/>
      <point x="871" y="516"/>
      <point x="904" y="549"/>
      <point x="904" y="605" type="curve"/>
      <point x="904" y="678"/>
      <point x="850" y="722"/>
      <point x="762" y="722" type="curve"/>
      <point x="681" y="722"/>
      <point x="631" y="686"/>
      <point x="546" y="567" type="curve"/>
      <point x="466" y="456" type="line" smooth="yes"/>
      <point x="427" y="401"/>
      <point x="411" y="391"/>
      <point x="368" y="391" type="curve" smooth="yes"/>
      <point x="291" y="391" type="line"/>
      <point x="291" y="321" type="line"/>
      <point x="368" y="321" type="line" smooth="yes"/>
      <point x="426" y="321"/>
      <point x="454" y="298"/>
      <point x="476" y="233" type="curve" smooth="yes"/>
      <point x="520" y="103" type="line" smooth="yes"/>
      <point x="532" y="68"/>
      <point x="534" y="43"/>
    </contour>
    <contour>
      <point x="216" y="3" type="curve"/>
      <point x="231" y="3" type="line"/>
      <point x="247" y="3" type="line"/>
      <point x="294" y="3"/>
      <point x="379" y="2"/>
      <point x="433" y="0" type="curve"/>
      <point x="433" y="70" type="line"/>
      <point x="401" y="74" type="line"/>
      <point x="345" y="81"/>
      <point x="333" y="92"/>
      <point x="333" y="156" type="curve"/>
      <point x="333" y="708" type="line"/>
      <point x="299" y="706"/>
      <point x="265" y="705"/>
      <point x="231" y="705" type="curve"/>
      <point x="216" y="705" type="line"/>
      <point x="169" y="705"/>
      <point x="84" y="706"/>
      <point x="30" y="708" type="curve"/>
      <point x="30" y="638" type="line"/>
      <point x="62" y="634" type="line"/>
      <point x="118" y="627"/>
      <point x="130" y="616"/>
      <point x="130" y="552" type="curve"/>
      <point x="130" y="156" type="line"/>
      <point x="130" y="92"/>
      <point x="118" y="81"/>
      <point x="62" y="74" type="curve"/>
      <point x="30" y="71" type="line"/>
      <point x="30" y="1" type="line"/>
      <point x="84" y="2"/>
      <point x="169" y="3"/>
    </contour>
  </outline>
</glyph>
<glyph name="khook" format="2">
  <advance width="691"/>
  <unicode hex="0199"/>
  <anchor x="286" y="260" name="#entry"/>
  <anchor x="286" y="260" name="#exit"/>
  <anchor x="677" y="520" name="2ndTittle"/>
  <anchor x="425" y="0" name="^exit"/>
  <anchor x="106" y="520" name="bar"/>
  <anchor x="196" y="520" name="center"/>
  <anchor x="106" y="260" name="stem"/>
  <anchor x="336" y="773" name="top"/>
  <outline>
    <contour>
      <point x="106" y="260" type="line"/>
      <point x="286" y="260" type="line"/>
      <point x="286" y="596" type="line"/>
      <point x="286" y="676"/>
      <point x="313" y="712"/>
      <point x="372" y="712" type="curve"/>
      <point x="400" y="712"/>
      <point x="415" y="704"/>
      <point x="415" y="688" type="curve"/>
      <point x="415" y="670"/>
      <point x="391" y="650"/>
      <point x="391" y="622" type="curve"/>
      <point x="391" y="593"/>
      <point x="413" y="576"/>
      <point x="451" y="576" type="curve"/>
      <point x="507" y="576"/>
      <point x="543" y="606"/>
      <point x="543" y="664" type="curve"/>
      <point x="543" y="738"/>
      <point x="480" y="782"/>
      <point x="360" y="782" type="curve"/>
      <point x="193" y="782"/>
      <point x="106" y="696"/>
      <point x="106" y="529" type="curve"/>
    </contour>
    <component base="_LC-baseline-normal-narrow" xOffset="-1"/>
    <component base="_LC-k-legs" xOffset="230"/>
  </outline>
</glyph>
<glyph name="lambdastroke-latin" format="2">
  <advance width="712"/>
  <unicode hex="019B"/>
  <anchor x="372" y="0" name="bottom"/>
  <anchor x="372" y="250" name="center"/>
  <anchor x="372" y="773" name="top"/>
  <outline>
    <contour>
      <point x="319" y="100" type="curve"/>
      <point x="449" y="367" type="line"/>
      <point x="400" y="377" type="line"/>
      <point x="459" y="211" type="line"/>
      <point x="498" y="113"/>
      <point x="476" y="80"/>
      <point x="416" y="72" type="curve"/>
      <point x="395" y="70" type="line"/>
      <point x="395" y="0" type="line"/>
      <point x="445" y="2"/>
      <point x="495" y="3"/>
      <point x="537" y="3" type="curve"/>
      <point x="584" y="3"/>
      <point x="631" y="2"/>
      <point x="672" y="0" type="curve"/>
      <point x="672" y="70" type="line"/>
      <point x="654" y="72" type="line"/>
      <point x="601" y="78"/>
      <point x="578" y="101"/>
      <point x="548" y="176" type="curve"/>
      <point x="390" y="603" type="line"/>
      <point x="368" y="603" type="line"/>
      <point x="147" y="139" type="line"/>
      <point x="120" y="90"/>
      <point x="93" y="76"/>
      <point x="40" y="71" type="curve"/>
      <point x="40" y="0" type="line"/>
      <point x="81" y="2"/>
      <point x="125" y="3"/>
      <point x="203" y="3" type="curve"/>
      <point x="233" y="3"/>
      <point x="263" y="2"/>
      <point x="293" y="0" type="curve"/>
      <point x="291" y="37"/>
      <point x="302" y="70"/>
    </contour>
    <contour>
      <point x="196" y="465" type="line"/>
      <point x="381" y="555" type="line"/>
      <point x="344" y="609" type="line"/>
      <point x="167" y="523" type="line"/>
    </contour>
    <contour>
      <point x="358" y="494" type="line"/>
      <point x="424" y="508" type="line"/>
      <point x="362" y="685" type="line" smooth="yes"/>
      <point x="339" y="750"/>
      <point x="300" y="782"/>
      <point x="240" y="782" type="curve" smooth="yes"/>
      <point x="174" y="782"/>
      <point x="127" y="742"/>
      <point x="127" y="684" type="curve" smooth="yes"/>
      <point x="127" y="646"/>
      <point x="151" y="623"/>
      <point x="189" y="623" type="curve" smooth="yes"/>
      <point x="220" y="623"/>
      <point x="239" y="638"/>
      <point x="239" y="662" type="curve" smooth="yes"/>
      <point x="239" y="675"/>
      <point x="234" y="683"/>
      <point x="234" y="694" type="curve" smooth="yes"/>
      <point x="234" y="708"/>
      <point x="242" y="715"/>
      <point x="257" y="715" type="curve" smooth="yes"/>
      <point x="275" y="715"/>
      <point x="284" y="704"/>
      <point x="295" y="674" type="curve" smooth="yes"/>
    </contour>
    <contour>
      <point x="381" y="555" type="line"/>
      <point x="543" y="634" type="line"/>
      <point x="514" y="692" type="line"/>
      <point x="344" y="609" type="line"/>
    </contour>
  </outline>
</glyph>
<glyph name="Mturned" format="2">
  <advance width="1390"/>
  <unicode hex="019C"/>
  <anchor x="698" y="0" name="bottom"/>
  <anchor x="699" y="708" name="top"/>
  <outline>
    <contour>
      <point x="402" y="-14" type="curve" smooth="yes"/>
      <point x="525" y="-14"/>
      <point x="618" y="39"/>
      <point x="651" y="129" type="curve"/>
      <point x="634" y="201" type="line"/>
      <point x="592" y="104"/>
      <point x="542" y="71"/>
      <point x="464" y="71" type="curve" smooth="yes"/>
      <point x="376" y="71"/>
      <point x="333" y="124"/>
      <point x="333" y="234" type="curve" smooth="yes"/>
      <point x="333" y="552" type="line"/>
      <point x="333" y="617"/>
      <point x="343" y="629"/>
      <point x="391" y="635" type="curve"/>
      <point x="413" y="638" type="line"/>
      <point x="413" y="708" type="line"/>
      <point x="365" y="706"/>
      <point x="289" y="705"/>
      <point x="247" y="705" type="curve"/>
      <point x="235" y="705" type="line"/>
      <point x="216" y="706" type="line"/>
      <point x="169" y="705"/>
      <point x="84" y="707"/>
      <point x="30" y="709" type="curve"/>
      <point x="30" y="639" type="line"/>
      <point x="62" y="635" type="line"/>
      <point x="118" y="628"/>
      <point x="130" y="617"/>
      <point x="130" y="553" type="curve"/>
      <point x="130" y="258" type="line" smooth="yes"/>
      <point x="130" y="88"/>
      <point x="232" y="-14"/>
    </contour>
    <contour>
      <point x="857" y="-14" type="curve" smooth="yes"/>
      <point x="983" y="-14"/>
      <point x="1070" y="45"/>
      <point x="1092" y="145" type="curve"/>
      <point x="1074" y="206" type="line"/>
      <point x="1042" y="104"/>
      <point x="998" y="71"/>
      <point x="923" y="71" type="curve" smooth="yes"/>
      <point x="839" y="71"/>
      <point x="796" y="126"/>
      <point x="796" y="234" type="curve" smooth="yes"/>
      <point x="796" y="552" type="line"/>
      <point x="796" y="617"/>
      <point x="806" y="629"/>
      <point x="854" y="635" type="curve"/>
      <point x="876" y="638" type="line"/>
      <point x="876" y="708" type="line"/>
      <point x="828" y="706"/>
      <point x="752" y="705"/>
      <point x="710" y="705" type="curve"/>
      <point x="698" y="705" type="line"/>
      <point x="679" y="706" type="line"/>
      <point x="637" y="705"/>
      <point x="561" y="707"/>
      <point x="513" y="709" type="curve"/>
      <point x="513" y="639" type="line"/>
      <point x="535" y="636" type="line"/>
      <point x="583" y="630"/>
      <point x="593" y="617"/>
      <point x="593" y="553" type="curve"/>
      <point x="593" y="258" type="line" smooth="yes"/>
      <point x="593" y="88"/>
      <point x="692" y="-14"/>
    </contour>
    <contour>
      <point x="1056" y="0" type="line"/>
      <point x="1056" y="70" type="line"/>
      <point x="1056" y="-10" type="line"/>
      <point x="1115" y="-2"/>
      <point x="1176" y="2"/>
      <point x="1252" y="2" type="curve"/>
      <point x="1282" y="2"/>
      <point x="1309" y="1"/>
      <point x="1360" y="0" type="curve"/>
      <point x="1360" y="70" type="line"/>
      <point x="1321" y="75" type="line"/>
      <point x="1268" y="82"/>
      <point x="1259" y="91"/>
      <point x="1259" y="137" type="curve"/>
      <point x="1259" y="552" type="line"/>
      <point x="1259" y="616"/>
      <point x="1271" y="627"/>
      <point x="1327" y="634" type="curve"/>
      <point x="1359" y="638" type="line"/>
      <point x="1359" y="708" type="line"/>
      <point x="1305" y="706"/>
      <point x="1220" y="705"/>
      <point x="1173" y="705" type="curve"/>
      <point x="1161" y="705" type="line"/>
      <point x="1142" y="706" type="line"/>
      <point x="1100" y="705"/>
      <point x="1024" y="707"/>
      <point x="976" y="709" type="curve"/>
      <point x="976" y="639" type="line"/>
      <point x="998" y="636" type="line"/>
      <point x="1046" y="630"/>
      <point x="1056" y="617"/>
      <point x="1056" y="553" type="curve"/>
    </contour>
  </outline>
</glyph>
<glyph name="nlongrightleg" format="2">
  <advance width="711"/>
  <unicode hex="019E"/>
  <anchor x="106" y="260" name="#entry"/>
  <anchor x="286" y="260" name="#exit"/>
  <anchor x="-162" y="0" name="%entry"/>
  <anchor x="106" y="0" name="%exit"/>
  <anchor x="-1" y="0" name="^entry"/>
  <anchor x="383" y="0" name="^exit"/>
  <anchor x="357" y="0" name="bottom"/>
  <anchor x="286" y="260" name="reversedExit"/>
  <anchor x="106" y="260" name="stem"/>
  <anchor x="347" y="520" name="top"/>
  <anchor x="286" y="519" name="topright"/>
  <outline>
    <contour>
      <point x="196" y="3" type="curve"/>
      <point x="196" y="3" type="line"/>
      <point x="196" y="3" type="line"/>
      <point x="264" y="3"/>
      <point x="319" y="1"/>
      <point x="372" y="0" type="curve"/>
      <point x="372" y="70" type="line"/>
      <point x="348" y="73" type="line"/>
      <point x="295" y="80"/>
      <point x="286" y="91"/>
      <point x="286" y="137" type="curve"/>
      <point x="286" y="260" type="line"/>
      <point x="106" y="260" type="line"/>
      <point x="106" y="137" type="line"/>
      <point x="106" y="91"/>
      <point x="97" y="80"/>
      <point x="44" y="73" type="curve"/>
      <point x="20" y="70" type="line"/>
      <point x="20" y="0" type="line"/>
      <point x="73" y="1"/>
      <point x="128" y="3"/>
    </contour>
    <contour>
      <point x="106" y="260" type="line"/>
      <point x="286" y="260" type="line"/>
      <point x="286" y="519" type="line"/>
      <point x="286" y="530" type="line"/>
      <point x="241" y="522"/>
      <point x="187" y="517"/>
      <point x="115" y="517" type="curve"/>
      <point x="75" y="517"/>
      <point x="49" y="518"/>
      <point x="20" y="519" type="curve"/>
      <point x="20" y="449" type="line"/>
      <point x="44" y="446" type="line"/>
      <point x="97" y="439"/>
      <point x="106" y="428"/>
      <point x="106" y="382" type="curve"/>
    </contour>
    <contour>
      <point x="434" y="260" type="line"/>
      <point x="614" y="260" type="line"/>
      <point x="614" y="358" type="line" smooth="yes"/>
      <point x="614" y="473"/>
      <point x="558" y="533"/>
      <point x="451" y="533" type="curve" smooth="yes"/>
      <point x="356" y="533"/>
      <point x="288" y="484"/>
      <point x="238" y="334" type="curve"/>
      <point x="259" y="318" type="line"/>
      <point x="289" y="391"/>
      <point x="322" y="421"/>
      <point x="368" y="421" type="curve" smooth="yes"/>
      <point x="413" y="421"/>
      <point x="434" y="397"/>
      <point x="434" y="347" type="curve" smooth="yes"/>
    </contour>
    <contour>
      <point x="524" y="-228" type="curve"/>
      <point x="524" y="-228" type="line"/>
      <point x="524" y="-228" type="line"/>
      <point x="592" y="-228"/>
      <point x="647" y="-230"/>
      <point x="700" y="-231" type="curve"/>
      <point x="700" y="-161" type="line"/>
      <point x="676" y="-158" type="line"/>
      <point x="623" y="-151"/>
      <point x="614" y="-140"/>
      <point x="614" y="-94" type="curve"/>
      <point x="614" y="260" type="line"/>
      <point x="434" y="260" type="line"/>
      <point x="434" y="-94" type="line"/>
      <point x="434" y="-140"/>
      <point x="425" y="-151"/>
      <point x="372" y="-158" type="curve"/>
      <point x="348" y="-161" type="line"/>
      <point x="348" y="-231" type="line"/>
      <point x="401" y="-230"/>
      <point x="456" y="-228"/>
    </contour>
  </outline>
</glyph>
